{
DisplayStrings = (
/uniE800,
/uniE33F
);
copyright = "Copyright \U00A9 2014";
customParameters = (
{
name = vendorID;
value = STAC;
}
);
date = "2014-09-21 23:20:42 +0000";
designer = "Levii Buzolic";
designerURL = "http://levibuzolic.com";
familyName = "social";
featurePrefixes = (
{
automatic = 1;
code = "languagesystem DFLT dflt;\012languagesystem latn dflt;\012";
name = Languagesystems;
}
);
fontMaster = (
{
ascender = 1691;
capHeight = 1467;
customParameters = (
{
name = typoAscender;
value = 1491;
},
{
name = typoDescender;
value = "-431";
},
{
name = typoLineGap;
value = 307;
},
{
name = underlinePosition;
value = "-217";
}
);
descender = "-431";
id = "06D35582-4FA2-40C1-8C5B-DEFCD1A2473F";
userData = {
GSOffsetHorizontal = 24;
GSOffsetProportional = 1;
GSOffsetVertical = "-32";
};
weightValue = 400;
widthValue = 5;
xHeight = 1062;
}
);
glyphs = (
{
glyphname = uniE026;
lastChange = "2013-12-04 00:46:26 +1000";
layers = (
{
layerId = "06D35582-4FA2-40C1-8C5B-DEFCD1A2473F";
name = Regular;
paths = (
{
closed = 1;
nodes = (
"1572.97 1601 OFFCURVE",
"1438.36 1553.85 OFFCURVE",
"1355 1474 CURVE SMOOTH",
"1291.02 1412.71 OFFCURVE",
"1240 1292 OFFCURVE",
"1240 1135 CURVE SMOOTH",
"1240 846 LINE",
"928 846 LINE",
"928 492 LINE",
"1240 492 LINE",
"1240 -431 LINE",
"1596 -431 LINE",
"1596 492 LINE",
"1916 492 LINE",
"1974 846 LINE",
"1596 846 LINE",
"1596 1130.29 LINE SMOOTH",
"1596 1219.75 OFFCURVE",
"1668.71 1273.65 OFFCURVE",
"1765.67 1273.65 CURVE SMOOTH",
"1854.46 1273.65 OFFCURVE",
"1935.35 1269.13 OFFCURVE",
"1973.54 1267 CURVE",
"1973.54 1582 LINE",
"1924.05 1589.32 OFFCURVE",
"1822.04 1601 OFFCURVE",
"1705.94 1601 CURVE SMOOTH"
);
}
);
width = 2400;
}
);
unicode = E026;
},
{
glyphname = uniE028;
lastChange = "2013-12-04 00:46:03 +1000";
layers = (
{
layerId = "06D35582-4FA2-40C1-8C5B-DEFCD1A2473F";
name = Regular;
paths = (
{
closed = 1;
nodes = (
"1508.97 1605.6 OFFCURVE",
"1374.36 1558.45 OFFCURVE",
"1291 1478.6 CURVE SMOOTH",
"1227.02 1417.31 OFFCURVE",
"1176 1296.6 OFFCURVE",
"1176 1139.6 CURVE SMOOTH",
"1176 850.598 LINE",
"864 850.598 LINE",
"864 496.598 LINE",
"1176 496.598 LINE",
"1176 -431 LINE",
"1200 -431 LINE SMOOTH",
"1315.18 -431 OFFCURVE",
"1426.56 -415 OFFCURVE",
"1532 -384 CURVE",
"1532 496.598 LINE",
"1852 496.598 LINE",
"1910 850.598 LINE",
"1532 850.598 LINE",
"1532 1134.89 LINE SMOOTH",
"1532 1224.35 OFFCURVE",
"1604.71 1278.25 OFFCURVE",
"1701.67 1278.25 CURVE SMOOTH",
"1790.46 1278.25 OFFCURVE",
"1871.35 1273.73 OFFCURVE",
"1909.54 1271.6 CURVE",
"1909.54 1586.6 LINE",
"1860.05 1593.92 OFFCURVE",
"1758.04 1605.6 OFFCURVE",
"1641.94 1605.6 CURVE SMOOTH"
);
}
);
width = 2400;
}
);
unicode = E028;
},
{
glyphname = uniE02F;
lastChange = "2014-01-12 16:45:08 +1000";
layers = (
{
layerId = "06D35582-4FA2-40C1-8C5B-DEFCD1A2473F";
name = Regular;
paths = (
{
closed = 1;
nodes = (
"1324.73 1626.12 OFFCURVE",
"1211.23 1586.24 OFFCURVE",
"1140.72 1518.71 CURVE SMOOTH",
"1086.61 1466.87 OFFCURVE",
"1043.46 1364.78 OFFCURVE",
"1043.46 1231.99 CURVE SMOOTH",
"1043.46 986.523 LINE",
"779.805 986.523 LINE",
"779.805 687.718 LINE",
"1043.46 687.718 LINE",
"1043.46 -92 LINE",
"1344.21 -92 LINE",
"1344.21 687.718 LINE",
"1614.7 687.718 LINE",
"1664.5 986.523 LINE",
"1344.21 986.523 LINE",
"1344.21 1228.01 LINE SMOOTH",
"1344.21 1303.67 OFFCURVE",
"1405.7 1349.26 OFFCURVE",
"1487.72 1349.26 CURVE SMOOTH",
"1562.81 1349.26 OFFCURVE",
"1631.22 1345.71 OFFCURVE",
"1663.53 1343.92 CURVE",
"1663.53 1610.5 LINE",
"1621.66 1616.69 OFFCURVE",
"1535.39 1626.12 OFFCURVE",
"1437.19 1626.12 CURVE SMOOTH"
);
}
);
width = 2400;
}
);
unicode = E02F;
},
{
glyphname = uniE036;
lastChange = "2013-10-29 20:22:44 +1000";
layers = (
{
layerId = "06D35582-4FA2-40C1-8C5B-DEFCD1A2473F";
name = Regular;
paths = (
{
closed = 1;
nodes = (
"1648.82 1392.4 OFFCURVE",
"1731.4 1353.83 OFFCURVE",
"1789.36 1292.06 CURVE",
"1861.76 1306.31 OFFCURVE",
"1929.77 1332.76 OFFCURVE",
"1991.17 1369.18 CURVE",
"1967.44 1294.96 OFFCURVE",
"1917.05 1232.69 OFFCURVE",
"1851.45 1193.36 CURVE",
"1915.72 1201.04 OFFCURVE",
"1976.96 1218.11 OFFCURVE",
"2033.97 1243.39 CURVE",
"1991.36 1179.67 OFFCURVE",
"1937.48 1123.69 OFFCURVE",
"1875.4 1078.89 CURVE",
"1875.4 1037.77 LINE SMOOTH",
"1876.32 617.83 OFFCURVE",
"1556.67 133.592 OFFCURVE",
"972.14 133.592 CURVE SMOOTH",
"792.676 133.592 OFFCURVE",
"625.634 186.211 OFFCURVE",
"485 276.379 CURVE",
"509.863 273.433 OFFCURVE",
"535.166 271.927 OFFCURVE",
"560.811 271.927 CURVE SMOOTH",
"709.699 271.927 OFFCURVE",
"846.721 322.732 OFFCURVE",
"955.48 407.964 CURVE",
"816.424 410.533 OFFCURVE",
"699.059 502.417 OFFCURVE",
"658.623 628.662 CURVE",
"678.039 624.954 OFFCURVE",
"697.941 622.955 OFFCURVE",
"718.415 622.955 CURVE SMOOTH",
"747.398 622.955 OFFCURVE",
"775.471 626.845 OFFCURVE",
"802.132 634.108 CURVE",
"656.768 663.308 OFFCURVE",
"547.22 791.751 OFFCURVE",
"547.22 945.716 CURVE SMOOTH",
"547.251 949.715 LINE",
"590.091 925.917 OFFCURVE",
"639.101 911.622 OFFCURVE",
"691.187 909.971 CURVE",
"605.911 966.961 OFFCURVE",
"549.815 1064.22 OFFCURVE",
"549.815 1174.48 CURVE SMOOTH",
"549.815 1232.72 OFFCURVE",
"565.48 1287.31 OFFCURVE",
"592.844 1334.25 CURVE",
"749.578 1141.98 OFFCURVE",
"983.748 1015.46 OFFCURVE",
"1247.86 1002.2 CURVE",
"1242.43 1025.48 OFFCURVE",
"1239.62 1049.72 OFFCURVE",
"1239.62 1074.63 CURVE SMOOTH",
"1239.62 1250.13 OFFCURVE",
"1381.92 1392.4 OFFCURVE",
"1557.41 1392.4 CURVE SMOOTH"
);
}
);
width = 2400;
}
);
unicode = E036;
},
{
glyphname = uniE03F;
lastChange = "2013-12-03 05:51:15 +1000";
layers = (
{
layerId = "06D35582-4FA2-40C1-8C5B-DEFCD1A2473F";
name = Regular;
paths = (
{
closed = 1;
nodes = (
"1070 1562 LINE SMOOTH",
"992.794 1562 OFFCURVE",
"912.671 1557.94 OFFCURVE",
"838.786 1536.69 CURVE SMOOTH",
"757.827 1513.41 OFFCURVE",
"696.008 1477.35 OFFCURVE",
"640.258 1419.57 CURVE SMOOTH",
"536.452 1312.71 OFFCURVE",
"510.714 1135.64 OFFCURVE",
"578.905 1001.29 CURVE SMOOTH",
"614.509 933.137 OFFCURVE",
"669.47 880.25 OFFCURVE",
"738.663 849.725 CURVE SMOOTH",
"807.665 818.099 OFFCURVE",
"885.418 811.676 OFFCURVE",
"959.952 819.429 CURVE",
"944.586 782.772 OFFCURVE",
"937.893 745.158 OFFCURVE",
"947.202 704.198 CURVE SMOOTH",
"955.392 668.707 OFFCURVE",
"977.817 637.213 OFFCURVE",
"1000.02 609.81 CURVE",
"990.485 608.981 LINE SMOOTH",
"834.171 598.961 OFFCURVE",
"657.525 573.581 OFFCURVE",
"532.753 465.039 CURVE SMOOTH",
"478.61 418.047 OFFCURVE",
"443.276 350.496 OFFCURVE",
"433.087 280.19 CURVE SMOOTH",
"421.786 205.191 OFFCURVE",
"450.049 126.682 OFFCURVE",
"502.211 72.475 CURVE SMOOTH",
"609.109 -40 OFFCURVE",
"781.52 -65 OFFCURVE",
"927.212 -61 CURVE SMOOTH",
"1078.1 -57 OFFCURVE",
"1239.9 -16 OFFCURVE",
"1354.37 88.065 CURVE SMOOTH",
"1471.11 193.646 OFFCURVE",
"1519.66 374.422 OFFCURVE",
"1427.72 512.345 CURVE SMOOTH",
"1405.22 547.116 OFFCURVE",
"1375.41 575.897 OFFCURVE",
"1344.18 603.095 CURVE SMOOTH",
"1324.35 619.952 OFFCURVE",
"1304.19 639.099 OFFCURVE",
"1282.9 655.325 CURVE SMOOTH",
"1251.72 679.463 OFFCURVE",
"1220.08 701.217 OFFCURVE",
"1192.43 727.878 CURVE SMOOTH",
"1179.77 739.563 OFFCURVE",
"1170.15 750.043 OFFCURVE",
"1164.67 765.313 CURVE",
"1161 780.254 OFFCURVE",
"1161.02 796.385 OFFCURVE",
"1163.89 811.686 CURVE SMOOTH",
"1166.62 828.061 OFFCURVE",
"1174.43 840.213 OFFCURVE",
"1186.05 853.762 CURVE SMOOTH",
"1199.05 868.762 OFFCURVE",
"1211.48 883.115 OFFCURVE",
"1226.85 894.638 CURVE SMOOTH",
"1290.08 942.816 OFFCURVE",
"1352.77 998.31 OFFCURVE",
"1382.43 1076.03 CURVE SMOOTH",
"1411 1147.46 OFFCURVE",
"1411 1236.47 OFFCURVE",
"1383.48 1308.84 CURVE SMOOTH",
"1358.76 1373.83 OFFCURVE",
"1317.08 1428.72 OFFCURVE",
"1264.69 1473 CURVE",
"1365 1473 LINE SMOOTH",
"1369.01 1473 OFFCURVE",
"1374.93 1471.52 OFFCURVE",
"1381.76 1474.94 CURVE SMOOTH",
"1436.2 1503.98 OFFCURVE",
"1490.6 1532.98 OFFCURVE",
"1546.77 1562 CURVE"
);
},
{
closed = 1;
nodes = (
"976.732 1479 OFFCURVE",
"1014.17 1466.83 OFFCURVE",
"1046.14 1441.64 CURVE SMOOTH",
"1079.46 1416.16 OFFCURVE",
"1106.43 1384.38 OFFCURVE",
"1129.11 1344.93 CURVE SMOOTH",
"1151.83 1306.4 OFFCURVE",
"1169.38 1264.49 OFFCURVE",
"1180.27 1219.93 CURVE SMOOTH",
"1192.12 1175.48 OFFCURVE",
"1197 1134.52 OFFCURVE",
"1197 1097 CURVE SMOOTH",
"1197 1078.32 OFFCURVE",
"1195.06 1054.1 OFFCURVE",
"1189.16 1024.62 CURVE SMOOTH",
"1183.41 996.81 OFFCURVE",
"1169.55 971.86 OFFCURVE",
"1146.51 948.813 CURVE SMOOTH",
"1129.06 932.337 OFFCURVE",
"1108.16 919.035 OFFCURVE",
"1082.98 907.406 CURVE",
"1056.74 896.715 OFFCURVE",
"1031.26 891.998 OFFCURVE",
"1005 891.998 CURVE SMOOTH",
"960.263 891.998 OFFCURVE",
"922.769 904.184 OFFCURVE",
"889.947 929.282 CURVE SMOOTH",
"857.529 954.824 OFFCURVE",
"830.478 985.74 OFFCURVE",
"807.92 1023.01 CURVE SMOOTH",
"786.227 1060.48 OFFCURVE",
"770.635 1100.43 OFFCURVE",
"759.758 1143.94 CURVE SMOOTH",
"748.872 1187.48 OFFCURVE",
"743.997 1225.51 OFFCURVE",
"743.997 1260 CURVE SMOOTH",
"743.997 1288.56 OFFCURVE",
"746.9 1314.69 OFFCURVE",
"752.741 1340.99 CURVE",
"759.529 1367.18 OFFCURVE",
"770.745 1389.61 OFFCURVE",
"789.215 1411.97 CURVE SMOOTH",
"805.627 1432.24 OFFCURVE",
"826.179 1448.12 OFFCURVE",
"853.467 1460.79 CURVE SMOOTH",
"879.607 1473.38 OFFCURVE",
"905.844 1479 OFFCURVE",
"933.996 1479 CURVE SMOOTH"
);
},
{
closed = 1;
nodes = (
"1842 1062 LINE",
"1710 1062 LINE",
"1710 854.997 LINE",
"1504 854.997 LINE",
"1504 723.997 LINE",
"1710 723.997 LINE",
"1710 517.997 LINE",
"1842 517.997 LINE",
"1842 723.997 LINE",
"2048 723.997 LINE",
"2048 854.997 LINE",
"1842 854.997 LINE"
);
},
{
closed = 1;
nodes = (
"1066 535.997 LINE SMOOTH",
"1071.94 536 OFFCURVE",
"1077.99 535.201 OFFCURVE",
"1086.08 534.28 CURVE",
"1125.3 506.788 OFFCURVE",
"1159.73 481.22 OFFCURVE",
"1190.13 459.652 CURVE",
"1219.85 436.866 OFFCURVE",
"1243.32 415.356 OFFCURVE",
"1262.07 394.633 CURVE SMOOTH",
"1280.67 374.071 OFFCURVE",
"1293.9 354.229 OFFCURVE",
"1302.6 332.971 CURVE SMOOTH",
"1311.32 311.65 OFFCURVE",
"1316 289.175 OFFCURVE",
"1316 262.999 CURVE SMOOTH",
"1316 198.888 OFFCURVE",
"1290.64 148.157 OFFCURVE",
"1238.02 106.257 CURVE SMOOTH",
"1185.28 64.261 OFFCURVE",
"1109.89 42.999 OFFCURVE",
"1007 42.999 CURVE SMOOTH",
"892.017 42.999 OFFCURVE",
"801.418 66.379 OFFCURVE",
"734.614 113.534 CURVE SMOOTH",
"668.125 160.467 OFFCURVE",
"635.999 219.048 OFFCURVE",
"635.999 292.998 CURVE SMOOTH",
"635.999 330.106 OFFCURVE",
"642.536 359.052 OFFCURVE",
"656.738 383.686 CURVE",
"672.498 408.311 OFFCURVE",
"688.749 428.386 OFFCURVE",
"708.181 444.903 CURVE SMOOTH",
"727.722 461.513 OFFCURVE",
"747.701 473.881 OFFCURVE",
"768.282 482.703 CURVE SMOOTH",
"788.164 491.65 OFFCURVE",
"804.89 498.537 OFFCURVE",
"815.328 502.345 CURVE",
"838.135 509.286 OFFCURVE",
"861.786 515.199 OFFCURVE",
"885.568 520.154 CURVE SMOOTH",
"910.302 525.101 OFFCURVE",
"933.082 528.072 OFFCURVE",
"953.723 531.031 CURVE",
"975.583 533.018 OFFCURVE",
"993.498 534.013 OFFCURVE",
"1009 534.997 CURVE",
"1025.4 534.997 OFFCURVE",
"1035.4 535.997 OFFCURVE",
"1039 535.997 CURVE SMOOTH"
);
}
);
width = 2400;
}
);
unicode = E03F;
},
{
glyphname = uniE046;
lastChange = "2013-10-29 20:27:43 +1000";
layers = (
{
layerId = "06D35582-4FA2-40C1-8C5B-DEFCD1A2473F";
name = Regular;
paths = (
{
closed = 1;
nodes = (
"435.233 1257.21 LINE",
"1129.48 1257.21 OFFCURVE",
"1692.28 694.293 OFFCURVE",
"1692.28 0 CURVE",
"1990 0 LINE",
"1990 858.756 OFFCURVE",
"1293.91 1555 OFFCURVE",
"435.233 1555 CURVE"
);
},
{
closed = 1;
nodes = (
"435.233 727.818 LINE",
"837.167 727.818 OFFCURVE",
"1163 401.916 OFFCURVE",
"1163 0 CURVE",
"1460.72 0 LINE",
"1460.72 566.381 OFFCURVE",
"1001.59 1025.61 OFFCURVE",
"435.233 1025.61 CURVE"
);
},
{
closed = 1;
nodes = (
"516.828 410.182 OFFCURVE",
"422 315.395 OFFCURVE",
"422 198.418 CURVE SMOOTH",
"422 81.455 OFFCURVE",
"516.828 -13 OFFCURVE",
"633.702 -13 CURVE SMOOTH",
"750.668 -13 OFFCURVE",
"845.427 81.455 OFFCURVE",
"845.427 198.418 CURVE SMOOTH",
"845.427 315.395 OFFCURVE",
"750.668 410.182 OFFCURVE",
"633.702 410.182 CURVE SMOOTH"
);
}
);
width = 2400;
}
);
unicode = E046;
},
{
glyphname = uniE04F;
lastChange = "2014-01-08 19:14:38 +1000";
layers = (
{
layerId = "06D35582-4FA2-40C1-8C5B-DEFCD1A2473F";
name = Regular;
paths = (
{
closed = 1;
nodes = (
"2100 1303 LINE",
"300 1303 LINE",
"1200 653 LINE"
);
},
{
closed = 1;
nodes = (
"2076 1142 LINE",
"1200 509 LINE",
"324 1142 LINE",
"324 235 LINE",
"2076 235 LINE"
);
}
);
width = 2400;
}
);
unicode = E04F;
},
{
glyphname = uniE050;
lastChange = "2013-12-02 20:51:01 +1000";
layers = (
{
layerId = "06D35582-4FA2-40C1-8C5B-DEFCD1A2473F";
name = Regular;
paths = (
{
closed = 1;
nodes = (
"214 128 LINE",
"2186 128 LINE",
"2186 1410 LINE",
"214 1410 LINE"
);
},
{
closed = 1;
nodes = (
"324 235 LINE",
"324 1142 LINE",
"1200 509 LINE",
"2076 1142 LINE",
"2076 235 LINE"
);
},
{
closed = 1;
nodes = (
"300 1303 LINE",
"2100 1303 LINE",
"1200 653 LINE"
);
}
);
width = 2400;
}
);
unicode = E050;
},
{
glyphname = uniE066;
lastChange = "2013-12-16 06:46:30 +1000";
layers = (
{
layerId = "06D35582-4FA2-40C1-8C5B-DEFCD1A2473F";
name = Regular;
paths = (
{
closed = 1;
nodes = (
"694.538 1561 OFFCURVE",
"408 1274.46 OFFCURVE",
"408 921 CURVE SMOOTH",
"408 567.538 OFFCURVE",
"694.538 281 OFFCURVE",
"1048 281 CURVE SMOOTH",
"1183.75 281 OFFCURVE",
"1309.62 323.269 OFFCURVE",
"1413.19 395.357 CURVE",
"1793.55 14.995 LINE SMOOTH",
"1837.29 -29 OFFCURVE",
"1908.2 -29 OFFCURVE",
"1951.94 14.995 CURVE SMOOTH",
"1995.68 58.734 OFFCURVE",
"1995.68 129.647 OFFCURVE",
"1951.94 173.387 CURVE SMOOTH",
"1571.94 553.387 LINE",
"1645.06 657.411 OFFCURVE",
"1688 784.188 OFFCURVE",
"1688 920.999 CURVE SMOOTH",
"1688 1274.46 OFFCURVE",
"1401.46 1561 OFFCURVE",
"1048 1561 CURVE SMOOTH"
);
},
{
closed = 1;
nodes = (
"1295.42 1369 OFFCURVE",
"1496 1168.42 OFFCURVE",
"1496 921 CURVE SMOOTH",
"1496 673.576 OFFCURVE",
"1295.42 473 OFFCURVE",
"1048 473 CURVE SMOOTH",
"800.576 473 OFFCURVE",
"600 673.576 OFFCURVE",
"600 921 CURVE SMOOTH",
"600 1168.42 OFFCURVE",
"800.576 1369 OFFCURVE",
"1048 1369 CURVE SMOOTH"
);
}
);
width = 2400;
}
);
unicode = E066;
},
{
glyphname = uniE07F;
lastChange = "2014-01-17 19:01:11 +1000";
layers = (
{
layerId = "06D35582-4FA2-40C1-8C5B-DEFCD1A2473F";
name = Regular;
paths = (
{
closed = 1;
nodes = (
"1283.22 1349.12 OFFCURVE",
"1231.03 1366.03 OFFCURVE",
"1185.15 1366.03 CURVE SMOOTH",
"1100.06 1366.03 OFFCURVE",
"1024.32 1322.48 OFFCURVE",
"1005.79 1232.24 CURVE SMOOTH",
"1001.91 1212.14 OFFCURVE",
"987.263 1192.27 OFFCURVE",
"967.017 1191.24 CURVE",
"750.771 1214.65 LINE",
"732.487 1218.77 OFFCURVE",
"712.165 1233.39 OFFCURVE",
"717.447 1261.24 CURVE SMOOTH",
"767.135 1523.21 OFFCURVE",
"1004.07 1602.33 OFFCURVE",
"1216.43 1602.33 CURVE SMOOTH",
"1325 1602.33 OFFCURVE",
"1466.93 1573.45 OFFCURVE",
"1552.54 1491.41 CURVE SMOOTH",
"1661.06 1390.13 OFFCURVE",
"1650.64 1255.06 OFFCURVE",
"1650.64 1107.92 CURVE SMOOTH",
"1650.64 760.854 LINE SMOOTH",
"1650.64 656.406 OFFCURVE",
"1694.08 610.619 OFFCURVE",
"1734.83 554.381 CURVE SMOOTH",
"1749.08 534.064 OFFCURVE",
"1752.32 509.994 OFFCURVE",
"1734.14 495.146 CURVE SMOOTH",
"1688.53 456.995 OFFCURVE",
"1607.54 386.783 OFFCURVE",
"1563.01 347.182 CURVE SMOOTH",
"1547.73 334.44 OFFCURVE",
"1526.4 333.562 OFFCURVE",
"1509.79 342.496 CURVE",
"1435.62 403.998 OFFCURVE",
"1422.36 432.416 OFFCURVE",
"1381.86 490.979 CURVE",
"1259.33 366.393 OFFCURVE",
"1172.62 329 OFFCURVE",
"1013.97 329 CURVE SMOOTH",
"826.113 329 OFFCURVE",
"679.999 444.782 OFFCURVE",
"679.999 676.276 CURVE SMOOTH",
"679.999 857.137 OFFCURVE",
"778.073 980.127 OFFCURVE",
"917.967 1040.41 CURVE SMOOTH",
"1039.01 1093.49 OFFCURVE",
"1208.12 1103.13 OFFCURVE",
"1337.48 1117.63 CURVE",
"1337.48 1146.56 LINE SMOOTH",
"1337.48 1199.63 OFFCURVE",
"1341.7 1262.27 OFFCURVE",
"1310.4 1308.13 CURVE SMOOTH"
);
},
{
closed = 1;
nodes = (
"1337.48 939.128 LINE",
"1176.13 939.128 OFFCURVE",
"1005.6 904.654 OFFCURVE",
"1005.6 714.896 CURVE SMOOTH",
"1005.6 618.424 OFFCURVE",
"1055.73 553.281 OFFCURVE",
"1141.28 553.281 CURVE SMOOTH",
"1203.9 553.281 OFFCURVE",
"1260.32 591.876 OFFCURVE",
"1295.75 654.566 CURVE SMOOTH",
"1339.6 731.776 OFFCURVE",
"1337.48 804.056 OFFCURVE",
"1337.48 890.915 CURVE SMOOTH"
);
},
{
closed = 1;
nodes = (
"1888.41 9.104 OFFCURVE",
"1874.05 16.377 OFFCURVE",
"1880.75 34.394 CURVE SMOOTH",
"1902.84 93.981 OFFCURVE",
"1952.29 227.376 OFFCURVE",
"1928.86 259.755 CURVE SMOOTH",
"1905.44 292.127 OFFCURVE",
"1774.16 275.097 OFFCURVE",
"1715.17 267.459 CURVE SMOOTH",
"1697.28 265.15 OFFCURVE",
"1694.52 282.016 OFFCURVE",
"1710.62 294.229 CURVE SMOOTH",
"1815.38 373.685 OFFCURVE",
"1986.99 350.746 OFFCURVE",
"2006.94 324.138 CURVE SMOOTH",
"2027.03 297.299 OFFCURVE",
"2001.66 111.442 OFFCURVE",
"1903.51 22.738 CURVE SMOOTH"
);
},
{
closed = 1;
nodes = (
"1666 -2 OFFCURVE",
"1413.06 -84 OFFCURVE",
"1195.24 -84 CURVE SMOOTH",
"889.976 -84 OFFCURVE",
"615.087 53.652 OFFCURVE",
"407.053 288.737 CURVE SMOOTH",
"390.72 307.211 OFFCURVE",
"405.295 332.418 OFFCURVE",
"424.924 318.121 CURVE SMOOTH",
"637.507 163.307 OFFCURVE",
"938.784 62.701 OFFCURVE",
"1213.58 62.701 CURVE SMOOTH",
"1390.67 62.701 OFFCURVE",
"1635.8 115.101 OFFCURVE",
"1815.12 210.29 CURVE SMOOTH",
"1844.62 225.941 OFFCURVE",
"1869.35 185.967 OFFCURVE",
"1840.48 159.28 CURVE SMOOTH"
);
}
);
width = 2400;
}
);
unicode = E07F;
},
{
glyphname = uniE086;
lastChange = "2014-02-02 01:27:58 +1000";
layers = (
{
layerId = "06D35582-4FA2-40C1-8C5B-DEFCD1A2473F";
name = Regular;
paths = (
{
closed = 1;
nodes = (
"1512.1 1699.05 OFFCURVE",
"1494.78 1694.08 OFFCURVE",
"1487.16 1680.33 CURVE SMOOTH",
"1406.28 1534.42 LINE",
"1342.17 1560.59 OFFCURVE",
"1272.02 1575 OFFCURVE",
"1200 1575 CURVE SMOOTH",
"1127.66 1575 OFFCURVE",
"1057.63 1560.45 OFFCURVE",
"993.926 1534.06 CURVE",
"912.844 1680.33 LINE SMOOTH",
"905.227 1694.08 OFFCURVE",
"887.902 1699.05 OFFCURVE",
"874.157 1691.43 CURVE SMOOTH",
"860.403 1683.81 OFFCURVE",
"855.441 1666.48 OFFCURVE",
"863.062 1652.74 CURVE SMOOTH",
"942.497 1509.43 LINE",
"797.345 1430.01 OFFCURVE",
"696 1285.25 OFFCURVE",
"696 1113 CURVE",
"1710 1114 LINE",
"1710 1286.74 OFFCURVE",
"1605.48 1430.85 OFFCURVE",
"1457.89 1510.12 CURVE",
"1536.94 1652.74 LINE SMOOTH",
"1544.56 1666.48 OFFCURVE",
"1539.6 1683.81 OFFCURVE",
"1525.84 1691.43 CURVE SMOOTH"
);
},
{
closed = 1;
nodes = (
"1015.14 1398 OFFCURVE",
"1042 1371.14 OFFCURVE",
"1042 1338 CURVE SMOOTH",
"1042 1304.86 OFFCURVE",
"1015.14 1278 OFFCURVE",
"982 1278 CURVE SMOOTH",
"948.865 1278 OFFCURVE",
"922 1304.86 OFFCURVE",
"922 1338 CURVE SMOOTH",
"922 1371.14 OFFCURVE",
"948.865 1398 OFFCURVE",
"982 1398 CURVE SMOOTH"
);
},
{
closed = 1;
nodes = (
"1451.14 1398 OFFCURVE",
"1478 1371.14 OFFCURVE",
"1478 1338 CURVE SMOOTH",
"1478 1304.86 OFFCURVE",
"1451.14 1278 OFFCURVE",
"1418 1278 CURVE SMOOTH",
"1384.86 1278 OFFCURVE",
"1358 1304.86 OFFCURVE",
"1358 1338 CURVE SMOOTH",
"1358 1371.14 OFFCURVE",
"1384.86 1398 OFFCURVE",
"1418 1398 CURVE SMOOTH"
);
},
{
closed = 1;
nodes = (
"478.696 1081 OFFCURVE",
"429 1031.3 OFFCURVE",
"429 970 CURVE SMOOTH",
"429 496 LINE SMOOTH",
"429 434.696 OFFCURVE",
"478.696 385 OFFCURVE",
"540 385 CURVE SMOOTH",
"601.304 385 OFFCURVE",
"651 434.696 OFFCURVE",
"651 496 CURVE SMOOTH",
"651 970 LINE SMOOTH",
"651 1031.3 OFFCURVE",
"601.304 1081 OFFCURVE",
"540 1081 CURVE SMOOTH"
);
},
{
closed = 1;
nodes = (
"1804.7 1081 OFFCURVE",
"1755 1031.3 OFFCURVE",
"1755 970 CURVE SMOOTH",
"1755 496 LINE SMOOTH",
"1755 434.696 OFFCURVE",
"1804.7 385 OFFCURVE",
"1866 385 CURVE SMOOTH",
"1927.3 385 OFFCURVE",
"1977 434.696 OFFCURVE",
"1977 496 CURVE SMOOTH",
"1977 970 LINE SMOOTH",
"1977 1031.3 OFFCURVE",
"1927.3 1081 OFFCURVE",
"1866 1081 CURVE SMOOTH"
);
},
{
closed = 1;
nodes = (
"1707 1057 LINE",
"699 1057 LINE",
"699.002 337 LINE SMOOTH",
"699.002 260.093 OFFCURVE",
"754.104 205 OFFCURVE",
"831.002 205 CURVE SMOOTH",
"900 205 LINE",
"900 -44 LINE SMOOTH",
"900 -105 OFFCURVE",
"949.696 -155 OFFCURVE",
"1011 -155 CURVE SMOOTH",
"1072.3 -155 OFFCURVE",
"1122 -105 OFFCURVE",
"1122 -44 CURVE SMOOTH",
"1122 205 LINE",
"1278 205 LINE",
"1278 -44 LINE SMOOTH",
"1278 -105 OFFCURVE",
"1327.7 -155 OFFCURVE",
"1389 -155 CURVE SMOOTH",
"1450.3 -155 OFFCURVE",
"1500 -105 OFFCURVE",
"1500 -44 CURVE SMOOTH",
"1500 205 LINE",
"1575 205 LINE SMOOTH",
"1651.91 205 OFFCURVE",
"1707 260.093 OFFCURVE",
"1707 337 CURVE"
);
}
);
width = 2400;
}
);
unicode = E086;
},
{
glyphname = uniE08F;
lastChange = "2014-02-02 01:28:05 +1000";
layers = (
{
layerId = "06D35582-4FA2-40C1-8C5B-DEFCD1A2473F";
name = Regular;
paths = (
{
closed = 1;
nodes = (
"1379.68 1694.86 OFFCURVE",
"1298.7 1646.88 OFFCURVE",
"1249.77 1576.8 CURVE SMOOTH",
"1200.83 1506.7 OFFCURVE",
"1175.74 1423.67 OFFCURVE",
"1174.48 1327.69 CURVE",
"1219.3 1331.48 OFFCURVE",
"1252.76 1336.84 OFFCURVE",
"1274.88 1343.79 CURVE SMOOTH",
"1309.59 1355.79 OFFCURVE",
"1344.64 1379.15 OFFCURVE",
"1380.01 1413.88 CURVE SMOOTH",
"1421.04 1454.93 OFFCURVE",
"1451.04 1499.44 OFFCURVE",
"1469.98 1547.43 CURVE SMOOTH",
"1488.92 1595.4 OFFCURVE",
"1498.39 1639.62 OFFCURVE",
"1498.39 1680.04 CURVE SMOOTH",
"1498.39 1686.34 OFFCURVE",
"1498.07 1692.65 OFFCURVE",
"1497.46 1698.98 CURVE SMOOTH",
"1496.81 1705.29 OFFCURVE",
"1495.23 1712.55 OFFCURVE",
"1492.72 1720.76 CURVE"
);
},
{
closed = 1;
nodes = (
"1461.45 1355.15 OFFCURVE",
"1405.58 1344.11 OFFCURVE",
"1341.18 1322.01 CURVE SMOOTH",
"1276.77 1299.9 OFFCURVE",
"1230.38 1288.86 OFFCURVE",
"1201.98 1288.86 CURVE SMOOTH",
"1179.92 1288.86 OFFCURVE",
"1135.72 1298.64 OFFCURVE",
"1069.44 1318.22 CURVE SMOOTH",
"1003.14 1337.79 OFFCURVE",
"946.659 1347.58 OFFCURVE",
"899.979 1347.58 CURVE SMOOTH",
"790.438 1347.58 OFFCURVE",
"699.721 1300.85 OFFCURVE",
"627.827 1207.4 CURVE SMOOTH",
"555.931 1113.95 OFFCURVE",
"520 993.025 OFFCURVE",
"520 844.652 CURVE SMOOTH",
"520 684.894 OFFCURVE",
"566.986 521.985 OFFCURVE",
"660.973 355.925 CURVE SMOOTH",
"754.95 187.956 OFFCURVE",
"850.803 104.293 OFFCURVE",
"948.54 104.293 CURVE SMOOTH",
"980.887 104.293 OFFCURVE",
"1023.06 115.241 OFFCURVE",
"1075.05 136.222 CURVE SMOOTH",
"1127.02 158.118 OFFCURVE",
"1172.84 169.065 OFFCURVE",
"1212.52 169.065 CURVE SMOOTH",
"1252.19 169.065 OFFCURVE",
"1300.93 159.03 OFFCURVE",
"1358.69 138.048 CURVE SMOOTH",
"1416.47 117.064 OFFCURVE",
"1461.78 107.029 OFFCURVE",
"1494.62 107.029 CURVE SMOOTH",
"1577.33 107.029 OFFCURVE",
"1660.67 169.977 OFFCURVE",
"1744.65 297.205 CURVE SMOOTH",
"1800.21 381.808 OFFCURVE",
"1840 462.952 OFFCURVE",
"1864 540.618 CURVE",
"1806.54 557.664 OFFCURVE",
"1755.39 598.394 OFFCURVE",
"1710.56 662.8 CURVE SMOOTH",
"1665.72 727.206 OFFCURVE",
"1643.31 799.498 OFFCURVE",
"1643.31 879.695 CURVE SMOOTH",
"1643.31 952.934 OFFCURVE",
"1664.45 1019.86 OFFCURVE",
"1706.76 1080.48 CURVE SMOOTH",
"1730.14 1113.95 OFFCURVE",
"1767.06 1152.14 OFFCURVE",
"1817.59 1195.1 CURVE",
"1784.11 1236.13 OFFCURVE",
"1750.35 1268.64 OFFCURVE",
"1716.24 1292.65 CURVE SMOOTH",
"1655.62 1334.32 OFFCURVE",
"1586.49 1355.15 OFFCURVE",
"1508.83 1355.15 CURVE SMOOTH"
);
}
);
width = 2400;
}
);
unicode = E08F;
},
{
glyphname = uniE096;
lastChange = "2013-12-10 02:19:17 +1000";
layers = (
{
layerId = "06D35582-4FA2-40C1-8C5B-DEFCD1A2473F";
name = Regular;
paths = (
{
closed = 1;
nodes = (
"869.974 1280 LINE SMOOTH",
"920.769 1280 OFFCURVE",
"967.084 1275.53 OFFCURVE",
"1008.92 1266.56 CURVE SMOOTH",
"1050.75 1257.6 OFFCURVE",
"1086.6 1242.89 OFFCURVE",
"1116.49 1222.49 CURVE SMOOTH",
"1146.36 1202.06 OFFCURVE",
"1169.52 1174.91 OFFCURVE",
"1185.95 1141.07 CURVE SMOOTH",
"1202.38 1107.19 OFFCURVE",
"1210.6 1065.36 OFFCURVE",
"1210.6 1015.57 CURVE SMOOTH",
"1210.6 961.788 OFFCURVE",
"1198.39 916.971 OFFCURVE",
"1174 881.114 CURVE SMOOTH",
"1149.58 845.258 OFFCURVE",
"1113.49 815.871 OFFCURVE",
"1065.69 792.971 CURVE",
"1131.42 774.039 OFFCURVE",
"1180.46 740.915 OFFCURVE",
"1212.84 693.622 CURVE SMOOTH",
"1245.2 646.304 OFFCURVE",
"1261.4 589.276 OFFCURVE",
"1261.4 522.562 CURVE SMOOTH",
"1261.4 468.779 OFFCURVE",
"1250.94 422.208 OFFCURVE",
"1230.02 382.875 CURVE SMOOTH",
"1209.1 343.519 OFFCURVE",
"1180.95 311.399 OFFCURVE",
"1145.61 286.515 CURVE SMOOTH",
"1110.25 261.607 OFFCURVE",
"1069.91 243.19 OFFCURVE",
"1024.6 231.237 CURVE SMOOTH",
"979.268 219.285 OFFCURVE",
"932.721 213.309 OFFCURVE",
"884.913 213.309 CURVE SMOOTH",
"368 213.309 LINE",
"368 1280 LINE"
);
},
{
closed = 1;
nodes = (
"1946 1239.5 LINE",
"1946 1127.5 LINE",
"1466 1127.5 LINE",
"1466 1239.5 LINE"
);
},
{
closed = 1;
nodes = (
"602.553 1097.74 LINE",
"602.553 848.247 LINE",
"840.095 848.247 LINE SMOOTH",
"881.925 848.247 OFFCURVE",
"916.287 858.192 OFFCURVE",
"943.179 878.128 CURVE SMOOTH",
"970.07 898.038 OFFCURVE",
"983.516 930.414 OFFCURVE",
"983.516 975.235 CURVE SMOOTH",
"983.516 1000.12 OFFCURVE",
"979.035 1020.54 OFFCURVE",
"970.07 1036.49 CURVE SMOOTH",
"961.105 1052.4 OFFCURVE",
"949.155 1064.87 OFFCURVE",
"934.215 1073.83 CURVE SMOOTH",
"919.277 1082.8 OFFCURVE",
"902.095 1089.01 OFFCURVE",
"882.674 1092.51 CURVE SMOOTH",
"863.251 1095.99 OFFCURVE",
"843.083 1097.74 OFFCURVE",
"822.167 1097.74 CURVE SMOOTH"
);
},
{
closed = 1;
nodes = (
"1782.78 1006.61 OFFCURVE",
"1840.04 993.909 OFFCURVE",
"1888.86 968.512 CURVE SMOOTH",
"1937.64 943.114 OFFCURVE",
"1977.75 908.986 OFFCURVE",
"2009.12 866.175 CURVE SMOOTH",
"2040.49 823.34 OFFCURVE",
"2063.14 774.529 OFFCURVE",
"2077.1 719.767 CURVE SMOOTH",
"2091.03 664.978 OFFCURVE",
"2096 607.718 OFFCURVE",
"2092.03 547.959 CURVE",
"1534.79 547.959 LINE",
"1537.77 479.236 OFFCURVE",
"1555.19 429.422 OFFCURVE",
"1587.07 398.563 CURVE SMOOTH",
"1618.94 367.679 OFFCURVE",
"1664.76 352.249 OFFCURVE",
"1724.52 352.249 CURVE SMOOTH",
"1767.33 352.249 OFFCURVE",
"1804.19 362.94 OFFCURVE",
"1835.07 384.37 CURVE SMOOTH",
"1865.93 405.774 OFFCURVE",
"1884.86 428.441 OFFCURVE",
"1891.84 452.346 CURVE",
"2078.59 452.346 LINE",
"2048.71 359.718 OFFCURVE",
"2002.89 293.47 OFFCURVE",
"1941.14 253.648 CURVE SMOOTH",
"1879.38 213.8 OFFCURVE",
"1804.68 193.887 OFFCURVE",
"1717.04 193.887 CURVE SMOOTH",
"1656.28 193.887 OFFCURVE",
"1601.5 203.6 OFFCURVE",
"1552.71 223.019 CURVE SMOOTH",
"1503.9 242.443 OFFCURVE",
"1462.56 270.081 OFFCURVE",
"1428.72 305.935 CURVE SMOOTH",
"1394.84 341.791 OFFCURVE",
"1368.69 384.602 OFFCURVE",
"1350.28 434.416 CURVE SMOOTH",
"1331.84 484.21 OFFCURVE",
"1322.64 538.996 OFFCURVE",
"1322.64 598.754 CURVE SMOOTH",
"1322.64 656.506 OFFCURVE",
"1332.1 710.289 OFFCURVE",
"1351.02 760.103 CURVE SMOOTH",
"1369.93 809.895 OFFCURVE",
"1396.82 852.962 OFFCURVE",
"1431.7 889.331 CURVE SMOOTH",
"1466.55 925.678 OFFCURVE",
"1508.13 954.319 OFFCURVE",
"1556.45 975.235 CURVE SMOOTH",
"1604.74 996.151 OFFCURVE",
"1658.27 1006.61 OFFCURVE",
"1717.04 1006.61 CURVE SMOOTH"
);
},
{
closed = 1;
nodes = (
"1677.2 846.754 OFFCURVE",
"1649.08 841.011 OFFCURVE",
"1626.66 829.573 CURVE SMOOTH",
"1604.25 818.111 OFFCURVE",
"1586.32 803.92 OFFCURVE",
"1572.88 786.996 CURVE SMOOTH",
"1559.44 770.047 OFFCURVE",
"1549.95 752.12 OFFCURVE",
"1544.49 733.21 CURVE SMOOTH",
"1539 714.28 OFFCURVE",
"1535.76 697.357 OFFCURVE",
"1534.79 682.416 CURVE",
"1879.9 682.416 LINE",
"1869.92 736.2 OFFCURVE",
"1852.25 777.026 OFFCURVE",
"1826.86 804.922 CURVE SMOOTH",
"1801.46 832.795 OFFCURVE",
"1762.85 846.754 OFFCURVE",
"1711.07 846.754 CURVE SMOOTH"
);
},
{
closed = 1;
nodes = (
"602.554 688.393 LINE",
"602.554 395.573 LINE",
"853.541 395.573 LINE SMOOTH",
"876.441 395.573 OFFCURVE",
"898.36 397.816 OFFCURVE",
"919.277 402.297 CURVE SMOOTH",
"940.192 406.779 OFFCURVE",
"958.61 414.248 OFFCURVE",
"974.553 424.707 CURVE SMOOTH",
"990.473 435.164 OFFCURVE",
"1003.17 449.356 OFFCURVE",
"1012.65 467.286 CURVE SMOOTH",
"1022.1 485.212 OFFCURVE",
"1026.84 508.112 OFFCURVE",
"1026.84 536.006 CURVE SMOOTH",
"1026.84 590.77 OFFCURVE",
"1011.39 629.871 OFFCURVE",
"980.528 653.285 CURVE SMOOTH",
"949.645 676.674 OFFCURVE",
"908.818 688.393 OFFCURVE",
"858.023 688.393 CURVE SMOOTH"
);
}
);
width = 2400;
}
);
unicode = E096;
},
{
glyphname = uniE09F;
lastChange = "2013-11-26 01:31:30 +1000";
layers = (
{
layerId = "06D35582-4FA2-40C1-8C5B-DEFCD1A2473F";
name = Regular;
paths = (
{
closed = 1;
nodes = (
"931.224 1502.33 LINE SMOOTH",
"677.782 1502.33 OFFCURVE",
"469.999 1302.33 OFFCURVE",
"469.999 1035.67 CURVE SMOOTH",
"469.999 509 LINE SMOOTH",
"469.999 244.834 OFFCURVE",
"672.447 33.4021 OFFCURVE",
"934.556 33.4021 CURVE SMOOTH",
"1470.81 33.4021 LINE SMOOTH",
"1731.95 33.4021 OFFCURVE",
"1940 244.834 OFFCURVE",
"1940 509 CURVE SMOOTH",
"1940 835.668 LINE SMOOTH",
"1940 910.884 OFFCURVE",
"1904.52 945.667 OFFCURVE",
"1835.75 945.667 CURVE SMOOTH",
"1761.28 945.667 LINE SMOOTH",
"1713.9 945.667 OFFCURVE",
"1670 979 OFFCURVE",
"1670 1035.67 CURVE SMOOTH",
"1670 1302.33 OFFCURVE",
"1459.17 1502.33 OFFCURVE",
"1208.15 1502.33 CURVE SMOOTH"
);
},
{
closed = 1;
nodes = (
"1200.67 1125.67 LINE SMOOTH",
"1241.2 1125.67 OFFCURVE",
"1290 1089.01 OFFCURVE",
"1290 1035.67 CURVE SMOOTH",
"1290 982.394 OFFCURVE",
"1241.2 945.67 OFFCURVE",
"1200.67 945.67 CURVE SMOOTH",
"935.993 945.67 LINE SMOOTH",
"895.455 945.67 OFFCURVE",
"846.666 982.394 OFFCURVE",
"846.666 1035.67 CURVE SMOOTH",
"846.666 1089.01 OFFCURVE",
"895.455 1125.67 OFFCURVE",
"935.993 1125.67 CURVE SMOOTH"
);
},
{
closed = 1;
nodes = (
"1467.34 592.333 LINE SMOOTH",
"1507.87 592.333 OFFCURVE",
"1556.67 555.674 OFFCURVE",
"1556.67 502.333 CURVE SMOOTH",
"1556.67 449.06 OFFCURVE",
"1507.87 412.333 OFFCURVE",
"1467.34 412.333 CURVE SMOOTH",
"935.993 412.333 LINE SMOOTH",
"895.455 412.333 OFFCURVE",
"846.666 449.06 OFFCURVE",
"846.666 502.333 CURVE SMOOTH",
"846.666 555.674 OFFCURVE",
"895.455 592.333 OFFCURVE",
"935.993 592.333 CURVE SMOOTH"
);
}
);
width = 2400;
}
);
unicode = E09F;
},
{
glyphname = uniE106;
lastChange = "2013-11-26 01:32:21 +1000";
layers = (
{
layerId = "06D35582-4FA2-40C1-8C5B-DEFCD1A2473F";
name = Regular;
paths = (
{
closed = 1;
nodes = (
"1235.38 1500.25 LINE SMOOTH",
"1213.95 1514.54 OFFCURVE",
"1186.06 1514.54 OFFCURVE",
"1164.63 1500.25 CURVE SMOOTH",
"486.424 1048.11 LINE",
"482.497 1045.14 LINE",
"478.883 1042.1 LINE",
"476.326 1039.6 LINE",
"473.146 1036.16 LINE",
"470.967 1033.4 LINE",
"468.287 1029.53 LINE",
"466.456 1026.56 LINE",
"464.29 1022.35 LINE",
"462.867 1019.23 LINE",
"461.227 1014.58 LINE",
"460.233 1011.5 LINE",
"459.115 1006.15 LINE",
"458.611 1003.38 LINE",
"458.026 995.063 LINE",
"458.026 542.919 LINE",
"458.611 534.565 LINE",
"459.115 531.835 LINE",
"460.233 526.484 LINE",
"461.227 523.402 LINE",
"462.867 518.711 LINE",
"464.29 515.634 LINE",
"466.456 511.379 LINE",
"468.287 508.45 LINE",
"470.967 504.586 LINE",
"473.146 501.817 LINE",
"476.326 498.383 LINE",
"478.883 495.883 LINE",
"482.497 492.84 LINE",
"486.424 489.873 LINE",
"1164.63 37.7281 LINE SMOOTH",
"1175.35 30.5841 OFFCURVE",
"1187.69 26.9971 OFFCURVE",
"1200 26.9971 CURVE SMOOTH",
"1212.35 26.9971 OFFCURVE",
"1224.67 30.5841 OFFCURVE",
"1235.38 37.7281 CURVE SMOOTH",
"1913.57 489.873 LINE",
"1914.64 490.656 LINE",
"1917.52 492.84 LINE",
"1921.15 495.883 LINE",
"1923.68 498.383 LINE",
"1926.85 501.817 LINE",
"1929.05 504.586 LINE",
"1931.74 508.45 LINE",
"1933.56 511.379 LINE",
"1935.72 515.634 LINE",
"1937.15 518.711 LINE",
"1938.78 523.402 LINE",
"1939.78 526.484 LINE",
"1940.89 531.835 LINE",
"1941.4 534.565 LINE",
"1941.97 542.919 LINE",
"1941.97 995.063 LINE",
"1941.4 1003.38 LINE",
"1940.89 1006.15 LINE",
"1939.78 1011.5 LINE",
"1938.78 1014.58 LINE",
"1937.15 1019.23 LINE",
"1935.72 1022.35 LINE",
"1933.56 1026.56 LINE",
"1931.74 1029.53 LINE",
"1929.05 1033.4 LINE",
"1926.85 1036.16 LINE",
"1923.68 1039.6 LINE",
"1921.15 1042.1 LINE",
"1917.52 1045.14 LINE",
"1914.64 1047.33 LINE",
"1913.57 1048.11 LINE"
);
},
{
closed = 1;
nodes = (
"1136.24 1328.04 LINE",
"1136.24 1030.62 LINE",
"859.796 845.686 LINE",
"636.617 994.985 LINE"
);
},
{
closed = 1;
nodes = (
"1263.77 1328.04 LINE",
"1763.4 994.985 LINE",
"1540.24 845.686 LINE",
"1263.77 1030.62 LINE"
);
},
{
closed = 1;
nodes = (
"1200 919.848 LINE",
"1425.54 768.994 LINE",
"1200 618.132 LINE",
"974.471 768.994 LINE"
);
},
{
closed = 1;
nodes = (
"585.56 875.705 LINE",
"745.106 768.988 LINE",
"585.56 662.278 LINE"
);
},
{
closed = 1;
nodes = (
"1814.45 875.702 LINE",
"1814.45 662.278 LINE",
"1654.93 768.994 LINE"
);
},
{
closed = 1;
nodes = (
"859.802 692.255 LINE",
"1136.24 507.364 LINE",
"1136.24 209.94 LINE",
"636.615 542.999 LINE"
);
},
{
closed = 1;
nodes = (
"1540.24 692.255 LINE",
"1763.4 542.999 LINE",
"1263.77 209.94 LINE",
"1263.77 507.364 LINE"
);
}
);
width = 2400;
}
);
unicode = E106;
},
{
glyphname = uniE10F;
lastChange = "2014-02-02 01:33:34 +1000";
layers = (
{
layerId = "06D35582-4FA2-40C1-8C5B-DEFCD1A2473F";
name = Regular;
paths = (
{
closed = 1;
nodes = (
"1960 1529 LINE",
"440 1529 LINE",
"440 9 LINE",
"1960 9 LINE"
);
},
{
closed = 1;
nodes = (
"560 769 LINE",
"560 1409 LINE",
"1200 1409 LINE",
"1200 769 LINE"
);
},
{
closed = 1;
nodes = (
"1200 129 LINE",
"1200 769 LINE",
"1840 769 LINE",
"1840 129 LINE"
);
}
);
width = 2400;
}
);
unicode = E10F;
},
{
glyphname = uniE116;
lastChange = "2014-01-15 09:41:37 +1000";
layers = (
{
layerId = "06D35582-4FA2-40C1-8C5B-DEFCD1A2473F";
name = Regular;
paths = (
{
closed = 1;
nodes = (
"486.471 1354.05 LINE",
"608.173 1097.74 LINE",
"-44 797.605 OFFCURVE",
"199.889 116.218 OFFCURVE",
"199.889 116.218 CURVE",
"1277.68 431.684 LINE",
"986.824 1018.27 LINE",
"1526.83 1173.89 OFFCURVE",
"1946.89 842.854 OFFCURVE",
"1945.78 843.632 CURVE",
"1566.14 748.223 LINE",
"1442.95 963.078 LINE",
"1347.4 980.786 OFFCURVE",
"1241.31 972.658 OFFCURVE",
"1139.07 953.242 CURVE",
"1392.63 461.153 LINE",
"2400 757.184 LINE",
"2337.36 840.712 OFFCURVE",
"1861.52 1374.17 OFFCURVE",
"892.372 1206.27 CURVE",
"805.76 1390.84 LINE"
);
},
{
closed = 1;
nodes = (
"865.699 559.505 LINE",
"497.62 450.248 LINE",
"497.62 450.248 OFFCURVE",
"414.65 698.196 OFFCURVE",
"711.682 891.849 CURVE"
);
}
);
width = 2400;
}
);
unicode = E116;
},
{
glyphname = uniE11F;
lastChange = "2014-02-04 00:13:14 +1000";
layers = (
{
layerId = "06D35582-4FA2-40C1-8C5B-DEFCD1A2473F";
name = Regular;
paths = (
{
closed = 1;
nodes = (
"710 1359 LINE",
"710 419 LINE",
"210 419 LINE",
"210 1079 LINE",
"530 1079 LINE",
"530 1359 LINE"
);
},
{
closed = 1;
nodes = (
"990 1359 LINE",
"990 1179 LINE",
"810 1179 LINE",
"810 1359 LINE"
);
},
{
closed = 1;
nodes = (
"990 1079 LINE",
"990 419 LINE",
"810 419 LINE",
"810 1079 LINE"
);
},
{
closed = 1;
nodes = (
"2190 1079 LINE",
"2190 179.002 LINE",
"1690 179.002 LINE",
"1690 319.002 LINE",
"2010 319.002 LINE",
"2010 419.002 LINE",
"1690 419.002 LINE",
"1690 1079 LINE"
);
},
{
closed = 1;
nodes = (
"1590 1079 LINE",
"1590 179 LINE",
"1090 179 LINE",
"1090 319 LINE",
"1410 319 LINE",
"1410 419 LINE",
"1090 419 LINE",
"1090 1079 LINE"
);
},
{
closed = 1;
nodes = (
"2010 939.003 LINE",
"1870 939.003 LINE",
"1870 559.003 LINE",
"2010 559.003 LINE"
);
},
{
closed = 1;
nodes = (
"1410 939.003 LINE",
"1270 939.003 LINE",
"1270 559.003 LINE",
"1410 559.003 LINE"
);
},
{
closed = 1;
nodes = (
"530 939.003 LINE",
"390 939.003 LINE",
"390 559.003 LINE",
"530 559.003 LINE"
);
}
);
width = 2400;
}
);
unicode = E11F;
},
{
glyphname = uniE126;
lastChange = "2014-01-15 07:53:52 +1000";
layers = (
{
layerId = "06D35582-4FA2-40C1-8C5B-DEFCD1A2473F";
name = Regular;
paths = (
{
closed = 1;
nodes = (
"702.941 1669 OFFCURVE",
"299.996 1266.05 OFFCURVE",
"299.996 769 CURVE SMOOTH",
"299.996 271.942 OFFCURVE",
"702.941 -131 OFFCURVE",
"1200 -131 CURVE SMOOTH",
"1697.05 -131 OFFCURVE",
"2100 271.942 OFFCURVE",
"2100 769 CURVE SMOOTH",
"2100 1266.05 OFFCURVE",
"1697.05 1669 OFFCURVE",
"1200 1669 CURVE SMOOTH"
);
},
{
closed = 1;
nodes = (
"1394.62 1537.58 OFFCURVE",
"1572.32 1465.21 OFFCURVE",
"1707.73 1345.94 CURVE",
"1706.97 1344.76 OFFCURVE",
"1597.82 1176.8 OFFCURVE",
"1306.24 1067.51 CURVE",
"1174.7 1309.18 OFFCURVE",
"1030.1 1501.12 OFFCURVE",
"1018.8 1516.04 CURVE",
"1076.91 1530.09 OFFCURVE",
"1137.57 1537.58 OFFCURVE",
"1200 1537.58 CURVE SMOOTH"
);
},
{
closed = 1;
nodes = (
"882.342 1450.36 OFFCURVE",
"1024.55 1257.65 OFFCURVE",
"1157.55 1021.22 CURVE",
"788.08 923.103 OFFCURVE",
"467.504 927.127 OFFCURVE",
"447.803 927.474 CURVE",
"497.692 1165.47 OFFCURVE",
"657.672 1362.95 OFFCURVE",
"872.036 1464.25 CURVE"
);
},
{
closed = 1;
nodes = (
"1901.4 1126.32 OFFCURVE",
"1966.68 959.105 OFFCURVE",
"1968.47 776.696 CURVE",
"1958.27 778.932 OFFCURVE",
"1697.64 835.121 OFFCURVE",
"1433.06 801.849 CURVE",
"1416.48 841.569 LINE SMOOTH",
"1400.49 879.107 OFFCURVE",
"1383.32 916.394 OFFCURVE",
"1365.41 953.057 CURVE",
"1667.25 1076.29 OFFCURVE",
"1790.8 1253.19 OFFCURVE",
"1793.59 1257.24 CURVE"
);
},
{
closed = 1;
nodes = (
"1243.19 859.733 OFFCURVE",
"1264.23 815.959 OFFCURVE",
"1283.55 772.234 CURVE",
"1253.22 763.078 LINE SMOOTH",
"859.247 635.737 OFFCURVE",
"649.971 293.069 OFFCURVE",
"629.935 258.96 CURVE SMOOTH",
"628.039 255.648 LINE",
"505.805 391.745 OFFCURVE",
"431.407 571.677 OFFCURVE",
"431.407 769.007 CURVE SMOOTH",
"431.829 793.373 LINE",
"440.499 793.141 OFFCURVE",
"822.739 783.623 OFFCURVE",
"1221.15 902.857 CURVE"
);
},
{
closed = 1;
nodes = (
"1728.25 720.283 OFFCURVE",
"1943.38 652.115 OFFCURVE",
"1958.9 647.034 CURVE",
"1924.73 432.78 OFFCURVE",
"1802.06 248.041 OFFCURVE",
"1629.49 131.538 CURVE",
"1621.69 177.895 OFFCURVE",
"1580.76 403.485 OFFCURVE",
"1479.93 680.537 CURVE"
);
},
{
closed = 1;
nodes = (
"1335.87 644.974 LINE",
"1443.98 364.038 OFFCURVE",
"1488.66 128.618 OFFCURVE",
"1500.08 61.221 CURVE",
"1407.88 22.08 OFFCURVE",
"1306.47 0.417 OFFCURVE",
"1200 0.417 CURVE SMOOTH",
"1021.82 0.417 OFFCURVE",
"857.833 61.092 OFFCURVE",
"727.484 162.851 CURVE",
"728.791 165.565 LINE SMOOTH",
"743.421 195.41 OFFCURVE",
"898.163 492.501 OFFCURVE",
"1330.8 643.263 CURVE SMOOTH"
);
}
);
width = 2400;
}
);
unicode = E126;
},
{
glyphname = uniE12F;
lastChange = "2014-01-15 07:53:52 +1000";
layers = (
{
layerId = "06D35582-4FA2-40C1-8C5B-DEFCD1A2473F";
name = Regular;
paths = (
{
closed = 1;
nodes = (
"849 1560 LINE",
"353 1237 LINE",
"701 961 LINE",
"1200 1268 LINE"
);
},
{
closed = 1;
nodes = (
"2047 1237 LINE",
"1551 1560 LINE",
"1200 1268 LINE",
"1699 961 LINE"
);
},
{
closed = 1;
nodes = (
"353 685 LINE",
"849 362 LINE",
"1200 654 LINE",
"701 961 LINE"
);
},
{
closed = 1;
nodes = (
"1200 654 LINE",
"1551 362 LINE",
"2047 685 LINE",
"1699 961 LINE"
);
},
{
closed = 1;
nodes = (
"1200 566 LINE",
"856 280 LINE",
"704 374 LINE",
"704 286 LINE",
"1200 -14 LINE",
"1696 286 LINE",
"1696 374 LINE",
"1544 280 LINE"
);
}
);
width = 2400;
}
);
unicode = E12F;
},
{
glyphname = uniE136;
lastChange = "2014-01-15 07:53:52 +1000";
layers = (
{
layerId = "06D35582-4FA2-40C1-8C5B-DEFCD1A2473F";
name = Regular;
paths = (
{
closed = 1;
nodes = (
"825.813 1175.29 LINE",
"718.71 1175.29 LINE",
"718.71 638.824 LINE SMOOTH",
"718.71 609.294 OFFCURVE",
"716.692 567.747 OFFCURVE",
"715 532.038 CURVE",
"822.083 532.038 LINE",
"823.501 547.38 OFFCURVE",
"825.259 569.516 OFFCURVE",
"825.685 587.487 CURVE",
"872.981 536.234 OFFCURVE",
"930.727 515.317 OFFCURVE",
"1007.7 515.317 CURVE SMOOTH",
"1135.91 515.317 OFFCURVE",
"1248.28 610.84 OFFCURVE",
"1248.28 754.675 CURVE SMOOTH",
"1248.28 904.167 OFFCURVE",
"1135.9 998.539 OFFCURVE",
"1007.7 998.539 CURVE SMOOTH",
"942.474 998.539 OFFCURVE",
"877.833 980.609 OFFCURVE",
"825.813 927.962 CURVE"
);
},
{
closed = 1;
nodes = (
"1391.96 998.536 OFFCURVE",
"1284.07 965.941 OFFCURVE",
"1273.67 859.618 CURVE",
"1384.33 858.877 LINE",
"1387.87 899.044 OFFCURVE",
"1433 924.542 OFFCURVE",
"1489.76 924.542 CURVE SMOOTH",
"1570.54 924.542 OFFCURVE",
"1616.29 895.283 OFFCURVE",
"1616.29 825.138 CURVE SMOOTH",
"1616.29 816.943 LINE",
"1578.59 816.941 OFFCURVE",
"1538.25 816.883 OFFCURVE",
"1477.82 815.197 CURVE SMOOTH",
"1338.04 811.149 OFFCURVE",
"1239 774.083 OFFCURVE",
"1239 662.369 CURVE SMOOTH",
"1239 555.172 OFFCURVE",
"1341.87 515.315 OFFCURVE",
"1438.63 515.315 CURVE SMOOTH",
"1515.92 515.315 OFFCURVE",
"1582.4 537.56 OFFCURVE",
"1623.54 587.649 CURVE",
"1623.78 570.411 OFFCURVE",
"1625.17 549.149 OFFCURVE",
"1627.34 532.068 CURVE",
"1728.04 532.068 LINE",
"1725.53 555.435 OFFCURVE",
"1724.03 586.649 OFFCURVE",
"1724.03 619.689 CURVE SMOOTH",
"1724.03 832.725 LINE SMOOTH",
"1724.03 860.286 OFFCURVE",
"1718.17 885.759 OFFCURVE",
"1706.7 907.517 CURVE SMOOTH",
"1705.95 908.939 LINE SMOOTH",
"1675.71 964.627 OFFCURVE",
"1606.82 998.537 OFFCURVE",
"1501.58 998.536 CURVE SMOOTH"
);
},
{
closed = 1;
nodes = (
"301.36 998.495 OFFCURVE",
"201 909.272 OFFCURVE",
"201 748.065 CURVE SMOOTH",
"201 607.928 OFFCURVE",
"292.038 515.273 OFFCURVE",
"466.12 515.273 CURVE SMOOTH",
"564.546 515.273 OFFCURVE",
"686.406 554.853 OFFCURVE",
"702.023 662.747 CURVE",
"589.423 664.457 LINE",
"573.093 609.363 OFFCURVE",
"513.9 589.059 OFFCURVE",
"461.894 589.059 CURVE SMOOTH",
"372.909 589.059 OFFCURVE",
"320.508 647.469 OFFCURVE",
"311.291 728.012 CURVE",
"716.447 728.012 LINE",
"716.439 758.145 LINE SMOOTH",
"716.384 971.739 OFFCURVE",
"545.274 998.496 OFFCURVE",
"462.303 998.495 CURVE SMOOTH"
);
},
{
closed = 1;
nodes = (
"2251 981.575 LINE",
"2137 981.575 LINE",
"1966.59 642.498 LINE",
"1794.5 981.575 LINE",
"1670 981.575 LINE",
"1906.66 536.011 LINE",
"1816.56 362.708 LINE",
"1935.7 362.709 LINE"
);
},
{
closed = 1;
nodes = (
"522.335 923.817 OFFCURVE",
"597.703 893.331 OFFCURVE",
"601.4 803.715 CURVE",
"314.846 803.715 LINE",
"328.084 889.437 OFFCURVE",
"391.687 923.817 OFFCURVE",
"462.731 923.817 CURVE SMOOTH"
);
},
{
closed = 1;
nodes = (
"1079.56 922.428 OFFCURVE",
"1133.36 847.114 OFFCURVE",
"1133.36 754.706 CURVE SMOOTH",
"1133.36 667.931 OFFCURVE",
"1079.54 591.22 OFFCURVE",
"982.763 591.22 CURVE SMOOTH",
"891.945 591.22 OFFCURVE",
"825.815 651.5 OFFCURVE",
"825.815 754.706 CURVE SMOOTH",
"825.815 863.537 OFFCURVE",
"891.918 922.428 OFFCURVE",
"982.763 922.428 CURVE SMOOTH"
);
},
{
closed = 1;
nodes = (
"1616.29 729.442 LINE SMOOTH",
"1616.29 642.694 OFFCURVE",
"1557.71 586.981 OFFCURVE",
"1462.72 586.981 CURVE SMOOTH",
"1384.23 586.981 OFFCURVE",
"1351.81 622.967 OFFCURVE",
"1351.81 664.984 CURVE SMOOTH",
"1351.81 725.1 OFFCURVE",
"1410.56 737.506 OFFCURVE",
"1490.76 740.752 CURVE SMOOTH",
"1551.08 743.239 OFFCURVE",
"1588.75 743.356 OFFCURVE",
"1616.29 743.362 CURVE"
);
}
);
width = 2400;
}
);
unicode = E136;
},
{
glyphname = uniE146;
lastChange = "2014-01-15 07:53:52 +1000";
layers = (
{
layerId = "06D35582-4FA2-40C1-8C5B-DEFCD1A2473F";
name = Regular;
paths = (
{
closed = 1;
nodes = (
"912.241 1538.45 OFFCURVE",
"877.472 1520.47 OFFCURVE",
"858.127 1492.75 CURVE SMOOTH",
"845.161 1474.21 OFFCURVE",
"836.758 1450.5 OFFCURVE",
"836.698 1417.35 CURVE SMOOTH",
"837.694 1315.13 LINE",
"838.706 1240.29 LINE SMOOTH",
"838.672 1205.22 OFFCURVE",
"810.238 1176.7 OFFCURVE",
"775.035 1176.65 CURVE SMOOTH",
"613.473 1176.65 LINE SMOOTH",
"579.019 1176.65 OFFCURVE",
"552.687 1170.86 OFFCURVE",
"532.565 1161.72 CURVE SMOOTH",
"512.424 1152.57 OFFCURVE",
"498.152 1140.25 OFFCURVE",
"487.319 1125.66 CURVE SMOOTH",
"465.749 1096.69 OFFCURVE",
"462 1060.95 OFFCURVE",
"462.094 1024.44 CURVE",
"462.094 1024.44 OFFCURVE",
"462.404 994.653 OFFCURVE",
"469.578 936.96 CURVE SMOOTH",
"475.553 892.31 OFFCURVE",
"523.973 580.441 OFFCURVE",
"569.959 485.595 CURVE SMOOTH",
"587.797 448.711 OFFCURVE",
"599.669 433.307 OFFCURVE",
"634.69 417.057 CURVE SMOOTH",
"712.736 383.627 OFFCURVE",
"890.994 346.463 OFFCURVE",
"974.571 335.821 CURVE SMOOTH",
"1057.96 325.144 OFFCURVE",
"1110.31 302.732 OFFCURVE",
"1141.5 368.125 CURVE",
"1156.19 408.061 LINE SMOOTH",
"1183.28 490.111 OFFCURVE",
"1187.07 562.917 OFFCURVE",
"1187.07 615.615 CURVE SMOOTH",
"1187.07 620.967 OFFCURVE",
"1194.91 621.214 OFFCURVE",
"1194.91 615.615 CURVE SMOOTH",
"1194.91 578.415 OFFCURVE",
"1187.82 446.753 OFFCURVE",
"1287.25 411.456 CURVE SMOOTH",
"1326.53 397.542 OFFCURVE",
"1407.96 385.121 OFFCURVE",
"1490.72 375.411 CURVE SMOOTH",
"1565.51 366.789 OFFCURVE",
"1619.83 337.373 OFFCURVE",
"1619.83 145.386 CURVE SMOOTH",
"1619.83 28.601 OFFCURVE",
"1595.3 12.93 OFFCURVE",
"1467.07 12.93 CURVE SMOOTH",
"1363.13 12.93 OFFCURVE",
"1323.48 9.93 OFFCURVE",
"1323.48 92.472 CURVE SMOOTH",
"1323.48 159.237 OFFCURVE",
"1389.53 152.238 OFFCURVE",
"1438.43 152.238 CURVE SMOOTH",
"1460.28 152.238 OFFCURVE",
"1444.44 168.484 OFFCURVE",
"1444.44 209.665 CURVE SMOOTH",
"1444.44 250.656 OFFCURVE",
"1470.05 274.345 OFFCURVE",
"1445.81 274.936 CURVE SMOOTH",
"1276.6 279.604 OFFCURVE",
"1177.08 275.123 OFFCURVE",
"1177.08 63.523 CURVE SMOOTH",
"1177.08 -128 OFFCURVE",
"1250.58 -164 OFFCURVE",
"1490.72 -164 CURVE SMOOTH",
"1679 -164 OFFCURVE",
"1745.3 -158 OFFCURVE",
"1823.05 83.136 CURVE SMOOTH",
"1838.46 130.757 OFFCURVE",
"1875.66 276.056 OFFCURVE",
"1898.19 520.054 CURVE SMOOTH",
"1912.42 674.315 OFFCURVE",
"1884.75 1139.95 OFFCURVE",
"1862.84 1257.47 CURVE SMOOTH",
"1850.01 1326.15 OFFCURVE",
"1809.17 1360 OFFCURVE",
"1772.2 1373.32 CURVE SMOOTH",
"1732.42 1387.7 OFFCURVE",
"1651.61 1402.62 OFFCURVE",
"1550.14 1414.58 CURVE SMOOTH",
"1468.53 1424.19 OFFCURVE",
"1372.53 1423.42 OFFCURVE",
"1314.57 1421.64 CURVE",
"1307.61 1469.3 OFFCURVE",
"1274.18 1512.82 OFFCURVE",
"1236.76 1527.91 CURVE SMOOTH",
"1137.16 1568 OFFCURVE",
"983.176 1558.3 OFFCURVE",
"943.662 1547.24 CURVE SMOOTH"
);
},
{
closed = 1;
nodes = (
"806.022 1510.4 LINE",
"804.171 1509.4 LINE",
"490.31 1198.14 LINE",
"489.14 1196.32 LINE",
"505.76 1204.47 LINE SMOOTH",
"533.075 1216.81 OFFCURVE",
"566.228 1223.57 OFFCURVE",
"605.911 1223.57 CURVE SMOOTH",
"767.551 1223.57 LINE SMOOTH",
"776.793 1223.58 OFFCURVE",
"784.266 1231.1 OFFCURVE",
"784.282 1240.29 CURVE SMOOTH",
"784.282 1240.34 OFFCURVE",
"782.303 1378.81 OFFCURVE",
"782.303 1417.29 CURVE SMOOTH",
"782.303 1449.36 OFFCURVE",
"788.933 1476.92 OFFCURVE",
"800.512 1500.03 CURVE SMOOTH"
);
},
{
closed = 1;
nodes = (
"1646.59 847.08 OFFCURVE",
"1658.43 767.388 OFFCURVE",
"1658.68 717.7 CURVE",
"1647.42 710.352 LINE",
"1615.79 724.449 OFFCURVE",
"1577.23 733.315 OFFCURVE",
"1534.36 734.816 CURVE SMOOTH",
"1511.48 735.609 OFFCURVE",
"1489.91 734.198 OFFCURVE",
"1469.39 730.895 CURVE",
"1460.18 739.78 LINE",
"1466.17 787.983 OFFCURVE",
"1487.9 852.608 OFFCURVE",
"1563.18 849.975 CURVE SMOOTH"
);
}
);
width = 2400;
}
);
unicode = E146;
},
{
glyphname = uniE14F;
lastChange = "2014-01-15 07:53:52 +1000";
layers = (
{
layerId = "06D35582-4FA2-40C1-8C5B-DEFCD1A2473F";
name = Regular;
paths = (
{
closed = 1;
nodes = (
"880 1569 LINE SMOOTH",
"614.905 1569 OFFCURVE",
"400 1354.1 OFFCURVE",
"400 1089 CURVE SMOOTH",
"400 81 LINE",
"780 461 LINE",
"780 1039 LINE SMOOTH",
"780 1121.84 OFFCURVE",
"847.158 1189 OFFCURVE",
"930 1189 CURVE SMOOTH",
"1200 1189 LINE",
"1200 949 LINE SMOOTH",
"1200 928.535 OFFCURVE",
"1210.97 917.724 OFFCURVE",
"1224.22 917.724 CURVE SMOOTH",
"1231.95 917.724 OFFCURVE",
"1240.45 921.405 OFFCURVE",
"1248 929 CURVE SMOOTH",
"1888 1569 LINE"
);
},
{
closed = 1;
nodes = (
"2000 1457 LINE",
"1620 1077 LINE",
"1620 499 LINE SMOOTH",
"1620 416.158 OFFCURVE",
"1552.84 349 OFFCURVE",
"1470 349 CURVE SMOOTH",
"1200 349 LINE",
"1200 589 LINE SMOOTH",
"1200 609.465 OFFCURVE",
"1189.03 620.276 OFFCURVE",
"1175.78 620.276 CURVE SMOOTH",
"1168.05 620.276 OFFCURVE",
"1159.55 616.595 OFFCURVE",
"1152 609 CURVE SMOOTH",
"512 -31 LINE",
"1520 -31 LINE SMOOTH",
"1785.1 -31 OFFCURVE",
"2000 183.903 OFFCURVE",
"2000 449 CURVE SMOOTH"
);
}
);
width = 2400;
}
);
unicode = E14F;
},
{
glyphname = uniE156;
lastChange = "2014-01-15 07:53:52 +1000";
layers = (
{
layerId = "06D35582-4FA2-40C1-8C5B-DEFCD1A2473F";
name = Regular;
paths = (
{
closed = 1;
nodes = (
"536.34 1145 OFFCURVE",
"368 976.661 OFFCURVE",
"368 769 CURVE SMOOTH",
"368 561.34 OFFCURVE",
"536.34 393 OFFCURVE",
"744 393 CURVE SMOOTH",
"951.66 393 OFFCURVE",
"1120 561.34 OFFCURVE",
"1120 769 CURVE SMOOTH",
"1120 976.661 OFFCURVE",
"951.66 1145 OFFCURVE",
"744 1145 CURVE SMOOTH"
);
},
{
closed = 1;
nodes = (
"1448.34 1145 OFFCURVE",
"1280 976.662 OFFCURVE",
"1280 769 CURVE SMOOTH",
"1280 561.342 OFFCURVE",
"1448.34 393 OFFCURVE",
"1656 393 CURVE SMOOTH",
"1863.66 393 OFFCURVE",
"2032 561.342 OFFCURVE",
"2032 769 CURVE SMOOTH",
"2032 976.662 OFFCURVE",
"1863.66 1145 OFFCURVE",
"1656 1145 CURVE SMOOTH"
);
}
);
width = 2400;
}
);
unicode = E156;
},
{
glyphname = uniE15F;
lastChange = "2014-01-15 07:53:52 +1000";
layers = (
{
layerId = "06D35582-4FA2-40C1-8C5B-DEFCD1A2473F";
name = Regular;
paths = (
{
closed = 1;
nodes = (
"1200 1679.46 LINE",
"527.839 68.2 LINE",
"1114.6 68.2 LINE",
"1114.6 402.377 LINE",
"944.485 518.959 LINE",
"986.402 581.08 LINE",
"1114.6 493.462 LINE",
"1114.6 750.143 LINE",
"1290.92 750.143 LINE",
"1290.92 587.174 LINE",
"1417.93 654.158 LINE",
"1454.72 586.452 LINE",
"1290.92 499.846 LINE",
"1290.92 407.805 LINE",
"1537.05 531.056 LINE",
"1570.09 464.207 LINE",
"1290.92 324.396 LINE",
"1290.92 68.2 LINE",
"1872.16 68.2 LINE"
);
}
);
width = 2400;
}
);
unicode = E15F;
},
{
glyphname = uniE166;
lastChange = "2013-11-26 04:39:06 +1000";
layers = (
{
layerId = "06D35582-4FA2-40C1-8C5B-DEFCD1A2473F";
name = Regular;
paths = (
{
closed = 1;
nodes = (
"2400 1362.07 LINE",
"1222.63 399.495 LINE SMOOTH",
"1218.83 396.3 OFFCURVE",
"1212.82 394.103 OFFCURVE",
"1205.97 392.904 CURVE SMOOTH",
"1201.87 392.185 OFFCURVE",
"1197.47 391.825 OFFCURVE",
"1193.06 391.825 CURVE SMOOTH",
"1181.32 391.825 OFFCURVE",
"1169.58 394.381 OFFCURVE",
"1163.5 399.495 CURVE",
"802.598 630.97 LINE",
"933.458 662.37 OFFCURVE",
"1042.37 750.189 OFFCURVE",
"1102.16 867.27 CURVE",
"1176.82 730.89 LINE",
"1186.18 718.237 OFFCURVE",
"1200.01 715.315 OFFCURVE",
"1211.44 722.099 CURVE SMOOTH",
"1211.8 722.309 OFFCURVE",
"1212.15 722.527 OFFCURVE",
"1212.49 722.755 CURVE",
"1214.95 724.55 LINE",
"1216.21 725.571 OFFCURVE",
"1217.43 726.716 OFFCURVE",
"1218.59 727.997 CURVE",
"1220.96 730.894 LINE",
"1724.41 1971.14 LINE",
"1638.07 1971.14 LINE",
"1406.4 1400.42 LINE",
"1347.14 1459.68 LINE SMOOTH",
"1266.04 1540.78 OFFCURVE",
"1134.08 1540.78 OFFCURVE",
"1052.98 1459.68 CURVE SMOOTH",
"1003.88 1410.58 LINE",
"922.734 1484.98 OFFCURVE",
"814.578 1530.39 OFFCURVE",
"695.811 1530.39 CURVE SMOOTH",
"443.968 1530.39 OFFCURVE",
"239.811 1326.23 OFFCURVE",
"239.811 1074.39 CURVE SMOOTH",
"239.81 893.528 OFFCURVE",
"345.105 737.261 OFFCURVE",
"497.738 663.541 CURVE",
"504.79 653.315 OFFCURVE",
"512.853 643.581 OFFCURVE",
"521.944 634.49 CURVE SMOOTH",
"1052.98 103.453 LINE SMOOTH",
"1134.08 22.3549 OFFCURVE",
"1266.04 22.3549 OFFCURVE",
"1347.14 103.454 CURVE SMOOTH",
"1878.17 634.492 LINE SMOOTH",
"1940.92 697.233 OFFCURVE",
"1955.1 790.41 OFFCURVE",
"1920.77 866.932 CURVE",
"2400 1258.74 LINE"
);
},
{
closed = 1;
nodes = (
"1071.81 866.731 OFFCURVE",
"903.47 698.39 OFFCURVE",
"695.811 698.39 CURVE SMOOTH",
"488.152 698.39 OFFCURVE",
"319.811 866.731 OFFCURVE",
"319.811 1074.39 CURVE SMOOTH",
"319.811 1282.05 OFFCURVE",
"488.152 1450.39 OFFCURVE",
"695.811 1450.39 CURVE SMOOTH",
"903.47 1450.39 OFFCURVE",
"1071.81 1282.05 OFFCURVE",
"1071.81 1074.39 CURVE SMOOTH"
);
}
);
width = 2400;
}
);
unicode = E166;
},
{
glyphname = uniE17F;
lastChange = "2013-12-02 23:45:53 +1000";
layers = (
{
layerId = "06D35582-4FA2-40C1-8C5B-DEFCD1A2473F";
name = Regular;
paths = (
{
closed = 1;
nodes = (
"2463.09 767.726 OFFCURVE",
"2461.28 769.036 OFFCURVE",
"2459.13 769.538 CURVE SMOOTH",
"2339.27 797.571 OFFCURVE",
"2207.02 809.288 OFFCURVE",
"2042.94 806.414 CURVE SMOOTH",
"2008.85 805.817 OFFCURVE",
"1973.09 804.633 OFFCURVE",
"1931.35 802.714 CURVE",
"1956.76 874.813 OFFCURVE",
"1972.4 962.513 OFFCURVE",
"1972.4 1062.87 CURVE SMOOTH",
"1972.4 1186.97 OFFCURVE",
"1930.25 1292.34 OFFCURVE",
"1848.3 1383.66 CURVE",
"1885.77 1479.66 OFFCURVE",
"1878.21 1595.72 OFFCURVE",
"1833.73 1710.44 CURVE",
"1803.81 1706.78 LINE SMOOTH",
"1782.77 1704.21 OFFCURVE",
"1745.28 1699.75 OFFCURVE",
"1691.42 1678.67 CURVE SMOOTH",
"1637.57 1657.61 OFFCURVE",
"1574.36 1622.49 OFFCURVE",
"1506.45 1577.99 CURVE",
"1408.1 1603.75 OFFCURVE",
"1307.42 1617.81 OFFCURVE",
"1206.74 1617.81 CURVE SMOOTH",
"1106.06 1617.81 OFFCURVE",
"1005.37 1603.75 OFFCURVE",
"907.029 1577.99 CURVE",
"864.881 1608.43 OFFCURVE",
"825.078 1631.85 OFFCURVE",
"785.273 1650.58 CURVE SMOOTH",
"708.004 1688.05 OFFCURVE",
"665.857 1699.75 OFFCURVE",
"628.394 1704.43 CURVE SMOOTH",
"607.321 1706.78 OFFCURVE",
"595.614 1706.78 OFFCURVE",
"590.931 1706.78 CURVE",
"583.908 1704.43 OFFCURVE",
"579.224 1704.43 OFFCURVE",
"576.881 1702.09 CURVE",
"532.394 1587.37 OFFCURVE",
"527.712 1479.66 OFFCURVE",
"565.176 1383.66 CURVE",
"483.224 1297.02 OFFCURVE",
"441.078 1189.31 OFFCURVE",
"441.078 1062.87 CURVE SMOOTH",
"441.078 973.9 OFFCURVE",
"452.786 896.629 OFFCURVE",
"473.857 828.729 CURVE SMOOTH",
"482.518 802.494 LINE",
"438.76 804.542 OFFCURVE",
"401.343 805.793 OFFCURVE",
"365.976 806.412 CURVE SMOOTH",
"201.905 809.286 OFFCURVE",
"69.661 797.568 OFFCURVE",
"-50 769.535 CURVE SMOOTH",
"-52 769.033 OFFCURVE",
"-54 767.723 OFFCURVE",
"-55 765.844 CURVE SMOOTH",
"-56 763.969 OFFCURVE",
"-57 761.75 OFFCURVE",
"-56 759.599 CURVE",
"-56 755.901 OFFCURVE",
"-52 753.266 OFFCURVE",
"-48 753.204 CURVE",
"-46 753.419 LINE",
"73.29 781.424 OFFCURVE",
"201.376 792.601 OFFCURVE",
"368.848 789.672 CURVE SMOOTH",
"406.33 789.017 OFFCURVE",
"445.546 787.692 OFFCURVE",
"488.693 785.621 CURVE",
"494.975 769.156 OFFCURVE",
"501.665 753.66 OFFCURVE",
"508.802 739.044 CURVE",
"311.722 731.845 OFFCURVE",
"111.064 699.194 OFFCURVE",
"-43 649.073 CURVE",
"-46 648.393 OFFCURVE",
"-47 646.94 OFFCURVE",
"-48 644.967 CURVE SMOOTH",
"-49 643.003 OFFCURVE",
"-49 640.759 OFFCURVE",
"-49 638.656 CURVE",
"-48 635.168 OFFCURVE",
"-44 632.862 OFFCURVE",
"-41 632.922 CURVE",
"-38 633.33 LINE",
"116.774 683.659 OFFCURVE",
"319.036 716.211 OFFCURVE",
"517.126 722.779 CURVE",
"556.605 649.13 OFFCURVE",
"608.953 599.061 OFFCURVE",
"679.907 559.46 CURVE SMOOTH",
"780.591 503.264 OFFCURVE",
"877.225 482.192 OFFCURVE",
"996.645 470.485 CURVE",
"963.32 444.164 OFFCURVE",
"924.557 394.14 OFFCURVE",
"910.719 329.656 CURVE",
"858.879 304.949 OFFCURVE",
"694.811 244.64 OFFCURVE",
"596.354 413.395 CURVE",
"596.354 413.395 OFFCURVE",
"541.246 513.809 OFFCURVE",
"435.774 521.66 CURVE",
"435.774 521.66 OFFCURVE",
"333.459 523.225 OFFCURVE",
"428.707 458.122 CURVE",
"428.707 458.122 OFFCURVE",
"497.169 425.966 OFFCURVE",
"544.41 305.161 CURVE",
"544.41 305.161 OFFCURVE",
"606.031 99 OFFCURVE",
"903.399 165 CURVE",
"903.399 -48 LINE",
"903.399 -48 OFFCURVE",
"902.734 -106 OFFCURVE",
"868.657 -136 CURVE",
"864.805 -139 LINE",
"860.679 -142 LINE",
"849.101 -148 LINE",
"792.556 -169 OFFCURVE",
"815.727 -191 OFFCURVE",
"815.727 -191 CURVE",
"829 -202 OFFCURVE",
"904.37 -195 OFFCURVE",
"904.37 -191 CURVE",
"904.37 -191 OFFCURVE",
"1018.45 -172 OFFCURVE",
"1020.26 -54 CURVE SMOOTH",
"1020.3 181 LINE",
"1020.3 181 OFFCURVE",
"1018.11 276.071 OFFCURVE",
"1063.49 308.079 CURVE",
"1063.49 -76 LINE",
"1063.49 -76 OFFCURVE",
"1059.3 -166 OFFCURVE",
"1011.04 -195 CURVE SMOOTH",
"978.883 -214 OFFCURVE",
"983.87 -252 OFFCURVE",
"1048.22 -242 CURVE",
"1048.22 -242 OFFCURVE",
"1167 -238 OFFCURVE",
"1183.97 -70 CURVE",
"1183.97 321.619 LINE",
"1227.18 321.619 LINE",
"1227.18 -70 LINE",
"1237 -217 OFFCURVE",
"1345.65 -237 OFFCURVE",
"1367.34 -240 CURVE SMOOTH",
"1421.18 -248 OFFCURVE",
"1433.08 -214 OFFCURVE",
"1397.27 -192 CURVE SMOOTH",
"1352.99 -165 OFFCURVE",
"1348.02 -83 OFFCURVE",
"1347.67 -76 CURVE",
"1347.65 305.368 LINE",
"1392.99 270.153 OFFCURVE",
"1390.83 181 OFFCURVE",
"1390.83 181 CURVE",
"1390.83 -51 LINE SMOOTH",
"1390.83 -159 OFFCURVE",
"1461.16 -187 OFFCURVE",
"1517.02 -193 CURVE",
"1517.02 -193 OFFCURVE",
"1588.25 -203 OFFCURVE",
"1596.04 -188 CURVE SMOOTH",
"1611.56 -158 OFFCURVE",
"1569.28 -148 OFFCURVE",
"1569.28 -148 CURVE",
"1500.02 -123 OFFCURVE",
"1507.74 -48 OFFCURVE",
"1507.74 -48 CURVE",
"1507.74 256.579 LINE SMOOTH",
"1507.74 361.598 OFFCURVE",
"1457.52 434.8 OFFCURVE",
"1414.49 470.485 CURVE",
"1473.04 477.508 OFFCURVE",
"1536.89 486.873 OFFCURVE",
"1586.06 498.581 CURVE SMOOTH",
"1679.72 524.337 OFFCURVE",
"1789.77 580.532 OFFCURVE",
"1857.66 664.826 CURVE SMOOTH",
"1871.19 681.736 OFFCURVE",
"1884.02 701.038 OFFCURVE",
"1895.86 722.588 CURVE",
"2092.16 715.601 OFFCURVE",
"2293.61 683.19 OFFCURVE",
"2447.29 633.331 CURVE",
"2449.68 632.923 LINE",
"2453.34 632.863 OFFCURVE",
"2456.55 635.169 OFFCURVE",
"2457.66 638.659 CURVE SMOOTH",
"2458.35 640.762 OFFCURVE",
"2458.16 643.006 OFFCURVE",
"2457.17 644.968 CURVE SMOOTH",
"2456.16 646.941 OFFCURVE",
"2454.46 648.394 OFFCURVE",
"2452.36 649.074 CURVE SMOOTH",
"2298.98 698.833 OFFCURVE",
"2100.11 731.371 OFFCURVE",
"1904.41 738.885 CURVE",
"1911.79 753.62 OFFCURVE",
"1918.72 769.289 OFFCURVE",
"1925.13 785.858 CURVE",
"1966.35 787.793 OFFCURVE",
"2004.02 789.044 OFFCURVE",
"2040.07 789.674 CURVE SMOOTH",
"2207.55 792.604 OFFCURVE",
"2335.63 781.426 OFFCURVE",
"2455.39 753.423 CURVE",
"2457.4 753.205 LINE",
"2461.19 753.268 OFFCURVE",
"2464.43 755.903 OFFCURVE",
"2465.28 759.601 CURVE SMOOTH",
"2465.79 761.752 OFFCURVE",
"2465.42 763.972 OFFCURVE",
"2464.26 765.846 CURVE SMOOTH"
);
},
{
closed = 1;
nodes = (
"888.483 516.94 OFFCURVE",
"631.511 564.488 OFFCURVE",
"631.511 869.813 CURVE SMOOTH",
"631.511 942.904 OFFCURVE",
"667.636 1010.77 OFFCURVE",
"729.498 1067.1 CURVE SMOOTH",
"832.716 1160.96 OFFCURVE",
"1007.38 1111.27 OFFCURVE",
"1205.53 1111.27 CURVE SMOOTH",
"1402.81 1111.29 OFFCURVE",
"1576.88 1161.5 OFFCURVE",
"1680.22 1068.28 CURVE SMOOTH",
"1742.9 1011.69 OFFCURVE",
"1779.55 943.388 OFFCURVE",
"1779.55 869.806 CURVE SMOOTH",
"1779.56 526.22 OFFCURVE",
"1522.56 516.94 OFFCURVE",
"1205.54 516.94 CURVE SMOOTH"
);
},
{
closed = 1;
nodes = (
"851.143 964.979 OFFCURVE",
"816.544 914.317 OFFCURVE",
"816.544 851.823 CURVE SMOOTH",
"816.544 789.324 OFFCURVE",
"851.143 738.663 OFFCURVE",
"893.823 738.663 CURVE SMOOTH",
"936.504 738.663 OFFCURVE",
"971.101 789.324 OFFCURVE",
"971.101 851.823 CURVE SMOOTH",
"971.101 914.317 OFFCURVE",
"936.504 964.979 OFFCURVE",
"893.823 964.979 CURVE SMOOTH"
);
},
{
closed = 1;
nodes = (
"1488.69 964.979 OFFCURVE",
"1454.09 914.316 OFFCURVE",
"1454.09 851.822 CURVE SMOOTH",
"1454.09 789.323 OFFCURVE",
"1488.69 738.662 OFFCURVE",
"1531.37 738.662 CURVE SMOOTH",
"1574.05 738.662 OFFCURVE",
"1608.65 789.323 OFFCURVE",
"1608.65 851.822 CURVE SMOOTH",
"1608.65 914.316 OFFCURVE",
"1574.05 964.979 OFFCURVE",
"1531.37 964.979 CURVE SMOOTH"
);
},
{
closed = 1;
nodes = (
"1228.03 667.748 OFFCURVE",
"1245.67 685.385 OFFCURVE",
"1245.67 706.044 CURVE SMOOTH",
"1245.67 726.708 OFFCURVE",
"1228.03 744.34 OFFCURVE",
"1207.38 744.34 CURVE SMOOTH",
"1186.72 744.34 OFFCURVE",
"1169.08 726.708 OFFCURVE",
"1169.08 706.044 CURVE SMOOTH",
"1169.08 685.385 OFFCURVE",
"1186.72 667.748 OFFCURVE",
"1207.38 667.748 CURVE SMOOTH"
);
},
{
closed = 1;
nodes = (
"1265.63 641.517 OFFCURVE",
"1256.81 636.392 OFFCURVE",
"1254.62 628.626 CURVE SMOOTH",
"1252.68 621.673 OFFCURVE",
"1233.42 594.421 OFFCURVE",
"1207.49 594.421 CURVE SMOOTH",
"1173.8 594.421 OFFCURVE",
"1161.23 622.788 OFFCURVE",
"1160.5 627.03 CURVE SMOOTH",
"1159.11 634.979 OFFCURVE",
"1150.88 641.038 OFFCURVE",
"1143.29 639.496 CURVE SMOOTH",
"1135.77 637.933 OFFCURVE",
"1130.29 629.184 OFFCURVE",
"1131.66 621.289 CURVE SMOOTH",
"1134.35 605.984 OFFCURVE",
"1157.58 563.188 OFFCURVE",
"1207.49 563.188 CURVE SMOOTH",
"1249.16 563.188 OFFCURVE",
"1278.25 603.746 OFFCURVE",
"1282.74 619.688 CURVE SMOOTH",
"1284.89 627.372 OFFCURVE",
"1280.32 636.669 OFFCURVE",
"1273.03 639.076 CURVE SMOOTH"
);
},
{
closed = 1;
nodes = (
"450.121 479.224 OFFCURVE",
"441.014 485.905 OFFCURVE",
"441.014 494.139 CURVE SMOOTH",
"441.014 502.376 OFFCURVE",
"450.121 509.057 OFFCURVE",
"461.355 509.057 CURVE SMOOTH",
"472.588 509.057 OFFCURVE",
"481.694 502.376 OFFCURVE",
"481.694 494.139 CURVE SMOOTH",
"481.694 485.905 OFFCURVE",
"472.588 479.224 OFFCURVE",
"461.355 479.224 CURVE SMOOTH"
);
},
{
closed = 1;
nodes = (
"501.649 449.392 OFFCURVE",
"492.544 456.072 OFFCURVE",
"492.544 464.31 CURVE SMOOTH",
"492.544 472.546 OFFCURVE",
"501.649 479.224 OFFCURVE",
"512.88 479.224 CURVE SMOOTH",
"524.117 479.224 OFFCURVE",
"533.223 472.546 OFFCURVE",
"533.223 464.31 CURVE SMOOTH",
"533.223 456.072 OFFCURVE",
"524.117 449.392 OFFCURVE",
"512.88 449.392 CURVE SMOOTH"
);
},
{
closed = 1;
nodes = (
"530.511 431.867 OFFCURVE",
"539.618 438.543 OFFCURVE",
"550.85 438.543 CURVE SMOOTH",
"562.085 438.543 OFFCURVE",
"571.191 431.867 OFFCURVE",
"571.191 423.627 CURVE SMOOTH",
"571.191 415.395 OFFCURVE",
"562.085 408.713 OFFCURVE",
"550.85 408.713 CURVE SMOOTH",
"539.618 408.713 OFFCURVE",
"530.511 415.395 OFFCURVE",
"530.511 423.627 CURVE SMOOTH"
);
},
{
closed = 1;
nodes = (
"560.345 385.761 OFFCURVE",
"569.45 392.44 OFFCURVE",
"580.682 392.44 CURVE SMOOTH",
"591.915 392.44 OFFCURVE",
"601.023 385.761 OFFCURVE",
"601.023 377.524 CURVE SMOOTH",
"601.023 369.289 OFFCURVE",
"591.915 362.61 OFFCURVE",
"580.682 362.61 CURVE SMOOTH",
"569.45 362.61 OFFCURVE",
"560.345 369.289 OFFCURVE",
"560.345 377.524 CURVE SMOOTH"
);
},
{
closed = 1;
nodes = (
"604.705 319.216 OFFCURVE",
"595.598 325.895 OFFCURVE",
"595.598 334.132 CURVE SMOOTH",
"595.598 342.368 OFFCURVE",
"604.705 349.047 OFFCURVE",
"615.939 349.047 CURVE SMOOTH",
"627.171 349.047 OFFCURVE",
"636.278 342.368 OFFCURVE",
"636.278 334.132 CURVE SMOOTH",
"636.278 325.895 OFFCURVE",
"627.171 319.216 OFFCURVE",
"615.939 319.216 CURVE SMOOTH"
);
},
{
closed = 1;
nodes = (
"653.521 278.535 OFFCURVE",
"644.415 285.215 OFFCURVE",
"644.415 293.452 CURVE SMOOTH",
"644.415 301.689 OFFCURVE",
"653.521 308.371 OFFCURVE",
"664.755 308.371 CURVE SMOOTH",
"675.989 308.371 OFFCURVE",
"685.095 301.689 OFFCURVE",
"685.095 293.452 CURVE SMOOTH",
"685.095 285.215 OFFCURVE",
"675.989 278.535 OFFCURVE",
"664.755 278.535 CURVE SMOOTH"
);
},
{
closed = 1;
nodes = (
"851.497 262.266 OFFCURVE",
"842.39 268.944 OFFCURVE",
"842.39 277.18 CURVE SMOOTH",
"842.39 285.417 OFFCURVE",
"851.497 292.095 OFFCURVE",
"862.731 292.095 CURVE SMOOTH",
"873.963 292.095 OFFCURVE",
"883.069 285.417 OFFCURVE",
"883.069 277.18 CURVE SMOOTH",
"883.069 268.944 OFFCURVE",
"873.963 262.266 OFFCURVE",
"862.731 262.266 CURVE SMOOTH"
);
},
{
closed = 1;
nodes = (
"718.607 254.132 OFFCURVE",
"709.503 260.806 OFFCURVE",
"709.503 269.043 CURVE SMOOTH",
"709.503 277.281 OFFCURVE",
"718.607 283.961 OFFCURVE",
"729.844 283.961 CURVE SMOOTH",
"741.076 283.961 OFFCURVE",
"750.181 277.281 OFFCURVE",
"750.181 269.043 CURVE SMOOTH",
"750.181 260.806 OFFCURVE",
"741.076 254.132 OFFCURVE",
"729.844 254.132 CURVE SMOOTH"
);
},
{
closed = 1;
nodes = (
"786.408 251.417 OFFCURVE",
"777.302 258.098 OFFCURVE",
"777.302 266.329 CURVE SMOOTH",
"777.302 274.568 OFFCURVE",
"786.408 281.248 OFFCURVE",
"797.642 281.248 CURVE SMOOTH",
"808.878 281.248 OFFCURVE",
"817.982 274.568 OFFCURVE",
"817.982 266.329 CURVE SMOOTH",
"817.982 258.098 OFFCURVE",
"808.878 251.417 OFFCURVE",
"797.642 251.417 CURVE SMOOTH"
);
}
);
width = 2400;
}
);
unicode = E17F;
},
{
glyphname = uniE186;
lastChange = "2014-01-21 06:43:10 +1000";
layers = (
{
layerId = "06D35582-4FA2-40C1-8C5B-DEFCD1A2473F";
name = Regular;
paths = (
{
closed = 1;
nodes = (
"702.944 1669 OFFCURVE",
"299.999 1266.06 OFFCURVE",
"299.999 769 CURVE SMOOTH",
"299.999 371.297 OFFCURVE",
"557.967 33.857 OFFCURVE",
"915.695 -85 CURVE",
"957.096 -92 OFFCURVE",
"976.096 -68 OFFCURVE",
"976.096 -40 CURVE SMOOTH",
"976.096 21.78 OFFCURVE",
"976.096 77.975 OFFCURVE",
"974.34 127.147 CURVE",
"875.998 107.83 OFFCURVE",
"803.998 116.61 OFFCURVE",
"760.096 141.195 CURVE SMOOTH",
"716.194 165.781 OFFCURVE",
"691.609 195.634 OFFCURVE",
"679.316 216.708 CURVE",
"672.292 232.513 LINE",
"649.463 293.976 OFFCURVE",
"609.072 341.392 OFFCURVE",
"587.999 355.441 CURVE",
"572.194 364.22 LINE",
"547.609 381.782 OFFCURVE",
"535.316 394.075 OFFCURVE",
"537.072 402.855 CURVE SMOOTH",
"538.828 411.636 OFFCURVE",
"545.852 415.148 OFFCURVE",
"559.901 416.904 CURVE SMOOTH",
"579.218 418.66 LINE",
"633.657 413.391 OFFCURVE",
"682.828 376.513 OFFCURVE",
"702.145 348.415 CURVE",
"716.194 325.586 LINE SMOOTH",
"765.364 241.294 OFFCURVE",
"854.925 218.464 OFFCURVE",
"905.852 227.245 CURVE",
"930.437 232.513 OFFCURVE",
"955.022 239.537 OFFCURVE",
"977.852 250.074 CURVE",
"986.633 304.512 OFFCURVE",
"1005.95 344.903 OFFCURVE",
"1035.8 369.489 CURVE",
"946.243 378.268 OFFCURVE",
"881.267 394.074 OFFCURVE",
"805.754 436.22 CURVE SMOOTH",
"730.242 478.366 OFFCURVE",
"682.827 536.317 OFFCURVE",
"651.217 638.171 CURVE SMOOTH",
"635.412 689.097 OFFCURVE",
"626.631 747.049 OFFCURVE",
"626.631 813.78 CURVE SMOOTH",
"626.631 908.609 OFFCURVE",
"658.241 989.39 OFFCURVE",
"719.705 1054.37 CURVE",
"691.607 1126.37 OFFCURVE",
"695.119 1207.15 OFFCURVE",
"728.485 1293.2 CURVE",
"730.241 1294.95 OFFCURVE",
"733.754 1294.95 OFFCURVE",
"739.022 1296.71 CURVE",
"742.534 1296.71 OFFCURVE",
"751.314 1296.71 OFFCURVE",
"767.119 1294.95 CURVE SMOOTH",
"795.217 1291.44 OFFCURVE",
"826.826 1282.66 OFFCURVE",
"884.778 1254.56 CURVE SMOOTH",
"914.632 1240.51 OFFCURVE",
"944.486 1222.95 OFFCURVE",
"976.095 1200.12 CURVE",
"1049.85 1219.44 OFFCURVE",
"1125.36 1229.98 OFFCURVE",
"1200.88 1229.98 CURVE SMOOTH",
"1276.39 1229.98 OFFCURVE",
"1351.9 1219.44 OFFCURVE",
"1425.66 1200.12 CURVE",
"1476.58 1233.49 OFFCURVE",
"1524 1259.83 OFFCURVE",
"1564.39 1275.63 CURVE SMOOTH",
"1604.78 1291.44 OFFCURVE",
"1632.88 1298.46 OFFCURVE",
"1648.68 1296.71 CURVE SMOOTH",
"1673.27 1293.2 LINE",
"1706.63 1207.15 OFFCURVE",
"1710.15 1126.37 OFFCURVE",
"1682.05 1054.37 CURVE",
"1743.51 985.878 OFFCURVE",
"1775.12 906.853 OFFCURVE",
"1775.12 813.781 CURVE SMOOTH",
"1775.12 680.318 OFFCURVE",
"1738.24 576.708 OFFCURVE",
"1689.07 515.245 CURVE SMOOTH",
"1638.15 452.024 OFFCURVE",
"1555.61 409.878 OFFCURVE",
"1485.37 390.561 CURVE SMOOTH",
"1448.49 381.781 OFFCURVE",
"1408.1 374.757 OFFCURVE",
"1364.19 369.489 CURVE",
"1404.59 332.61 OFFCURVE",
"1425.66 278.172 OFFCURVE",
"1425.66 202.659 CURVE SMOOTH",
"1425.66 46.366 LINE SMOOTH",
"1423.9 -12 OFFCURVE",
"1423.9 -39 OFFCURVE",
"1423.9 -41 CURVE SMOOTH",
"1423.9 -69 OFFCURVE",
"1442.91 -92 OFFCURVE",
"1484.31 -85 CURVE",
"1842.03 33.859 OFFCURVE",
"2100 371.297 OFFCURVE",
"2100 769 CURVE SMOOTH",
"2100 1266.06 OFFCURVE",
"1697.06 1669 OFFCURVE",
"1200 1669 CURVE SMOOTH"
);
}
);
width = 2400;
}
);
unicode = E186;
},
{
glyphname = uniE189;
lastChange = "2014-01-21 06:43:10 +1000";
layers = (
{
layerId = "06D35582-4FA2-40C1-8C5B-DEFCD1A2473F";
name = Regular;
paths = (
{
closed = 1;
nodes = (
"1798.24 1472.61 LINE SMOOTH",
"1777.17 1474.95 OFFCURVE",
"1739.71 1465.59 OFFCURVE",
"1685.85 1444.51 CURVE SMOOTH",
"1632 1423.44 OFFCURVE",
"1568.77 1388.32 OFFCURVE",
"1500.88 1343.83 CURVE",
"1402.53 1369.59 OFFCURVE",
"1301.85 1383.64 OFFCURVE",
"1201.17 1383.64 CURVE SMOOTH",
"1100.48 1383.64 OFFCURVE",
"999.802 1369.59 OFFCURVE",
"901.462 1343.83 CURVE",
"859.317 1374.27 OFFCURVE",
"819.512 1397.68 OFFCURVE",
"779.707 1416.41 CURVE SMOOTH",
"702.438 1453.88 OFFCURVE",
"660.291 1465.59 OFFCURVE",
"622.828 1470.27 CURVE SMOOTH",
"601.755 1472.61 OFFCURVE",
"590.048 1472.61 OFFCURVE",
"585.365 1472.61 CURVE",
"578.341 1470.27 OFFCURVE",
"573.657 1470.27 OFFCURVE",
"571.316 1467.93 CURVE",
"526.828 1353.2 OFFCURVE",
"522.145 1245.49 OFFCURVE",
"559.609 1149.49 CURVE",
"477.657 1062.85 OFFCURVE",
"435.509 955.145 OFFCURVE",
"435.509 828.706 CURVE SMOOTH",
"435.509 739.731 OFFCURVE",
"447.218 662.46 OFFCURVE",
"468.29 594.56 CURVE SMOOTH",
"510.438 458.755 OFFCURVE",
"573.658 381.487 OFFCURVE",
"674.341 325.292 CURVE SMOOTH",
"775.025 269.097 OFFCURVE",
"861.66 248.021 OFFCURVE",
"981.069 236.317 CURVE",
"941.269 203.536 OFFCURVE",
"915.512 149.68 OFFCURVE",
"903.805 77.097 CURVE",
"873.365 63.048 OFFCURVE",
"840.585 53.681 OFFCURVE",
"807.805 46.658 CURVE",
"739.901 34.95 OFFCURVE",
"620.488 65.39 OFFCURVE",
"554.928 177.779 CURVE SMOOTH",
"536.196 208.218 LINE",
"510.44 245.681 OFFCURVE",
"444.879 294.852 OFFCURVE",
"372.294 301.879 CURVE",
"346.538 299.538 LINE SMOOTH",
"327.806 297.197 OFFCURVE",
"318.441 292.514 OFFCURVE",
"316.1 280.806 CURVE SMOOTH",
"313.759 269.099 OFFCURVE",
"330.15 252.708 OFFCURVE",
"362.93 229.292 CURVE",
"384.002 217.587 LINE",
"412.1 198.854 OFFCURVE",
"465.955 135.633 OFFCURVE",
"496.394 53.682 CURVE",
"505.759 32.61 LINE",
"522.15 4.511 OFFCURVE",
"554.93 -35 OFFCURVE",
"613.466 -68 CURVE SMOOTH",
"672.002 -101 OFFCURVE",
"768.002 -113 OFFCURVE",
"899.125 -87 CURVE",
"901.466 -152 OFFCURVE",
"901.466 -227 OFFCURVE",
"901.466 -310 CURVE SMOOTH",
"901.466 -347 OFFCURVE",
"876.13 -379 OFFCURVE",
"820.93 -370 CURVE",
"940.085 -410 OFFCURVE",
"1067.54 -431 OFFCURVE",
"1200 -431 CURVE SMOOTH",
"1332.47 -431 OFFCURVE",
"1459.92 -410 OFFCURVE",
"1579.08 -370 CURVE",
"1523.88 -379 OFFCURVE",
"1498.54 -348 OFFCURVE",
"1498.54 -311 CURVE SMOOTH",
"1498.54 -308 OFFCURVE",
"1498.54 -272 OFFCURVE",
"1500.88 -195 CURVE SMOOTH",
"1500.88 13.879 LINE SMOOTH",
"1500.88 114.563 OFFCURVE",
"1472.79 187.147 OFFCURVE",
"1418.92 236.319 CURVE",
"1477.47 243.343 OFFCURVE",
"1531.32 252.708 OFFCURVE",
"1580.5 264.413 CURVE SMOOTH",
"1674.15 290.17 OFFCURVE",
"1784.2 346.365 OFFCURVE",
"1852.1 430.66 CURVE SMOOTH",
"1917.65 512.611 OFFCURVE",
"1966.83 650.758 OFFCURVE",
"1966.83 828.709 CURVE SMOOTH",
"1966.83 952.805 OFFCURVE",
"1924.68 1058.17 OFFCURVE",
"1842.73 1149.49 CURVE",
"1880.2 1245.49 OFFCURVE",
"1875.51 1353.2 OFFCURVE",
"1831.03 1467.93 CURVE"
);
}
);
width = 2400;
}
);
unicode = E189;
},
{
glyphname = uniE190;
lastChange = "2013-12-03 02:50:18 +1000";
layers = (
{
layerId = "06D35582-4FA2-40C1-8C5B-DEFCD1A2473F";
name = Regular;
paths = (
{
closed = 1;
nodes = (
"420 1419 LINE SMOOTH",
"353.726 1419 OFFCURVE",
"300 1365.27 OFFCURVE",
"300 1299 CURVE SMOOTH",
"300 238.999 LINE SMOOTH",
"300 172.725 OFFCURVE",
"353.726 118.999 OFFCURVE",
"420 118.999 CURVE SMOOTH",
"1980 118.999 LINE SMOOTH",
"2046.28 118.999 OFFCURVE",
"2100 172.725 OFFCURVE",
"2100 238.999 CURVE SMOOTH",
"2100 1299 LINE SMOOTH",
"2100 1365.27 OFFCURVE",
"2046.28 1419 OFFCURVE",
"1980 1419 CURVE SMOOTH"
);
},
{
closed = 1;
nodes = (
"1866.21 1338.56 LINE",
"1200 871.363 LINE",
"533.795 1338.56 LINE"
);
},
{
closed = 1;
nodes = (
"1137.38 644.067 LINE",
"515.399 199.436 LINE",
"514.787 1080.9 LINE"
);
},
{
closed = 1;
nodes = (
"1262.42 643.929 LINE",
"1885.21 1080.9 LINE",
"1885.21 199.436 LINE"
);
},
{
closed = 1;
nodes = (
"630.373 199.436 LINE",
"1154.94 631.743 LINE",
"1200 600.13 LINE",
"1245.06 631.743 LINE",
"1769.62 199.436 LINE"
);
}
);
width = 2400;
}
);
unicode = E190;
},
{
glyphname = uniE20F;
lastChange = "2014-02-02 01:39:10 +1000";
layers = (
{
layerId = "06D35582-4FA2-40C1-8C5B-DEFCD1A2473F";
name = Regular;
paths = (
{
closed = 1;
nodes = (
"1831 1648 LINE",
"1769.13 1616.03 OFFCURVE",
"1709.22 1584.09 OFFCURVE",
"1649.27 1552.11 CURVE SMOOTH",
"1641.75 1548.34 OFFCURVE",
"1635.22 1549.97 OFFCURVE",
"1630.81 1549.97 CURVE SMOOTH",
"1520.34 1549.97 LINE",
"1578.04 1501.2 OFFCURVE",
"1623.93 1440.74 OFFCURVE",
"1651.16 1369.16 CURVE SMOOTH",
"1681.47 1289.44 OFFCURVE",
"1681.47 1191.41 OFFCURVE",
"1650 1112.73 CURVE SMOOTH",
"1617.34 1027.12 OFFCURVE",
"1548.31 966.005 OFFCURVE",
"1478.66 912.939 CURVE SMOOTH",
"1461.73 900.247 OFFCURVE",
"1448.04 884.437 OFFCURVE",
"1433.73 867.915 CURVE SMOOTH",
"1420.92 852.993 OFFCURVE",
"1412.33 839.608 OFFCURVE",
"1409.32 821.571 CURVE SMOOTH",
"1406.16 804.718 OFFCURVE",
"1406.14 786.951 OFFCURVE",
"1410.18 770.493 CURVE",
"1416.22 753.675 OFFCURVE",
"1426.81 742.133 OFFCURVE",
"1440.76 729.263 CURVE SMOOTH",
"1471.2 699.897 OFFCURVE",
"1506.05 675.935 OFFCURVE",
"1540.39 649.349 CURVE SMOOTH",
"1563.84 631.477 OFFCURVE",
"1586.05 610.388 OFFCURVE",
"1607.88 591.821 CURVE SMOOTH",
"1642.27 561.864 OFFCURVE",
"1675.11 530.164 OFFCURVE",
"1699.88 491.865 CURVE SMOOTH",
"1801.14 339.95 OFFCURVE",
"1747.67 140.837 OFFCURVE",
"1619.1 24.613 CURVE SMOOTH",
"1493.04 -90 OFFCURVE",
"1314.84 -135 OFFCURVE",
"1148.64 -140 CURVE SMOOTH",
"988.187 -144 OFFCURVE",
"798.307 -117 OFFCURVE",
"680.575 6.967 CURVE SMOOTH",
"623.127 67.078 OFFCURVE",
"592 153.551 OFFCURVE",
"604.446 236.16 CURVE SMOOTH",
"615.668 313.597 OFFCURVE",
"654.583 388 OFFCURVE",
"714.213 439.76 CURVE SMOOTH",
"851.621 559.312 OFFCURVE",
"1046.17 587.267 OFFCURVE",
"1218.33 598.305 CURVE SMOOTH",
"1228.83 599.216 LINE",
"1204.38 629.4 OFFCURVE",
"1179.69 664.089 OFFCURVE",
"1170.66 703.18 CURVE SMOOTH",
"1160.41 748.295 OFFCURVE",
"1167.78 789.724 OFFCURVE",
"1184.71 830.1 CURVE",
"1102.62 821.561 OFFCURVE",
"1016.98 828.635 OFFCURVE",
"940.986 863.469 CURVE SMOOTH",
"864.778 897.091 OFFCURVE",
"804.254 955.343 OFFCURVE",
"765.043 1030.41 CURVE SMOOTH",
"689.941 1178.38 OFFCURVE",
"718.287 1373.42 OFFCURVE",
"832.603 1491.12 CURVE SMOOTH",
"894.006 1554.76 OFFCURVE",
"962.092 1594.48 OFFCURVE",
"1051.26 1620.12 CURVE SMOOTH",
"1132.64 1643.53 OFFCURVE",
"1220.88 1648 OFFCURVE",
"1305.91 1648 CURVE SMOOTH"
);
},
{
closed = 1;
nodes = (
"1125.12 1556.58 OFFCURVE",
"1096.22 1550.39 OFFCURVE",
"1067.43 1536.52 CURVE SMOOTH",
"1037.37 1522.57 OFFCURVE",
"1014.74 1505.08 OFFCURVE",
"996.663 1482.75 CURVE SMOOTH",
"976.319 1458.12 OFFCURVE",
"963.966 1433.42 OFFCURVE",
"956.491 1404.57 CURVE",
"950.058 1375.6 OFFCURVE",
"946.86 1346.82 OFFCURVE",
"946.86 1315.36 CURVE SMOOTH",
"946.86 1277.38 OFFCURVE",
"952.229 1235.49 OFFCURVE",
"964.218 1187.53 CURVE SMOOTH",
"976.198 1139.6 OFFCURVE",
"993.372 1095.61 OFFCURVE",
"1017.26 1054.34 CURVE SMOOTH",
"1042.11 1013.28 OFFCURVE",
"1071.9 979.23 OFFCURVE",
"1107.61 951.097 CURVE SMOOTH",
"1143.75 923.453 OFFCURVE",
"1185.05 910.031 OFFCURVE",
"1234.32 910.031 CURVE SMOOTH",
"1263.24 910.031 OFFCURVE",
"1291.31 915.227 OFFCURVE",
"1320.21 927.002 CURVE",
"1347.94 939.811 OFFCURVE",
"1370.96 954.462 OFFCURVE",
"1390.18 972.609 CURVE SMOOTH",
"1415.55 997.995 OFFCURVE",
"1430.82 1025.48 OFFCURVE",
"1437.15 1056.11 CURVE SMOOTH",
"1443.65 1088.58 OFFCURVE",
"1445.79 1115.25 OFFCURVE",
"1445.79 1135.83 CURVE SMOOTH",
"1445.79 1177.16 OFFCURVE",
"1440.41 1222.27 OFFCURVE",
"1427.36 1271.23 CURVE SMOOTH",
"1415.37 1320.31 OFFCURVE",
"1396.03 1366.48 OFFCURVE",
"1371.02 1408.91 CURVE SMOOTH",
"1346.04 1452.36 OFFCURVE",
"1316.33 1487.37 OFFCURVE",
"1279.63 1515.43 CURVE SMOOTH",
"1244.42 1543.18 OFFCURVE",
"1203.19 1556.58 OFFCURVE",
"1156.12 1556.58 CURVE SMOOTH"
);
},
{
closed = 1;
nodes = (
"1271.77 517.917 LINE SMOOTH",
"1267.8 517.917 OFFCURVE",
"1256.79 516.816 OFFCURVE",
"1238.72 516.816 CURVE",
"1221.66 515.729 OFFCURVE",
"1201.92 514.634 OFFCURVE",
"1177.85 512.446 CURVE",
"1155.11 509.188 OFFCURVE",
"1130.03 505.914 OFFCURVE",
"1102.79 500.466 CURVE SMOOTH",
"1076.59 495.008 OFFCURVE",
"1050.55 488.496 OFFCURVE",
"1025.42 480.85 CURVE",
"1013.93 476.655 OFFCURVE",
"995.505 469.072 OFFCURVE",
"973.607 459.215 CURVE SMOOTH",
"950.94 449.499 OFFCURVE",
"928.935 435.876 OFFCURVE",
"907.413 417.581 CURVE SMOOTH",
"886.011 399.388 OFFCURVE",
"868.113 377.276 OFFCURVE",
"850.755 350.154 CURVE",
"835.113 323.021 OFFCURVE",
"827.913 291.138 OFFCURVE",
"827.913 250.267 CURVE SMOOTH",
"827.913 168.816 OFFCURVE",
"863.296 104.29 OFFCURVE",
"936.526 52.597 CURVE SMOOTH",
"1010.1 1.085 OFFCURVE",
"1109.88 -25 OFFCURVE",
"1236.53 -25 CURVE SMOOTH",
"1349.84 -25 OFFCURVE",
"1432.87 -2 OFFCURVE",
"1490.97 44.582 CURVE SMOOTH",
"1548.92 90.732 OFFCURVE",
"1576.85 146.61 OFFCURVE",
"1576.85 217.224 CURVE SMOOTH",
"1576.85 246.056 OFFCURVE",
"1571.69 270.813 OFFCURVE",
"1562.09 294.294 CURVE SMOOTH",
"1552.51 317.708 OFFCURVE",
"1537.93 339.564 OFFCURVE",
"1517.45 362.212 CURVE SMOOTH",
"1496.8 385.038 OFFCURVE",
"1470.95 408.729 OFFCURVE",
"1438.22 433.827 CURVE",
"1404.74 457.582 OFFCURVE",
"1366.82 485.744 OFFCURVE",
"1323.62 516.026 CURVE",
"1314.71 517.039 OFFCURVE",
"1308.05 517.919 OFFCURVE",
"1301.5 517.917 CURVE SMOOTH"
);
}
);
width = 2400;
}
);
unicode = E20F;
},
{
glyphname = uniE216;
lastChange = "2014-02-02 01:39:18 +1000";
layers = (
{
layerId = "06D35582-4FA2-40C1-8C5B-DEFCD1A2473F";
name = Regular;
paths = (
{
closed = 1;
nodes = (
"490.798 1117 LINE",
"333.2 1117 LINE",
"333.2 426 LINE",
"490.798 426 LINE"
);
},
{
closed = 1;
nodes = (
"1124.34 1117 LINE",
"905.076 1117 LINE",
"860.479 789.957 LINE",
"852.566 789.856 LINE",
"799.627 1117 LINE",
"582.657 1117 LINE",
"582.657 426 LINE",
"719.789 426 LINE",
"719.789 875.851 LINE",
"727.728 876.554 LINE",
"808.051 426 LINE",
"902.604 426 LINE",
"975.105 876.491 LINE",
"983.054 875.851 LINE",
"983.054 426 LINE",
"1124.34 426 LINE"
);
},
{
closed = 1;
nodes = (
"1215.55 1117 LINE",
"1215.55 426 LINE",
"1437.92 426 LINE SMOOTH",
"1507.86 426 OFFCURVE",
"1547.12 432.764 OFFCURVE",
"1573.43 449.292 CURVE SMOOTH",
"1603.18 467.972 OFFCURVE",
"1616.45 500.229 OFFCURVE",
"1616.45 553.881 CURVE SMOOTH",
"1616.45 961.769 LINE SMOOTH",
"1616.45 1016.95 OFFCURVE",
"1602.74 1055.75 OFFCURVE",
"1574.53 1080.39 CURVE SMOOTH",
"1546.16 1105.17 OFFCURVE",
"1501.48 1117 OFFCURVE",
"1437.92 1117 CURVE SMOOTH"
);
},
{
closed = 1;
nodes = (
"1859.79 1117 LINE",
"1702.19 1117 LINE",
"1703.19 426 LINE",
"1851.92 426 LINE",
"1868.35 465.304 LINE",
"1872.47 461.022 LINE SMOOTH",
"1901.31 431.092 OFFCURVE",
"1936.97 419.221 OFFCURVE",
"1967.87 419.221 CURVE SMOOTH",
"2001.09 419.221 OFFCURVE",
"2031.41 426.529 OFFCURVE",
"2053.25 447.056 CURVE SMOOTH",
"2072.38 465.042 OFFCURVE",
"2083.8 492.295 OFFCURVE",
"2083.8 514.934 CURVE SMOOTH",
"2083.8 854.251 LINE SMOOTH",
"2083.8 918.571 OFFCURVE",
"2021.54 950.495 OFFCURVE",
"1984.67 952.226 CURVE",
"1936.66 952.194 OFFCURVE",
"1890.87 936.728 OFFCURVE",
"1866.78 909.656 CURVE SMOOTH",
"1859.79 901.806 LINE"
);
},
{
closed = 1;
nodes = (
"1377.15 1004.46 LINE SMOOTH",
"1388.56 1004.46 OFFCURVE",
"1407.64 1004.46 OFFCURVE",
"1424.17 998.846 CURVE SMOOTH",
"1445.23 991.699 OFFCURVE",
"1455.91 977.718 OFFCURVE",
"1455.91 957.278 CURVE SMOOTH",
"1455.91 590.177 LINE SMOOTH",
"1455.91 545.241 OFFCURVE",
"1400.72 545.241 OFFCURVE",
"1377.15 545.241 CURVE SMOOTH",
"1373.15 545.241 LINE",
"1373.15 1004.46 LINE"
);
},
{
closed = 1;
nodes = (
"1911.52 853.572 OFFCURVE",
"1929.13 840.829 OFFCURVE",
"1929.13 816.448 CURVE SMOOTH",
"1929.13 548.004 LINE SMOOTH",
"1929.13 523.802 OFFCURVE",
"1911.69 511.14 OFFCURVE",
"1894.46 511.14 CURVE SMOOTH",
"1877.23 511.14 OFFCURVE",
"1859.79 523.802 OFFCURVE",
"1859.79 548.004 CURVE SMOOTH",
"1859.79 816.448 LINE SMOOTH",
"1859.79 841.164 OFFCURVE",
"1877.06 853.572 OFFCURVE",
"1894.12 853.572 CURVE SMOOTH"
);
}
);
width = 2400;
}
);
unicode = E216;
},
{
glyphname = uniE217;
lastChange = "2014-02-02 01:39:18 +1000";
layers = (
{
layerId = "06D35582-4FA2-40C1-8C5B-DEFCD1A2473F";
name = Regular;
paths = (
{
closed = 1;
nodes = (
"128 1349 LINE SMOOTH",
"57.307 1349 OFFCURVE",
"0 1291.7 OFFCURVE",
"0 1221 CURVE SMOOTH",
"0 322 LINE SMOOTH",
"0 251.502 OFFCURVE",
"57.292 194 OFFCURVE",
"128 194 CURVE SMOOTH",
"2272 194 LINE SMOOTH",
"2342.7 194 OFFCURVE",
"2400 251.502 OFFCURVE",
"2400 322 CURVE SMOOTH",
"2400 1221 LINE SMOOTH",
"2400 1291.7 OFFCURVE",
"2342.69 1349 OFFCURVE",
"2272 1349 CURVE SMOOTH"
);
},
{
closed = 1;
nodes = (
"490.798 426 LINE",
"333.2 426 LINE",
"333.2 1117 LINE",
"490.798 1117 LINE"
);
},
{
closed = 1;
nodes = (
"1124.34 426 LINE",
"983.054 426 LINE",
"983.054 875.851 LINE",
"975.105 876.491 LINE",
"902.604 426 LINE",
"808.051 426 LINE",
"727.728 876.554 LINE",
"719.789 875.851 LINE",
"719.789 426 LINE",
"582.657 426 LINE",
"582.657 1117 LINE",
"799.627 1117 LINE",
"852.566 789.856 LINE",
"860.479 789.957 LINE",
"905.076 1117 LINE",
"1124.34 1117 LINE"
);
},
{
closed = 1;
nodes = (
"1501.48 1117 OFFCURVE",
"1546.16 1105.17 OFFCURVE",
"1574.53 1080.39 CURVE SMOOTH",
"1602.74 1055.75 OFFCURVE",
"1616.45 1016.95 OFFCURVE",
"1616.45 961.769 CURVE SMOOTH",
"1616.45 553.881 LINE SMOOTH",
"1616.45 500.229 OFFCURVE",
"1603.18 467.972 OFFCURVE",
"1573.43 449.292 CURVE SMOOTH",
"1547.12 432.764 OFFCURVE",
"1507.86 426 OFFCURVE",
"1437.92 426 CURVE SMOOTH",
"1215.55 426 LINE",
"1215.55 1117 LINE",
"1437.92 1117 LINE SMOOTH"
);
},
{
closed = 1;
nodes = (
"1373.15 1004.46 LINE",
"1373.15 545.241 LINE",
"1377.15 545.241 LINE SMOOTH",
"1400.72 545.241 OFFCURVE",
"1455.91 545.241 OFFCURVE",
"1455.91 590.177 CURVE SMOOTH",
"1455.91 957.278 LINE SMOOTH",
"1455.91 977.718 OFFCURVE",
"1445.23 991.699 OFFCURVE",
"1424.17 998.846 CURVE SMOOTH",
"1407.64 1004.46 OFFCURVE",
"1388.56 1004.46 OFFCURVE",
"1377.15 1004.46 CURVE SMOOTH"
);
},
{
closed = 1;
nodes = (
"1877.06 853.572 OFFCURVE",
"1859.79 841.164 OFFCURVE",
"1859.79 816.448 CURVE SMOOTH",
"1859.79 548.004 LINE SMOOTH",
"1859.79 523.802 OFFCURVE",
"1877.23 511.14 OFFCURVE",
"1894.46 511.14 CURVE SMOOTH",
"1911.69 511.14 OFFCURVE",
"1929.13 523.802 OFFCURVE",
"1929.13 548.004 CURVE SMOOTH",
"1929.13 816.448 LINE SMOOTH",
"1929.13 840.829 OFFCURVE",
"1911.52 853.572 OFFCURVE",
"1894.12 853.572 CURVE SMOOTH"
);
},
{
closed = 1;
nodes = (
"1859.79 901.806 LINE",
"1866.78 909.656 LINE SMOOTH",
"1890.87 936.728 OFFCURVE",
"1936.66 952.194 OFFCURVE",
"1984.67 952.226 CURVE",
"2021.54 950.495 OFFCURVE",
"2083.8 918.571 OFFCURVE",
"2083.8 854.251 CURVE SMOOTH",
"2083.8 514.934 LINE SMOOTH",
"2083.8 492.295 OFFCURVE",
"2072.38 465.042 OFFCURVE",
"2053.25 447.056 CURVE SMOOTH",
"2031.41 426.529 OFFCURVE",
"2001.09 419.221 OFFCURVE",
"1967.87 419.221 CURVE SMOOTH",
"1936.97 419.221 OFFCURVE",
"1901.31 431.092 OFFCURVE",
"1872.47 461.022 CURVE SMOOTH",
"1868.35 465.304 LINE",
"1851.92 426 LINE",
"1703.19 426 LINE",
"1702.19 1117 LINE",
"1859.79 1117 LINE"
);
}
);
width = 2400;
}
);
unicode = E217;
},
{
glyphname = uniE226;
lastChange = "2013-12-03 09:52:15 +1000";
layers = (
{
layerId = "06D35582-4FA2-40C1-8C5B-DEFCD1A2473F";
name = Regular;
paths = (
{
closed = 1;
nodes = (
"592 1569 LINE SMOOTH",
"485.961 1569 OFFCURVE",
"400 1483.04 OFFCURVE",
"400 1377 CURVE SMOOTH",
"400 161 LINE SMOOTH",
"400 54.961 OFFCURVE",
"485.961 -31 OFFCURVE",
"592 -31 CURVE SMOOTH",
"1808 -31 LINE SMOOTH",
"1914.04 -31 OFFCURVE",
"2000 54.961 OFFCURVE",
"2000 161 CURVE SMOOTH",
"2000 1377 LINE SMOOTH",
"2000 1483.04 OFFCURVE",
"1914.04 1569 OFFCURVE",
"1808 1569 CURVE SMOOTH"
);
},
{
closed = 1;
nodes = (
"1757 1393 LINE SMOOTH",
"1792.35 1393 OFFCURVE",
"1821 1364.35 OFFCURVE",
"1821 1329 CURVE SMOOTH",
"1821 1153 LINE SMOOTH",
"1821 1117.65 OFFCURVE",
"1792.35 1089 OFFCURVE",
"1757 1089 CURVE SMOOTH",
"1581 1089 LINE SMOOTH",
"1545.65 1089 OFFCURVE",
"1517 1117.65 OFFCURVE",
"1517 1153 CURVE SMOOTH",
"1517 1329 LINE SMOOTH",
"1517 1364.35 OFFCURVE",
"1545.65 1393 OFFCURVE",
"1581 1393 CURVE SMOOTH"
);
},
{
closed = 1;
nodes = (
"1376.73 1089 OFFCURVE",
"1520 945.731 OFFCURVE",
"1520 769 CURVE SMOOTH",
"1520 592.27 OFFCURVE",
"1376.73 449 OFFCURVE",
"1200 449 CURVE SMOOTH",
"1023.27 449 OFFCURVE",
"880 592.27 OFFCURVE",
"880 769 CURVE SMOOTH",
"880 945.731 OFFCURVE",
"1023.27 1089 OFFCURVE",
"1200 1089 CURVE SMOOTH"
);
},
{
closed = 1;
nodes = (
"1824 913 LINE",
"1824 209.5 LINE SMOOTH",
"1824 174.154 OFFCURVE",
"1795.35 145.5 OFFCURVE",
"1760 145.5 CURVE SMOOTH",
"640 145.5 LINE SMOOTH",
"604.654 145.5 OFFCURVE",
"576 174.154 OFFCURVE",
"576 209.5 CURVE SMOOTH",
"576 913 LINE",
"725.236 913 LINE",
"711.431 867.426 OFFCURVE",
"704 819.082 OFFCURVE",
"704 769 CURVE SMOOTH",
"704 495.066 OFFCURVE",
"926.067 273 OFFCURVE",
"1200 273 CURVE SMOOTH",
"1473.93 273 OFFCURVE",
"1696 495.066 OFFCURVE",
"1696 769 CURVE SMOOTH",
"1696 819.082 OFFCURVE",
"1688.57 867.426 OFFCURVE",
"1674.76 913 CURVE"
);
}
);
width = 2400;
}
);
unicode = E226;
},
{
glyphname = uniE24F;
lastChange = "2014-01-16 23:37:13 +1000";
layers = (
{
layerId = "06D35582-4FA2-40C1-8C5B-DEFCD1A2473F";
name = Regular;
paths = (
{
closed = 1;
nodes = (
"1483.05 1548.06 OFFCURVE",
"1413.3 1509.06 OFFCURVE",
"1359.3 1431.06 CURVE SMOOTH",
"1073.55 1017.06 LINE",
"1073.55 1262.31 LINE SMOOTH",
"1073.55 1315.56 OFFCURVE",
"1071.3 1351.92 OFFCURVE",
"1066.8 1371.44 CURVE SMOOTH",
"1059.29 1402.94 OFFCURVE",
"1041.29 1434.05 OFFCURVE",
"1012.8 1464.81 CURVE SMOOTH",
"961.788 1520.31 OFFCURVE",
"898.05 1548.06 OFFCURVE",
"821.55 1548.06 CURVE SMOOTH",
"741.288 1548.06 OFFCURVE",
"678.288 1520.31 OFFCURVE",
"632.55 1464.81 CURVE SMOOTH",
"589.045 1412.31 OFFCURVE",
"567.3 1345.56 OFFCURVE",
"567.3 1264.56 CURVE SMOOTH",
"567.3 280.187 LINE SMOOTH",
"567.3 194.687 OFFCURVE",
"588.675 126.062 OFFCURVE",
"631.425 74.312 CURVE SMOOTH",
"677.163 18.062 OFFCURVE",
"741.675 -10 OFFCURVE",
"824.925 -10 CURVE SMOOTH",
"916.42 -10 OFFCURVE",
"986.17 28.187 OFFCURVE",
"1034.18 104.687 CURVE SMOOTH",
"1060.42 146.682 OFFCURVE",
"1073.55 205.55 OFFCURVE",
"1073.55 281.312 CURVE SMOOTH",
"1073.55 546.812 LINE",
"1459.43 65.312 LINE SMOOTH",
"1499.93 15.057 OFFCURVE",
"1558.8 -10 OFFCURVE",
"1636.05 -10 CURVE SMOOTH",
"1706.54 -10 OFFCURVE",
"1766.55 15.249 OFFCURVE",
"1816.05 65.874 CURVE SMOOTH",
"1865.55 116.499 OFFCURVE",
"1890.3 177.057 OFFCURVE",
"1890.3 247.562 CURVE SMOOTH",
"1890.3 300.807 OFFCURVE",
"1874.55 347.3 OFFCURVE",
"1843.05 387.062 CURVE SMOOTH",
"1528.05 786.437 LINE",
"1785.68 1161.06 LINE SMOOTH",
"1812.68 1200.05 OFFCURVE",
"1826.18 1245.05 OFFCURVE",
"1826.18 1296.06 CURVE SMOOTH",
"1826.18 1365.06 OFFCURVE",
"1800.67 1424.31 OFFCURVE",
"1749.68 1473.81 CURVE SMOOTH",
"1698.66 1523.31 OFFCURVE",
"1638.3 1548.06 OFFCURVE",
"1568.55 1548.06 CURVE SMOOTH"
);
}
);
width = 2400;
}
);
unicode = E24F;
},
{
glyphname = uniE256;
lastChange = "2013-11-26 04:32:08 +1000";
layers = (
{
layerId = "06D35582-4FA2-40C1-8C5B-DEFCD1A2473F";
name = Regular;
paths = (
{
closed = 1;
nodes = (
"1538.22 1282.33 OFFCURVE",
"1356.78 1212.23 OFFCURVE",
"1356.78 987.484 CURVE SMOOTH",
"1356.78 847.274 OFFCURVE",
"1424.82 758.607 OFFCURVE",
"1595.93 717.369 CURVE SMOOTH",
"1736.16 684.391 LINE SMOOTH",
"1841.31 659.639 OFFCURVE",
"1876.34 616.345 OFFCURVE",
"1876.34 556.546 CURVE SMOOTH",
"1876.34 480.273 OFFCURVE",
"1802.13 449.336 OFFCURVE",
"1661.91 449.336 CURVE SMOOTH",
"1453.67 449.336 OFFCURVE",
"1367.09 558.615 OFFCURVE",
"1317.59 709.141 CURVE SMOOTH",
"1249.55 915.309 LINE SMOOTH",
"1162.97 1183.36 OFFCURVE",
"1024.81 1282.33 OFFCURVE",
"750.579 1282.33 CURVE SMOOTH",
"447.492 1282.33 OFFCURVE",
"286.666 1090.59 OFFCURVE",
"286.666 764.812 CURVE SMOOTH",
"286.666 451.394 OFFCURVE",
"447.492 282.334 OFFCURVE",
"736.158 282.334 CURVE SMOOTH",
"969.134 282.334 OFFCURVE",
"1080.49 391.607 OFFCURVE",
"1080.49 391.607 CURVE",
"1014.5 570.979 LINE",
"1014.5 570.979 OFFCURVE",
"907.277 451.394 OFFCURVE",
"746.47 451.394 CURVE SMOOTH",
"604.193 451.394 OFFCURVE",
"503.17 575.106 OFFCURVE",
"503.17 773.048 CURVE SMOOTH",
"503.17 1026.66 OFFCURVE",
"630.989 1117.38 OFFCURVE",
"756.775 1117.38 CURVE SMOOTH",
"938.21 1117.38 OFFCURVE",
"995.937 999.854 OFFCURVE",
"1045.43 849.337 CURVE SMOOTH",
"1111.42 643.141 LINE SMOOTH",
"1177.38 443.15 OFFCURVE",
"1301.1 282.334 OFFCURVE",
"1657.79 282.334 CURVE SMOOTH",
"1913.47 282.334 OFFCURVE",
"2086.67 360.674 OFFCURVE",
"2086.67 566.852 CURVE SMOOTH",
"2086.67 733.86 OFFCURVE",
"1991.8 820.476 OFFCURVE",
"1814.49 861.714 CURVE SMOOTH",
"1682.54 890.582 LINE SMOOTH",
"1591.82 911.2 OFFCURVE",
"1565.03 948.311 OFFCURVE",
"1565.03 1010.17 CURVE SMOOTH",
"1565.03 1080.27 OFFCURVE",
"1620.68 1121.51 OFFCURVE",
"1711.41 1121.51 CURVE SMOOTH",
"1810.38 1121.51 OFFCURVE",
"1863.98 1084.39 OFFCURVE",
"1872.24 995.734 CURVE",
"2078.41 1020.48 LINE",
"2061.92 1206.04 OFFCURVE",
"1934.1 1282.33 OFFCURVE",
"1723.78 1282.33 CURVE SMOOTH"
);
}
);
width = 2400;
}
);
unicode = E256;
},
{
glyphname = uniE25F;
lastChange = "2013-11-26 04:31:47 +1000";
layers = (
{
layerId = "06D35582-4FA2-40C1-8C5B-DEFCD1A2473F";
name = Regular;
paths = (
{
closed = 1;
nodes = (
"504.28 1632 OFFCURVE",
"420 1548.45 OFFCURVE",
"420 1445.36 CURVE SMOOTH",
"420 1342.28 OFFCURVE",
"504.28 1258.72 OFFCURVE",
"608.265 1258.72 CURVE SMOOTH",
"712.216 1258.72 OFFCURVE",
"796.529 1342.28 OFFCURVE",
"796.529 1445.36 CURVE SMOOTH",
"796.529 1548.45 OFFCURVE",
"712.216 1632 OFFCURVE",
"608.265 1632 CURVE SMOOTH"
);
},
{
closed = 1;
nodes = (
"1448.52 1134.59 OFFCURVE",
"1346.98 1029.79 OFFCURVE",
"1302.41 958.425 CURVE",
"1302.41 1108.42 LINE",
"988 1108.42 LINE",
"988 43.886 LINE",
"1315.06 43.886 LINE",
"1315.06 638.793 LINE SMOOTH",
"1315.06 668.965 OFFCURVE",
"1322.42 706.424 OFFCURVE",
"1331.39 728.689 CURVE SMOOTH",
"1358.85 798.651 OFFCURVE",
"1418.11 849.006 OFFCURVE",
"1510.96 849.006 CURVE SMOOTH",
"1633.6 849.006 OFFCURVE",
"1691.35 760.159 OFFCURVE",
"1691.35 619.693 CURVE SMOOTH",
"1691.35 43.886 LINE",
"2018.82 43.886 LINE",
"2018.82 666.845 LINE SMOOTH",
"2018.82 1002.98 OFFCURVE",
"1876.9 1134.59 OFFCURVE",
"1631.36 1134.59 CURVE SMOOTH"
);
},
{
closed = 1;
nodes = (
"772.855 1108.42 LINE",
"442.719 1108.42 LINE",
"442.719 43.886 LINE",
"772.855 43.886 LINE"
);
}
);
width = 2400;
}
);
unicode = E25F;
},
{
glyphname = uniE266;
lastChange = "2014-02-02 01:39:30 +1000";
layers = (
{
layerId = "06D35582-4FA2-40C1-8C5B-DEFCD1A2473F";
name = Regular;
paths = (
{
closed = 1;
nodes = (
"1816.91 1229 OFFCURVE",
"1923.04 1122.88 OFFCURVE",
"1923.04 991.963 CURVE SMOOTH",
"1923.04 861.051 OFFCURVE",
"1816.91 754.926 OFFCURVE",
"1686 754.926 CURVE SMOOTH",
"1555.09 754.926 OFFCURVE",
"1448.96 861.051 OFFCURVE",
"1448.96 991.963 CURVE SMOOTH",
"1448.96 1122.88 OFFCURVE",
"1555.09 1229 OFFCURVE",
"1686 1229 CURVE SMOOTH"
);
},
{
closed = 1;
nodes = (
"1274.64 1141 OFFCURVE",
"1370.82 1044.82 OFFCURVE",
"1370.82 926.185 CURVE SMOOTH",
"1370.82 807.546 OFFCURVE",
"1274.64 711.37 OFFCURVE",
"1156 711.37 CURVE SMOOTH",
"1037.36 711.37 OFFCURVE",
"941.184 807.546 OFFCURVE",
"941.184 926.185 CURVE SMOOTH",
"941.184 1044.82 OFFCURVE",
"1037.36 1141 OFFCURVE",
"1156 1141 CURVE SMOOTH"
);
},
{
closed = 1;
nodes = (
"776.457 1061 OFFCURVE",
"866 971.457 OFFCURVE",
"866 861 CURVE SMOOTH",
"866 750.543 OFFCURVE",
"776.457 661 OFFCURVE",
"666 661 CURVE SMOOTH",
"555.543 661 OFFCURVE",
"466 750.543 OFFCURVE",
"466 861 CURVE SMOOTH",
"466 971.457 OFFCURVE",
"555.543 1061 OFFCURVE",
"666 1061 CURVE SMOOTH"
);
},
{
closed = 1;
nodes = (
"1827.39 703 OFFCURVE",
"1942 588.385 OFFCURVE",
"1942 447 CURVE SMOOTH",
"1942 306 LINE",
"1430 306 LINE",
"1430 447 LINE SMOOTH",
"1430 588.385 OFFCURVE",
"1544.61 703 OFFCURVE",
"1686 703 CURVE SMOOTH"
);
},
{
closed = 1;
nodes = (
"1284.13 661 OFFCURVE",
"1388 557.13 OFFCURVE",
"1388 429 CURVE SMOOTH",
"1388 306 LINE",
"924 306 LINE",
"924 429 LINE SMOOTH",
"924 557.13 OFFCURVE",
"1027.87 661 OFFCURVE",
"1156 661 CURVE SMOOTH"
);
},
{
closed = 1;
nodes = (
"785.293 619 OFFCURVE",
"882 522.293 OFFCURVE",
"882 403 CURVE SMOOTH",
"882 306 LINE",
"450 306 LINE",
"450 403 LINE SMOOTH",
"450 522.293 OFFCURVE",
"546.706 619 OFFCURVE",
"666 619 CURVE SMOOTH"
);
}
);
width = 2400;
}
);
unicode = E266;
},
{
glyphname = uniE26F;
lastChange = "2013-12-12 22:01:21 +1000";
layers = (
{
layerId = "06D35582-4FA2-40C1-8C5B-DEFCD1A2473F";
name = Regular;
paths = (
{
closed = 1;
nodes = (
"720 1435 LINE",
"720 1359.4 LINE",
"720.531 1352.01 OFFCURVE",
"720.684 1344.01 OFFCURVE",
"725.13 1336.48 CURVE SMOOTH",
"736.023 1318.04 OFFCURVE",
"787.723 1270.81 OFFCURVE",
"787.723 1270.81 CURVE",
"787.723 267.19 LINE",
"787.723 267.19 OFFCURVE",
"736.023 219.953 OFFCURVE",
"725.13 201.514 CURVE SMOOTH",
"720.684 193.988 OFFCURVE",
"720.531 185.992 OFFCURVE",
"720 178.596 CURVE",
"720 103 LINE",
"1089.4 103 LINE",
"1089.4 178.596 LINE",
"1088.87 185.992 OFFCURVE",
"1088.72 193.988 OFFCURVE",
"1084.27 201.514 CURVE SMOOTH",
"1073.38 219.953 OFFCURVE",
"1021.68 267.19 OFFCURVE",
"1021.68 267.19 CURVE",
"1021.68 531.948 LINE",
"1286.69 531.948 LINE SMOOTH",
"1579.98 531.948 OFFCURVE",
"1820 686.651 OFFCURVE",
"1820 987.578 CURVE SMOOTH",
"1820 1259.94 OFFCURVE",
"1623.78 1435 OFFCURVE",
"1313.35 1435 CURVE SMOOTH"
);
},
{
closed = 1;
nodes = (
"1294.34 1223.6 LINE SMOOTH",
"1469.57 1223.61 OFFCURVE",
"1583.99 1141.66 OFFCURVE",
"1583.99 983.475 CURVE SMOOTH",
"1583.99 840.541 OFFCURVE",
"1471.47 743.346 OFFCURVE",
"1294.34 743.346 CURVE SMOOTH",
"1021.68 743.346 LINE",
"1021.68 1223.6 LINE"
);
}
);
width = 2400;
}
);
unicode = E26F;
},
{
glyphname = uniE276;
lastChange = "2013-11-26 04:31:00 +1000";
layers = (
{
layerId = "06D35582-4FA2-40C1-8C5B-DEFCD1A2473F";
name = Regular;
paths = (
{
closed = 1;
nodes = (
"891.617 1520 LINE SMOOTH",
"833.541 1520 OFFCURVE",
"800.127 1486.49 OFFCURVE",
"787.763 1437.6 CURVE SMOOTH",
"521.734 285.695 LINE SMOOTH",
"512 241.829 OFFCURVE",
"537.964 212.983 OFFCURVE",
"575.457 212.983 CURVE SMOOTH",
"764.694 212.983 LINE SMOOTH",
"817.773 212.983 OFFCURVE",
"848.01 241.19 OFFCURVE",
"861.041 290.291 CURVE SMOOTH",
"923.349 555.098 LINE SMOOTH",
"941.232 624.329 OFFCURVE",
"988.541 638.708 OFFCURVE",
"1028.34 638.708 CURVE SMOOTH",
"1070.07 638.708 LINE SMOOTH",
"1301.86 638.708 OFFCURVE",
"1482.28 686.395 OFFCURVE",
"1611.34 781.785 CURVE SMOOTH",
"1740.4 877.166 OFFCURVE",
"1804.93 1002.69 OFFCURVE",
"1804.93 1158.36 CURVE SMOOTH",
"1804.93 1226.82 OFFCURVE",
"1792.93 1284.02 OFFCURVE",
"1768.93 1329.96 CURVE SMOOTH",
"1744.93 1375.89 OFFCURVE",
"1710.09 1413.2 OFFCURVE",
"1664.44 1441.88 CURVE SMOOTH",
"1618.19 1470.55 OFFCURVE",
"1563.29 1490.74 OFFCURVE",
"1499.78 1502.45 CURVE SMOOTH",
"1436.25 1514.14 OFFCURVE",
"1361.76 1520 OFFCURVE",
"1276.3 1520 CURVE SMOOTH"
);
},
{
closed = 1;
nodes = (
"1225.19 1275.98 LINE SMOOTH",
"1297.88 1275.98 OFFCURVE",
"1352.7 1263.69 OFFCURVE",
"1389.64 1239.11 CURVE SMOOTH",
"1426.57 1214.54 OFFCURVE",
"1445.04 1176.79 OFFCURVE",
"1445.04 1125.88 CURVE SMOOTH",
"1445.04 1048.63 OFFCURVE",
"1416.47 989.083 OFFCURVE",
"1359.35 947.254 CURVE SMOOTH",
"1302.21 905.408 OFFCURVE",
"1222.39 884.485 OFFCURVE",
"1119.86 884.485 CURVE SMOOTH",
"1100.47 884.485 LINE SMOOTH",
"1088.54 884.485 OFFCURVE",
"993.156 872.606 OFFCURVE",
"1019.07 973.792 CURVE SMOOTH",
"1069.11 1190.33 LINE SMOOTH",
"1084.08 1246.42 OFFCURVE",
"1117.77 1275.68 OFFCURVE",
"1170.86 1275.98 CURVE SMOOTH"
);
},
{
closed = 1;
nodes = (
"1830.31 1270.88 OFFCURVE",
"1827.86 1272.02 OFFCURVE",
"1828.93 1269.97 CURVE SMOOTH",
"1852.93 1224.02 OFFCURVE",
"1864.93 1166.82 OFFCURVE",
"1864.93 1098.36 CURVE SMOOTH",
"1864.93 942.692 OFFCURVE",
"1800.4 817.166 OFFCURVE",
"1671.34 721.785 CURVE SMOOTH",
"1542.28 626.395 OFFCURVE",
"1361.86 578.708 OFFCURVE",
"1130.07 578.708 CURVE SMOOTH",
"1088.34 578.708 LINE SMOOTH",
"1048.54 578.708 OFFCURVE",
"1001.23 564.329 OFFCURVE",
"983.349 495.098 CURVE SMOOTH",
"921.041 230.291 LINE SMOOTH",
"908.01 181.19 OFFCURVE",
"877.773 152.983 OFFCURVE",
"824.694 152.983 CURVE SMOOTH",
"690.957 152.983 LINE",
"683.27 119.539 LINE SMOOTH",
"673.541 75.674 OFFCURVE",
"699.5 46.829 OFFCURVE",
"736.998 46.829 CURVE SMOOTH",
"926.232 46.829 LINE SMOOTH",
"979.309 46.829 OFFCURVE",
"1009.55 75.036 OFFCURVE",
"1022.58 124.138 CURVE SMOOTH",
"1084.88 388.946 LINE SMOOTH",
"1102.77 458.174 OFFCURVE",
"1150.08 472.553 OFFCURVE",
"1189.88 472.553 CURVE SMOOTH",
"1231.61 472.553 LINE SMOOTH",
"1463.39 472.553 OFFCURVE",
"1643.82 520.238 OFFCURVE",
"1772.88 615.629 CURVE SMOOTH",
"1901.94 711.013 OFFCURVE",
"1966.47 836.537 OFFCURVE",
"1966.47 992.204 CURVE SMOOTH",
"1966.47 1060.67 OFFCURVE",
"1954.47 1113.25 OFFCURVE",
"1930.47 1159.19 CURVE SMOOTH",
"1906.47 1205.13 OFFCURVE",
"1874.29 1235 OFFCURVE",
"1830.44 1270.77 CURVE SMOOTH"
);
}
);
width = 2400;
}
);
unicode = E276;
},
{
glyphname = uniE27F;
lastChange = "2014-02-02 01:39:56 +1000";
layers = (
{
layerId = "06D35582-4FA2-40C1-8C5B-DEFCD1A2473F";
name = Regular;
paths = (
{
closed = 1;
nodes = (
"1033.44 1653 OFFCURVE",
"877.645 1606.92 OFFCURVE",
"744.647 1526.84 CURVE",
"1483.64 990.257 LINE SMOOTH",
"1529.59 956.864 OFFCURVE",
"1562 968.254 OFFCURVE",
"1578.66 1019.51 CURVE SMOOTH",
"1727.67 1478.29 LINE",
"1580.4 1588.04 OFFCURVE",
"1397.79 1653 OFFCURVE",
"1200 1653 CURVE SMOOTH"
);
},
{
closed = 1;
nodes = (
"688.66 1490.18 LINE",
"463.142 1330 OFFCURVE",
"316 1066.68 OFFCURVE",
"316 769 CURVE SMOOTH",
"316 700.736 OFFCURVE",
"323.744 634.281 OFFCURVE",
"338.39 570.461 CURVE",
"1077.13 1107.15 LINE SMOOTH",
"1123.1 1140.52 OFFCURVE",
"1122.27 1174.85 OFFCURVE",
"1078.67 1206.52 CURVE SMOOTH"
);
},
{
closed = 1;
nodes = (
"1498.05 567.639 LINE SMOOTH",
"1480.49 513.629 OFFCURVE",
"1501.34 486.342 OFFCURVE",
"1555.25 486.344 CURVE SMOOTH",
"2037.84 486.342 LINE",
"2067.77 575.094 OFFCURVE",
"2084 670.151 OFFCURVE",
"2084 769 CURVE SMOOTH",
"2084 1035.24 OFFCURVE",
"1966.29 1273.98 OFFCURVE",
"1780.09 1436.05 CURVE"
);
},
{
closed = 1;
nodes = (
"355.981 505.377 LINE",
"460.75 169.596 OFFCURVE",
"760.371 -80 OFFCURVE",
"1122.5 -112 CURVE",
"840.314 756.768 LINE SMOOTH",
"822.766 810.785 OFFCURVE",
"789.858 820.607 OFFCURVE",
"746.246 788.935 CURVE SMOOTH"
);
},
{
closed = 1;
nodes = (
"1100.46 423.338 LINE SMOOTH",
"1043.65 423.346 OFFCURVE",
"1024.14 395.094 OFFCURVE",
"1040.79 343.848 CURVE SMOOTH",
"1189.88 -115 LINE",
"1200 -115 LINE SMOOTH",
"1565.58 -115 OFFCURVE",
"1879.33 106.924 OFFCURVE",
"2013.88 423.399 CURVE"
);
}
);
width = 2400;
}
);
unicode = E27F;
},
{
glyphname = uniE280;
lastChange = "2014-02-02 01:39:56 +1000";
layers = (
{
layerId = "06D35582-4FA2-40C1-8C5B-DEFCD1A2473F";
name = Regular;
paths = (
{
closed = 1;
nodes = (
"701.425 1667.12 OFFCURVE",
"298.481 1264.18 OFFCURVE",
"298.481 767.121 CURVE SMOOTH",
"298.481 270.064 OFFCURVE",
"701.425 -133 OFFCURVE",
"1198.48 -133 CURVE SMOOTH",
"1695.54 -133 OFFCURVE",
"2098.48 270.064 OFFCURVE",
"2098.48 767.121 CURVE SMOOTH",
"2098.48 1264.18 OFFCURVE",
"1695.54 1667.12 OFFCURVE",
"1198.48 1667.12 CURVE SMOOTH"
);
},
{
closed = 1;
nodes = (
"818.719 796.141 OFFCURVE",
"830.481 780.476 OFFCURVE",
"838.794 754.887 CURVE SMOOTH",
"1081.51 7.971 LINE",
"776.102 54.642 OFFCURVE",
"529.903 281.205 OFFCURVE",
"454.423 576.127 CURVE",
"744.051 787.341 LINE SMOOTH",
"767.318 804.238 OFFCURVE",
"787.539 809.319 OFFCURVE",
"804.007 802.181 CURVE SMOOTH"
);
},
{
closed = 1;
nodes = (
"1884.49 421.51 LINE",
"1758.01 170.953 OFFCURVE",
"1498.32 -1 OFFCURVE",
"1198.48 -1 CURVE SMOOTH",
"1182.26 -1 OFFCURVE",
"1166.17 0 OFFCURVE",
"1150.2 0.618 CURVE",
"1149.85 1.7 LINE",
"1038.59 342.244 LINE SMOOTH",
"1021.93 393.496 OFFCURVE",
"1041.44 421.75 OFFCURVE",
"1098.26 421.74 CURVE SMOOTH",
"1882.39 421.808 LINE"
);
},
{
closed = 1;
nodes = (
"1077.15 1204.64 LINE SMOOTH",
"1120.75 1172.97 OFFCURVE",
"1121.58 1138.64 OFFCURVE",
"1075.61 1105.27 CURVE SMOOTH",
"440.349 643.758 LINE",
"433.864 683.922 OFFCURVE",
"430.48 725.126 OFFCURVE",
"430.48 767.12 CURVE",
"430.48 1039.88 OFFCURVE",
"572.683 1279.43 OFFCURVE",
"786.99 1415.68 CURVE"
);
},
{
closed = 1;
nodes = (
"1527.5 875.639 LINE",
"1401.57 488.054 LINE",
"994.033 488.054 LINE",
"868.098 875.639 LINE",
"1197.8 1115.18 LINE"
);
},
{
closed = 1;
nodes = (
"1384.51 1535.12 OFFCURVE",
"1555.09 1468.97 OFFCURVE",
"1687.99 1358.92 CURVE",
"1577.14 1017.63 LINE SMOOTH",
"1563.56 975.841 OFFCURVE",
"1539.5 960.557 OFFCURVE",
"1506.17 974.434 CURVE SMOOTH",
"1498.43 977.578 OFFCURVE",
"1490.18 982.305 OFFCURVE",
"1481.43 988.658 CURVE SMOOTH",
"847.015 1449.37 LINE",
"951.956 1504.35 OFFCURVE",
"1071.62 1535.12 OFFCURVE",
"1198.48 1535.12 CURVE SMOOTH"
);
},
{
closed = 1;
nodes = (
"1879.5 1173.43 OFFCURVE",
"1966.48 980.437 OFFCURVE",
"1966.48 767.12 CURVE SMOOTH",
"1966.48 667.308 OFFCURVE",
"1947.43 571.946 OFFCURVE",
"1912.79 484.462 CURVE",
"1553.73 484.464 LINE SMOOTH",
"1538.51 484.464 OFFCURVE",
"1525.93 486.641 OFFCURVE",
"1516.1 490.976 CURVE SMOOTH",
"1490.57 501.849 OFFCURVE",
"1483.13 526.934 OFFCURVE",
"1495.85 566.042 CURVE SMOOTH",
"1738.1 1311.6 LINE",
"1739.09 1312.6 LINE"
);
}
);
width = 2400;
}
);
unicode = E280;
},
{
glyphname = uniE28F;
lastChange = "2013-11-26 04:25:59 +1000";
layers = (
{
layerId = "06D35582-4FA2-40C1-8C5B-DEFCD1A2473F";
name = Regular;
paths = (
{
closed = 1;
nodes = (
"398 1048.57 LINE",
"473.97 1039.94 OFFCURVE",
"551.577 1049.14 OFFCURVE",
"624.047 1076.17 CURVE",
"1032.31 576.049 LINE",
"986.803 478.959 OFFCURVE",
"964.555 376.889 OFFCURVE",
"966.532 279.259 CURVE",
"1295.88 608.613 LINE",
"1982.69 -12 LINE",
"1998 3.51611 LINE",
"1377.59 690.316 LINE",
"1706.94 1019.67 LINE",
"1609.31 1021.65 OFFCURVE",
"1507.24 999.399 OFFCURVE",
"1410.15 953.894 CURVE",
"910.031 1362.15 LINE",
"937.061 1434.62 OFFCURVE",
"946.265 1512.23 OFFCURVE",
"937.63 1588.2 CURVE"
);
}
);
width = 2400;
}
);
unicode = E28F;
},
{
glyphname = uniE296;
lastChange = "2013-11-26 04:25:43 +1000";
layers = (
{
layerId = "06D35582-4FA2-40C1-8C5B-DEFCD1A2473F";
name = Regular;
paths = (
{
closed = 1;
nodes = (
"1687.94 1568 OFFCURVE",
"1978 1249.07 OFFCURVE",
"1978 906.61 CURVE SMOOTH",
"1978 453.724 OFFCURVE",
"1726.21 115.387 OFFCURVE",
"1355.07 115.387 CURVE SMOOTH",
"1230.41 115.387 OFFCURVE",
"1113.17 182.78 OFFCURVE",
"1073.07 259.281 CURVE",
"1073.07 259.281 OFFCURVE",
"1006.01 -7 OFFCURVE",
"991.845 -58 CURVE SMOOTH",
"941.866 -239 OFFCURVE",
"794.799 -421 OFFCURVE",
"783.413 -436 CURVE SMOOTH",
"775.445 -446 OFFCURVE",
"757.848 -443 OFFCURVE",
"755.99 -430 CURVE SMOOTH",
"752.809 -406 OFFCURVE",
"715.33 -178 OFFCURVE",
"759.449 9.11 CURVE SMOOTH",
"907.942 638.57 LINE",
"907.942 638.57 OFFCURVE",
"871.113 712.292 OFFCURVE",
"871.113 821.251 CURVE SMOOTH",
"871.113 992.353 OFFCURVE",
"970.297 1120.08 OFFCURVE",
"1093.76 1120.08 CURVE SMOOTH",
"1198.75 1120.08 OFFCURVE",
"1249.48 1041.26 OFFCURVE",
"1249.48 946.757 CURVE SMOOTH",
"1249.48 841.193 OFFCURVE",
"1182.25 683.353 OFFCURVE",
"1147.55 537.089 CURVE SMOOTH",
"1118.57 414.591 OFFCURVE",
"1208.98 314.701 OFFCURVE",
"1329.76 314.701 CURVE SMOOTH",
"1548.45 314.701 OFFCURVE",
"1695.78 595.666 OFFCURVE",
"1695.78 928.542 CURVE SMOOTH",
"1695.78 1181.53 OFFCURVE",
"1525.44 1370.97 OFFCURVE",
"1215.42 1370.97 CURVE SMOOTH",
"865.29 1370.97 OFFCURVE",
"646.994 1109.78 OFFCURVE",
"646.994 818.019 CURVE SMOOTH",
"646.994 717.477 OFFCURVE",
"676.709 646.478 OFFCURVE",
"723.208 591.631 CURVE SMOOTH",
"744.543 566.379 OFFCURVE",
"747.536 556.231 OFFCURVE",
"739.808 527.281 CURVE SMOOTH",
"716.218 434.635 LINE SMOOTH",
"708.551 405.358 OFFCURVE",
"684.864 394.921 OFFCURVE",
"658.433 405.733 CURVE SMOOTH",
"497.188 471.562 OFFCURVE",
"422 648.228 OFFCURVE",
"422 846.791 CURVE SMOOTH",
"422 1174.73 OFFCURVE",
"698.58 1568 OFFCURVE",
"1247.1 1568 CURVE SMOOTH"
);
}
);
width = 2400;
}
);
unicode = E296;
},
{
glyphname = uniE30F;
lastChange = "2013-11-26 04:24:34 +1000";
layers = (
{
layerId = "06D35582-4FA2-40C1-8C5B-DEFCD1A2473F";
name = Regular;
paths = (
{
closed = 1;
nodes = (
"710.062 1530.98 OFFCURVE",
"359.997 1186.28 OFFCURVE",
"359.997 761.067 CURVE SMOOTH",
"359.997 323.291 OFFCURVE",
"710.062 -9 OFFCURVE",
"1158.82 -9 CURVE SMOOTH",
"1607.57 -9 OFFCURVE",
"1960 329.571 OFFCURVE",
"1960 761.067 CURVE SMOOTH",
"1960 797.386 OFFCURVE",
"1952.91 864.244 OFFCURVE",
"1952.91 864.244 CURVE",
"2064.47 898.619 OFFCURVE",
"2177.65 975.2 OFFCURVE",
"2214.21 1080.98 CURVE SMOOTH",
"2224.47 1110.66 OFFCURVE",
"2232.06 1150.76 OFFCURVE",
"2214.11 1169.8 CURVE SMOOTH",
"2195.98 1189.04 OFFCURVE",
"2147.37 1182.54 OFFCURVE",
"2108.38 1186.6 CURVE SMOOTH",
"1999.09 1197.96 OFFCURVE",
"1895.35 1245.93 OFFCURVE",
"1803.19 1292.22 CURVE SMOOTH",
"1704.25 1341.91 OFFCURVE",
"1630.58 1402.19 OFFCURVE",
"1541.25 1441.05 CURVE",
"1545.06 1435.74 LINE",
"1541.25 1437.77 LINE",
"1541.25 951.352 LINE",
"1541.25 951.352 OFFCURVE",
"1541.85 839.468 OFFCURVE",
"1536.33 786.22 CURVE SMOOTH",
"1526.79 694.345 OFFCURVE",
"1468.04 605.253 OFFCURVE",
"1406.68 548.075 CURVE SMOOTH",
"1327.61 474.399 OFFCURVE",
"1210.51 420.153 OFFCURVE",
"1065.44 432.851 CURVE SMOOTH",
"916.669 445.867 OFFCURVE",
"769.907 543.446 OFFCURVE",
"777.064 716.105 CURVE SMOOTH",
"781.366 819.924 OFFCURVE",
"844.415 914.456 OFFCURVE",
"909.233 972.862 CURVE SMOOTH",
"1026.84 1078.84 OFFCURVE",
"1215.71 1137.05 OFFCURVE",
"1387.45 1054.57 CURVE",
"1387.45 1499.12 LINE",
"1314.99 1519.82 OFFCURVE",
"1238.27 1530.99 OFFCURVE",
"1158.82 1530.99 CURVE SMOOTH"
);
}
);
width = 2400;
}
);
unicode = E30F;
},
{
glyphname = uniE316;
lastChange = "2014-01-21 22:38:44 +1000";
layers = (
{
layerId = "06D35582-4FA2-40C1-8C5B-DEFCD1A2473F";
name = Regular;
paths = (
{
closed = 1;
nodes = (
"1767.62 1680 OFFCURVE",
"1702.18 1636.13 OFFCURVE",
"1671.82 1574.91 CURVE",
"1348.61 1650.97 LINE SMOOTH",
"1326.17 1656.26 OFFCURVE",
"1299.92 1641.34 OFFCURVE",
"1292.97 1619.38 CURVE SMOOTH",
"1167.78 1223.87 LINE",
"960.083 1219.37 OFFCURVE",
"763.412 1165.18 OFFCURVE",
"611.963 1070.45 CURVE",
"573.54 1101.46 OFFCURVE",
"523.126 1120.75 OFFCURVE",
"470.116 1120.75 CURVE SMOOTH",
"347.45 1120.75 OFFCURVE",
"244.666 1017.98 OFFCURVE",
"244.666 895.339 CURVE SMOOTH",
"244.666 818.261 OFFCURVE",
"285.427 748.01 OFFCURVE",
"345.097 707.957 CURVE",
"342.316 688.924 OFFCURVE",
"340.837 669.407 OFFCURVE",
"340.837 650.087 CURVE SMOOTH",
"340.837 493.603 OFFCURVE",
"433.788 345.658 OFFCURVE",
"598.884 237.997 CURVE SMOOTH",
"758.73 133.758 OFFCURVE",
"975.763 75.996 OFFCURVE",
"1199.96 75.996 CURVE SMOOTH",
"1424.21 75.996 OFFCURVE",
"1633.45 133.747 OFFCURVE",
"1793.33 237.997 CURVE SMOOTH",
"1958.4 345.653 OFFCURVE",
"2051.36 493.596 OFFCURVE",
"2051.36 650.086 CURVE SMOOTH",
"2051.36 667.859 OFFCURVE",
"2050.11 685.829 OFFCURVE",
"2047.76 703.388 CURVE",
"2111.36 742.712 OFFCURVE",
"2155.34 815.294 OFFCURVE",
"2155.34 895.341 CURVE SMOOTH",
"2155.34 1017.99 OFFCURVE",
"2052.49 1120.75 OFFCURVE",
"1929.78 1120.75 CURVE SMOOTH",
"1875.27 1120.75 OFFCURVE",
"1823.57 1100.33 OFFCURVE",
"1784.68 1067.7 CURVE",
"1642.68 1157.75 OFFCURVE",
"1460.13 1211.85 OFFCURVE",
"1265.94 1222.27 CURVE",
"1369.52 1549.44 LINE",
"1652.88 1482.75 LINE",
"1658.12 1385.24 OFFCURVE",
"1741.77 1304.82 OFFCURVE",
"1840.41 1304.82 CURVE SMOOTH",
"1942.21 1304.82 OFFCURVE",
"2028.04 1390.62 OFFCURVE",
"2028.04 1492.39 CURVE SMOOTH",
"2028.04 1594.19 OFFCURVE",
"1942.21 1680 OFFCURVE",
"1840.41 1680 CURVE SMOOTH"
);
},
{
closed = 1;
nodes = (
"1891.56 1585.95 OFFCURVE",
"1933.94 1543.55 OFFCURVE",
"1933.94 1492.39 CURVE SMOOTH",
"1933.94 1441.23 OFFCURVE",
"1891.57 1398.86 OFFCURVE",
"1840.41 1398.86 CURVE SMOOTH",
"1789.16 1398.86 OFFCURVE",
"1746.7 1441.25 OFFCURVE",
"1746.7 1492.39 CURVE SMOOTH",
"1746.7 1543.55 OFFCURVE",
"1789.16 1585.95 OFFCURVE",
"1840.41 1585.95 CURVE SMOOTH"
);
},
{
closed = 1;
nodes = (
"1407.62 1130.13 OFFCURVE",
"1596.47 1078.23 OFFCURVE",
"1741.9 983.39 CURVE SMOOTH",
"1882.15 891.933 OFFCURVE",
"1957.28 775.117 OFFCURVE",
"1957.28 650.086 CURVE SMOOTH",
"1957.28 525.03 OFFCURVE",
"1882.15 408.202 OFFCURVE",
"1741.9 316.744 CURVE SMOOTH",
"1596.49 221.927 OFFCURVE",
"1407.61 170.035 OFFCURVE",
"1199.96 170.035 CURVE SMOOTH",
"992.407 170.035 OFFCURVE",
"795.713 221.914 OFFCURVE",
"650.294 316.743 CURVE SMOOTH",
"510.044 408.212 OFFCURVE",
"434.917 525.043 OFFCURVE",
"434.917 650.084 CURVE SMOOTH",
"434.917 775.107 OFFCURVE",
"510.045 891.924 OFFCURVE",
"650.297 983.39 CURVE SMOOTH",
"795.726 1078.24 OFFCURVE",
"992.451 1130.13 OFFCURVE",
"1199.99 1130.13 CURVE SMOOTH"
);
},
{
closed = 1;
nodes = (
"492.444 1026.7 OFFCURVE",
"512.577 1021.56 OFFCURVE",
"530.584 1012.02 CURVE",
"457.241 951.347 OFFCURVE",
"403.241 880.961 OFFCURVE",
"372.524 806.57 CURVE",
"351.264 830.421 OFFCURVE",
"338.745 860.595 OFFCURVE",
"338.745 895.331 CURVE SMOOTH",
"338.745 967.364 OFFCURVE",
"398.084 1026.7 OFFCURVE",
"470.111 1026.7 CURVE SMOOTH"
);
},
{
closed = 1;
nodes = (
"2001.88 1026.71 OFFCURVE",
"2061.24 967.366 OFFCURVE",
"2061.24 895.336 CURVE SMOOTH",
"2061.24 857.807 OFFCURVE",
"2046.61 825.438 OFFCURVE",
"2021.78 801.599 CURVE",
"1991.49 877.119 OFFCURVE",
"1937.93 948.21 OFFCURVE",
"1864.74 1009.47 CURVE",
"1883.88 1020.63 OFFCURVE",
"1905.56 1026.71 OFFCURVE",
"1929.78 1026.71 CURVE SMOOTH"
);
},
{
closed = 1;
nodes = (
"842.336 888.002 OFFCURVE",
"781.943 827.603 OFFCURVE",
"781.943 754.588 CURVE SMOOTH",
"781.943 681.637 OFFCURVE",
"842.337 621.289 OFFCURVE",
"915.346 621.289 CURVE SMOOTH",
"988.344 621.289 OFFCURVE",
"1048.72 681.637 OFFCURVE",
"1048.72 754.588 CURVE SMOOTH",
"1048.72 827.602 OFFCURVE",
"988.345 888.002 OFFCURVE",
"915.346 888.002 CURVE SMOOTH"
);
},
{
closed = 1;
nodes = (
"1411.17 888 OFFCURVE",
"1350.83 827.599 OFFCURVE",
"1350.83 754.585 CURVE SMOOTH",
"1350.83 681.634 OFFCURVE",
"1411.17 621.285 OFFCURVE",
"1484.13 621.285 CURVE SMOOTH",
"1557.09 621.285 OFFCURVE",
"1617.43 681.634 OFFCURVE",
"1617.43 754.585 CURVE SMOOTH",
"1617.43 827.599 OFFCURVE",
"1557.09 888 OFFCURVE",
"1484.13 888 CURVE SMOOTH"
);
},
{
closed = 1;
nodes = (
"874.374 439.966 OFFCURVE",
"874.359 411.178 OFFCURVE",
"890.382 395.137 CURVE SMOOTH",
"955.154 330.347 OFFCURVE",
"1058.35 298.593 OFFCURVE",
"1199.95 298.588 CURVE SMOOTH",
"1341.52 298.593 OFFCURVE",
"1444.75 330.339 OFFCURVE",
"1509.6 395.115 CURVE SMOOTH",
"1525.63 411.137 OFFCURVE",
"1525.64 439.934 OFFCURVE",
"1509.62 455.956 CURVE SMOOTH",
"1493.59 471.983 OFFCURVE",
"1464.78 471.991 OFFCURVE",
"1448.75 455.973 CURVE SMOOTH",
"1400.58 407.855 OFFCURVE",
"1319.67 384.635 OFFCURVE",
"1199.95 384.627 CURVE SMOOTH",
"1080.23 384.635 OFFCURVE",
"999.367 407.848 OFFCURVE",
"951.28 455.948 CURVE SMOOTH",
"935.258 471.981 OFFCURVE",
"906.445 472 OFFCURVE",
"890.409 455.979 CURVE SMOOTH"
);
}
);
width = 2400;
}
);
unicode = E316;
},
{
glyphname = uniE31F;
lastChange = "2013-12-10 01:24:13 +1000";
layers = (
{
layerId = "06D35582-4FA2-40C1-8C5B-DEFCD1A2473F";
name = Regular;
paths = (
{
closed = 1;
nodes = (
"1867.67 1594.4 OFFCURVE",
"1997.33 1464.73 OFFCURVE",
"1997.33 1304.77 CURVE SMOOTH",
"1997.33 1144.82 OFFCURVE",
"1867.67 1015.18 OFFCURVE",
"1707.73 1015.18 CURVE SMOOTH",
"1636.46 1015.18 OFFCURVE",
"1571.29 1041.03 OFFCURVE",
"1520.84 1083.72 CURVE",
"961.957 798.775 LINE",
"962.672 790.482 OFFCURVE",
"963.221 782.155 OFFCURVE",
"963.221 773.678 CURVE SMOOTH",
"963.221 758.65 OFFCURVE",
"961.718 744.006 OFFCURVE",
"959.506 729.58 CURVE",
"1513.17 447.287 LINE",
"1564.61 494.06 OFFCURVE",
"1632.72 522.822 OFFCURVE",
"1707.73 522.822 CURVE SMOOTH",
"1867.67 522.822 OFFCURVE",
"1997.33 393.168 OFFCURVE",
"1997.33 233.211 CURVE SMOOTH",
"1997.33 73.2581 OFFCURVE",
"1867.67 -56 OFFCURVE",
"1707.73 -56 CURVE SMOOTH",
"1547.77 -56 OFFCURVE",
"1418.11 73.2581 OFFCURVE",
"1418.11 233.211 CURVE",
"1418.89 248.771 LINE",
"845.608 541.052 LINE",
"797.501 505.412 OFFCURVE",
"738.12 484.065 OFFCURVE",
"673.629 484.065 CURVE SMOOTH",
"513.678 484.065 OFFCURVE",
"384 613.727 OFFCURVE",
"384 773.678 CURVE SMOOTH",
"384 933.632 OFFCURVE",
"513.678 1063.29 OFFCURVE",
"673.629 1063.29 CURVE SMOOTH",
"745.275 1063.29 OFFCURVE",
"810.72 1037.15 OFFCURVE",
"861.276 994.04 CURVE",
"1419.43 1278.63 LINE",
"1418.66 1287.26 OFFCURVE",
"1418.11 1295.95 OFFCURVE",
"1418.11 1304.77 CURVE SMOOTH",
"1418.11 1464.73 OFFCURVE",
"1547.77 1594.4 OFFCURVE",
"1707.73 1594.4 CURVE SMOOTH"
);
}
);
width = 2400;
}
);
unicode = E31F;
},
{
glyphname = uniE326;
lastChange = "2013-11-26 04:23:24 +1000";
layers = (
{
layerId = "06D35582-4FA2-40C1-8C5B-DEFCD1A2473F";
name = Regular;
paths = (
{
closed = 1;
nodes = (
"522.602 1669.16 OFFCURVE",
"299.998 1446.53 OFFCURVE",
"299.998 1171.88 CURVE SMOOTH",
"299.998 1082.47 OFFCURVE",
"323.602 998.597 OFFCURVE",
"364.894 926.099 CURVE",
"355.377 875.18 OFFCURVE",
"350.348 822.686 OFFCURVE",
"350.348 769 CURVE SMOOTH",
"350.348 299.675 OFFCURVE",
"730.751 -81 OFFCURVE",
"1200 -81 CURVE SMOOTH",
"1253.67 -81 OFFCURVE",
"1306.15 -76 OFFCURVE",
"1357.06 -67 CURVE",
"1429.54 -107 OFFCURVE",
"1513.41 -131 OFFCURVE",
"1602.8 -131 CURVE SMOOTH",
"1877.4 -131 OFFCURVE",
"2100 91.493 OFFCURVE",
"2100 366.141 CURVE SMOOTH",
"2100 455.544 OFFCURVE",
"2076.4 539.428 OFFCURVE",
"2035.1 611.923 CURVE",
"2044.62 662.84 OFFCURVE",
"2049.65 715.332 OFFCURVE",
"2049.65 769 CURVE SMOOTH",
"2049.65 1238.35 OFFCURVE",
"1669.25 1618.81 OFFCURVE",
"1200 1618.81 CURVE SMOOTH",
"1146.33 1618.81 OFFCURVE",
"1093.85 1613.78 OFFCURVE",
"1042.94 1604.26 CURVE",
"970.455 1645.56 OFFCURVE",
"886.59 1669.16 OFFCURVE",
"797.201 1669.16 CURVE SMOOTH"
);
},
{
closed = 1;
nodes = (
"1398.06 1370.17 OFFCURVE",
"1629.68 1264.61 OFFCURVE",
"1639.2 1119.16 CURVE SMOOTH",
"1642.57 1067.76 OFFCURVE",
"1616.38 1007.19 OFFCURVE",
"1515.04 1005.75 CURVE SMOOTH",
"1414.48 1004.32 OFFCURVE",
"1406.64 1171.95 OFFCURVE",
"1193.19 1171.95 CURVE SMOOTH",
"1049.04 1171.95 OFFCURVE",
"996.384 1114.86 OFFCURVE",
"996.384 1044.28 CURVE SMOOTH",
"996.384 967.938 OFFCURVE",
"1087.06 944.824 OFFCURVE",
"1180.61 921.077 CURVE",
"1363.14 883.591 LINE SMOOTH",
"1525.53 847.319 OFFCURVE",
"1681.55 766.414 OFFCURVE",
"1684.56 573.133 CURVE SMOOTH",
"1688.87 296.643 OFFCURVE",
"1466.75 199.329 OFFCURVE",
"1229.81 199.329 CURVE SMOOTH",
"921.011 199.329 OFFCURVE",
"746.979 334.016 OFFCURVE",
"740.708 477.926 CURVE SMOOTH",
"737.913 542.086 OFFCURVE",
"774.013 590.94 OFFCURVE",
"856.294 590.94 CURVE SMOOTH",
"992.349 590.94 OFFCURVE",
"950.016 388.363 OFFCURVE",
"1217.78 388.363 CURVE SMOOTH",
"1322.13 388.363 OFFCURVE",
"1430.71 445.091 OFFCURVE",
"1425.99 538.64 CURVE SMOOTH",
"1421.15 634.282 OFFCURVE",
"1332.5 645.295 OFFCURVE",
"1219.78 673.482 CURVE SMOOTH",
"1047.19 718.26 LINE SMOOTH",
"918.42 750.078 OFFCURVE",
"747.295 807.54 OFFCURVE",
"747.295 1027.34 CURVE SMOOTH",
"747.295 1266.18 OFFCURVE",
"964.241 1370.17 OFFCURVE",
"1183.66 1370.17 CURVE SMOOTH"
);
}
);
width = 2400;
}
);
unicode = E326;
},
{
glyphname = uniE32F;
lastChange = "2014-01-16 23:37:48 +1000";
layers = (
{
layerId = "06D35582-4FA2-40C1-8C5B-DEFCD1A2473F";
name = Regular;
paths = (
{
closed = 1;
nodes = (
"600.042 1600 LINE SMOOTH",
"517.21 1600 OFFCURVE",
"450.042 1532.83 OFFCURVE",
"450.042 1450 CURVE SMOOTH",
"450.042 792.538 LINE",
"400.509 821.536 OFFCURVE",
"371.362 839.769 OFFCURVE",
"360 824.553 CURVE SMOOTH",
"310.313 758.04 OFFCURVE",
"481.504 595.256 OFFCURVE",
"622.285 543.752 CURVE SMOOTH",
"707.705 512.502 OFFCURVE",
"721.25 479.163 OFFCURVE",
"714.59 443.352 CURVE SMOOTH",
"705.41 394.114 OFFCURVE",
"699.293 356.272 OFFCURVE",
"699 275.002 CURVE SMOOTH",
"698.238 71.868 OFFCURVE",
"793.027 -23 OFFCURVE",
"921.25 -62 CURVE SMOOTH",
"974.375 -79 OFFCURVE",
"1050.54 -70 OFFCURVE",
"1050.54 -70 CURVE",
"1123.19 -52 OFFCURVE",
"1162 -33 OFFCURVE",
"1162 100.002 CURVE SMOOTH",
"1162 330.208 LINE SMOOTH",
"1162 378.879 OFFCURVE",
"1195.45 386.458 OFFCURVE",
"1238 384.555 CURVE",
"1238 100.002 LINE SMOOTH",
"1238 -33 OFFCURVE",
"1276.81 -52 OFFCURVE",
"1349.46 -70 CURVE",
"1349.46 -70 OFFCURVE",
"1425.62 -79 OFFCURVE",
"1478.75 -62 CURVE SMOOTH",
"1606.97 -23 OFFCURVE",
"1701.76 71.868 OFFCURVE",
"1701 275.002 CURVE SMOOTH",
"1700.71 356.272 OFFCURVE",
"1694.59 394.114 OFFCURVE",
"1685.41 443.352 CURVE SMOOTH",
"1678.75 479.163 OFFCURVE",
"1692.3 512.502 OFFCURVE",
"1777.72 543.752 CURVE SMOOTH",
"1918.5 595.256 OFFCURVE",
"2089.69 758.04 OFFCURVE",
"2040 824.553 CURVE SMOOTH",
"2028.64 839.76 OFFCURVE",
"1999.52 821.25 OFFCURVE",
"1950.04 792.009 CURVE",
"1950.04 1450 LINE SMOOTH",
"1950.04 1532.83 OFFCURVE",
"1882.87 1600 OFFCURVE",
"1800.04 1600 CURVE SMOOTH"
);
},
{
closed = 1;
nodes = (
"1787.54 1487.5 LINE SMOOTH",
"1815.16 1487.5 OFFCURVE",
"1837.54 1465.12 OFFCURVE",
"1837.54 1437.5 CURVE SMOOTH",
"1837.54 732.356 LINE",
"1756.25 695.713 OFFCURVE",
"1649.21 662.77 OFFCURVE",
"1513.12 662.77 CURVE SMOOTH",
"1341.27 662.502 LINE SMOOTH",
"1279.36 662.502 OFFCURVE",
"1238.29 612.478 OFFCURVE",
"1238 550.645 CURVE",
"1214.55 574.869 OFFCURVE",
"1193.96 606.298 OFFCURVE",
"1164 629.934 CURVE SMOOTH",
"1124.08 661.428 OFFCURVE",
"1058 660.77 OFFCURVE",
"1058 660.77 CURVE SMOOTH",
"1058 660.77 OFFCURVE",
"975.024 662.193 OFFCURVE",
"886.876 662.77 CURVE SMOOTH",
"750.834 663.661 OFFCURVE",
"643.823 696.754 OFFCURVE",
"562.542 733.271 CURVE",
"562.542 1437.5 LINE SMOOTH",
"562.542 1465.12 OFFCURVE",
"584.925 1487.5 OFFCURVE",
"612.542 1487.5 CURVE SMOOTH"
);
},
{
closed = 1;
nodes = (
"861.532 1112.77 OFFCURVE",
"772 1023.23 OFFCURVE",
"772 912.77 CURVE SMOOTH",
"772 802.311 OFFCURVE",
"861.532 712.77 OFFCURVE",
"972 712.77 CURVE SMOOTH",
"1082.45 712.77 OFFCURVE",
"1172 802.311 OFFCURVE",
"1172 912.77 CURVE SMOOTH",
"1172 1023.23 OFFCURVE",
"1082.45 1112.77 OFFCURVE",
"972 1112.77 CURVE SMOOTH"
);
},
{
closed = 1;
nodes = (
"1317.53 1112.77 OFFCURVE",
"1228 1023.23 OFFCURVE",
"1228 912.77 CURVE SMOOTH",
"1228 802.311 OFFCURVE",
"1317.53 712.77 OFFCURVE",
"1428 712.77 CURVE SMOOTH",
"1538.45 712.77 OFFCURVE",
"1628 802.311 OFFCURVE",
"1628 912.77 CURVE SMOOTH",
"1628 1023.23 OFFCURVE",
"1538.45 1112.77 OFFCURVE",
"1428 1112.77 CURVE SMOOTH"
);
}
);
width = 2400;
}
);
unicode = E32F;
},
{
glyphname = uniE336;
lastChange = "2014-01-17 18:50:58 +1000";
layers = (
{
layerId = "06D35582-4FA2-40C1-8C5B-DEFCD1A2473F";
name = Regular;
paths = (
{
closed = 1;
nodes = (
"1344.2 1319.6 OFFCURVE",
"1248 1298.86 OFFCURVE",
"1248 1269.86 CURVE SMOOTH",
"1248 457 LINE",
"1952.46 457 LINE SMOOTH",
"2124.67 457 OFFCURVE",
"2217.41 620.412 OFFCURVE",
"2189.88 751.098 CURVE SMOOTH",
"2163.44 876.653 OFFCURVE",
"2021.13 994.082 OFFCURVE",
"1853.82 926.929 CURVE",
"1840.01 1061.49 OFFCURVE",
"1778.65 1157.78 OFFCURVE",
"1693.25 1227.86 CURVE SMOOTH",
"1624.5 1284.26 OFFCURVE",
"1523.44 1328 OFFCURVE",
"1409.4 1322.66 CURVE SMOOTH"
);
},
{
closed = 1;
nodes = (
"1147 1230 OFFCURVE",
"1113 1230 OFFCURVE",
"1110 1192 CURVE SMOOTH",
"1109.86 1190.27 OFFCURVE",
"1064 710.016 OFFCURVE",
"1064 684 CURVE SMOOTH",
"1064 657.978 OFFCURVE",
"1105.85 453 OFFCURVE",
"1106 453 CURVE",
"1112 424 OFFCURVE",
"1148 424 OFFCURVE",
"1154 453 CURVE",
"1154 453 OFFCURVE",
"1196 657.978 OFFCURVE",
"1196 684 CURVE SMOOTH",
"1196 710.016 OFFCURVE",
"1150.14 1190.27 OFFCURVE",
"1150 1192 CURVE SMOOTH"
);
},
{
closed = 1;
nodes = (
"967 1162 OFFCURVE",
"935 1162 OFFCURVE",
"931 1126 CURVE SMOOTH",
"930.809 1124.28 OFFCURVE",
"886 710.016 OFFCURVE",
"886 684 CURVE SMOOTH",
"886 657.978 OFFCURVE",
"927 453 OFFCURVE",
"927 453 CURVE",
"933 424 OFFCURVE",
"969 424 OFFCURVE",
"975 453 CURVE",
"975 453 OFFCURVE",
"1016 657.978 OFFCURVE",
"1016 684 CURVE SMOOTH",
"1016 710.016 OFFCURVE",
"971.191 1124.28 OFFCURVE",
"971 1126 CURVE SMOOTH"
);
},
{
closed = 1;
nodes = (
"790 1159 OFFCURVE",
"758 1159 OFFCURVE",
"754 1123 CURVE SMOOTH",
"753.863 1121.77 OFFCURVE",
"710 710.018 OFFCURVE",
"710 684 CURVE SMOOTH",
"710 657.977 OFFCURVE",
"750 453 OFFCURVE",
"750 453 CURVE",
"756 424 OFFCURVE",
"792 424 OFFCURVE",
"798 453.1 CURVE",
"798 453 OFFCURVE",
"838 657.977 OFFCURVE",
"838 684 CURVE SMOOTH",
"838 710.018 OFFCURVE",
"794.192 1121.27 OFFCURVE",
"794 1123 CURVE SMOOTH"
);
},
{
closed = 1;
nodes = (
"615 1046 OFFCURVE",
"589 1046 OFFCURVE",
"584 1012 CURVE SMOOTH",
"583.599 1009.28 OFFCURVE",
"544 710.018 OFFCURVE",
"544 684 CURVE SMOOTH",
"544 657.977 OFFCURVE",
"582 451 OFFCURVE",
"582 451 CURVE",
"588 424 OFFCURVE",
"616 424 OFFCURVE",
"622 451 CURVE",
"622 451 OFFCURVE",
"662 657.977 OFFCURVE",
"662 684 CURVE SMOOTH",
"662 710.018 OFFCURVE",
"620.345 1009.66 OFFCURVE",
"620 1012 CURVE SMOOTH"
);
},
{
closed = 1;
nodes = (
"451 932 OFFCURVE",
"435 932 OFFCURVE",
"428 903 CURVE SMOOTH",
"427.596 901.327 OFFCURVE",
"390 710.018 OFFCURVE",
"390 684 CURVE SMOOTH",
"390 657.977 OFFCURVE",
"427 469 OFFCURVE",
"427 469 CURVE",
"432 447 OFFCURVE",
"454 447 OFFCURVE",
"459 469 CURVE",
"459 469 OFFCURVE",
"496 657.977 OFFCURVE",
"496 684 CURVE SMOOTH",
"496 710.018 OFFCURVE",
"458.404 901.328 OFFCURVE",
"458 903 CURVE SMOOTH"
);
},
{
closed = 1;
nodes = (
"301 884 OFFCURVE",
"287 884 OFFCURVE",
"282 864 CURVE SMOOTH",
"281.585 862.341 OFFCURVE",
"246 710 OFFCURVE",
"246 684 CURVE SMOOTH",
"246 657.993 OFFCURVE",
"282 496 OFFCURVE",
"282 496 CURVE",
"284.337 479 OFFCURVE",
"303.666 479 OFFCURVE",
"306 496 CURVE",
"306 496 OFFCURVE",
"342 657.993 OFFCURVE",
"342 684 CURVE SMOOTH",
"342 710 OFFCURVE",
"306.415 862.342 OFFCURVE",
"306 864 CURVE SMOOTH"
);
}
);
width = 2400;
}
);
unicode = E336;
},
{
glyphname = uniE33F;
lastChange = "2013-12-04 06:45:47 +1000";
layers = (
{
layerId = "06D35582-4FA2-40C1-8C5B-DEFCD1A2473F";
name = Regular;
paths = (
{
closed = 1;
nodes = (
"702.939 1669 OFFCURVE",
"300 1266.06 OFFCURVE",
"300 769 CURVE SMOOTH",
"300 271.939 OFFCURVE",
"702.939 -131 OFFCURVE",
"1200 -131 CURVE SMOOTH",
"1697.06 -131 OFFCURVE",
"2100 271.939 OFFCURVE",
"2100 769 CURVE SMOOTH",
"2100 1266.06 OFFCURVE",
"1697.06 1669 OFFCURVE",
"1200 1669 CURVE SMOOTH"
);
},
{
closed = 1;
nodes = (
"955.208 1269.26 OFFCURVE",
"1514.06 1247.03 OFFCURVE",
"1866.14 1035.92 CURVE SMOOTH",
"1908.37 1010.45 OFFCURVE",
"1921.97 955.907 OFFCURVE",
"1896.67 913.602 CURVE SMOOTH",
"1871.46 871.389 OFFCURVE",
"1816.76 857.785 OFFCURVE",
"1774.73 883.083 CURVE SMOOTH",
"1468.68 1066.58 OFFCURVE",
"962.617 1085.65 OFFCURVE",
"669.513 997.934 CURVE SMOOTH",
"622.252 983.852 OFFCURVE",
"572.724 1010.69 OFFCURVE",
"558.779 1057.78 CURVE SMOOTH",
"544.656 1104.87 OFFCURVE",
"571.355 1154.43 OFFCURVE",
"618.532 1168.51 CURVE SMOOTH"
);
},
{
closed = 1;
nodes = (
"1014.13 953.826 OFFCURVE",
"1443.61 901.019 OFFCURVE",
"1736.61 719.261 CURVE SMOOTH",
"1771.39 697.544 OFFCURVE",
"1782.1 651.889 OFFCURVE",
"1760.66 617.11 CURVE SMOOTH",
"1738.94 582.331 OFFCURVE",
"1693.2 571.623 OFFCURVE",
"1658.42 593.068 CURVE SMOOTH",
"1403.39 751.597 OFFCURVE",
"1013.46 798.725 OFFCURVE",
"710.528 708.3 CURVE SMOOTH",
"671.257 696.489 OFFCURVE",
"629.967 718.853 OFFCURVE",
"618.12 758.126 CURVE SMOOTH",
"606.401 797.395 OFFCURVE",
"628.716 838.74 OFFCURVE",
"667.981 850.367 CURVE SMOOTH"
);
},
{
closed = 1;
nodes = (
"1084.11 632.166 OFFCURVE",
"1372.44 595.051 OFFCURVE",
"1622.74 440.539 CURVE SMOOTH",
"1650.7 423.562 OFFCURVE",
"1659.24 387.05 OFFCURVE",
"1642.17 359.09 CURVE SMOOTH",
"1624.92 331.126 OFFCURVE",
"1588.19 322.498 OFFCURVE",
"1560.46 339.659 CURVE SMOOTH",
"1337.54 477.193 OFFCURVE",
"1078.86 509.299 OFFCURVE",
"747.267 435.057 CURVE SMOOTH",
"715.295 428.015 OFFCURVE",
"683.44 448.021 OFFCURVE",
"676.445 479.995 CURVE SMOOTH",
"669.307 511.973 OFFCURVE",
"689.311 543.655 OFFCURVE",
"721.285 550.789 CURVE SMOOTH"
);
}
);
width = 2400;
}
);
unicode = E33F;
},
{
glyphname = uniE346;
lastChange = "2014-02-02 01:41:08 +1000";
layers = (
{
layerId = "06D35582-4FA2-40C1-8C5B-DEFCD1A2473F";
name = Regular;
paths = (
{
closed = 1;
nodes = (
"1905.36 1802.22 LINE",
"1752.41 1776.65 LINE",
"1870.21 1071.5 LINE",
"2023.19 1097.06 LINE"
);
},
{
closed = 1;
nodes = (
"1421.65 1644.22 LINE",
"1295.59 1553.89 LINE",
"1711.98 972.723 LINE",
"1838.07 1063.05 LINE"
);
},
{
closed = 1;
nodes = (
"1073.56 1314.61 LINE",
"993.38 1181.86 LINE",
"1605.34 812.229 LINE",
"1685.52 944.982 LINE"
);
},
{
closed = 1;
nodes = (
"906.783 966.58 LINE",
"864.665 817.315 LINE",
"1552.71 623.117 LINE",
"1594.84 772.368 LINE"
);
},
{
closed = 1;
nodes = (
"1808 680 LINE",
"1673 680 LINE",
"1673 70 LINE",
"688 70 LINE",
"688 680 LINE",
"560 680 LINE",
"560 -68 LINE",
"1808 -68 LINE"
);
},
{
closed = 1;
nodes = (
"841.665 650.621 LINE",
"826.77 496.258 LINE",
"1538.39 427.55 LINE",
"1553.32 581.914 LINE"
);
},
{
closed = 1;
nodes = (
"1536 362.336 LINE",
"825 362.336 LINE",
"825 211 LINE",
"1536 211 LINE"
);
}
);
width = 2400;
}
);
unicode = E346;
},
{
glyphname = uniE356;
lastChange = "2013-12-04 18:28:08 +1000";
layers = (
{
layerId = "06D35582-4FA2-40C1-8C5B-DEFCD1A2473F";
name = Regular;
paths = (
{
closed = 1;
nodes = (
"1000.99 1408.99 OFFCURVE",
"839.086 1250.95 OFFCURVE",
"832 1053.68 CURVE",
"832 521.447 LINE SMOOTH",
"832 473.271 OFFCURVE",
"792.762 434.213 OFFCURVE",
"745 434.213 CURVE SMOOTH",
"696.822 434.213 OFFCURVE",
"658 473.271 OFFCURVE",
"658 521.447 CURVE SMOOTH",
"658 747 LINE",
"376 747 LINE",
"376 518.434 LINE SMOOTH",
"376 314.926 OFFCURVE",
"541.487 150 OFFCURVE",
"745 150 CURVE SMOOTH",
"946.32 150 OFFCURVE",
"1114 312.088 OFFCURVE",
"1114 513.131 CURVE SMOOTH",
"1114 1038.83 LINE SMOOTH",
"1114 1087.01 OFFCURVE",
"1151.83 1126.06 OFFCURVE",
"1200 1126.06 CURVE SMOOTH",
"1248.18 1126.06 OFFCURVE",
"1286 1087.04 OFFCURVE",
"1286 1038.83 CURVE SMOOTH",
"1286 937.357 LINE",
"1399.64 884.899 LINE",
"1568 935.008 LINE",
"1568 1051.52 LINE SMOOTH",
"1568 1249.92 OFFCURVE",
"1399.74 1409 OFFCURVE",
"1200 1409 CURVE SMOOTH"
);
},
{
closed = 1;
nodes = (
"2024 747 LINE",
"1742 747 LINE",
"1742 510.916 LINE SMOOTH",
"1742 462.637 OFFCURVE",
"1703.17 423.684 OFFCURVE",
"1655 423.684 CURVE SMOOTH",
"1606.81 423.684 OFFCURVE",
"1568 462.733 OFFCURVE",
"1568 510.916 CURVE SMOOTH",
"1568 742.488 LINE",
"1399.64 692.389 LINE",
"1286 744.844 LINE",
"1286 515.146 LINE SMOOTH",
"1287.77 313.188 OFFCURVE",
"1452.59 150 OFFCURVE",
"1655 150 CURVE SMOOTH",
"1858.51 150 OFFCURVE",
"2024 314.924 OFFCURVE",
"2024 518.434 CURVE"
);
}
);
width = 2400;
}
);
unicode = E356;
},
{
glyphname = uniE35F;
lastChange = "2013-11-26 18:25:41 +1000";
layers = (
{
layerId = "06D35582-4FA2-40C1-8C5B-DEFCD1A2473F";
name = Regular;
paths = (
{
closed = 1;
nodes = (
"1038.83 1648 LINE",
"1027.66 1557.88 OFFCURVE",
"1012.12 1512.46 OFFCURVE",
"982.466 1454.14 CURVE SMOOTH",
"952.877 1395.76 OFFCURVE",
"917.258 1349.37 OFFCURVE",
"868.277 1307.8 CURVE SMOOTH",
"807.583 1256.01 OFFCURVE",
"758.402 1232.76 OFFCURVE",
"656 1204.7 CURVE",
"656 968.328 LINE",
"849.034 968.328 LINE",
"849.034 355.669 LINE SMOOTH",
"849.034 275.892 OFFCURVE",
"857.392 214.922 OFFCURVE",
"874.131 172.918 CURVE SMOOTH",
"890.868 130.847 OFFCURVE",
"920.886 91.176 OFFCURVE",
"964.232 53.813 CURVE SMOOTH",
"1007.6 16.67 OFFCURVE",
"1059.9 -12 OFFCURVE",
"1121.24 -32 CURVE SMOOTH",
"1182.62 -52 OFFCURVE",
"1253.2 -62 OFFCURVE",
"1333.02 -62 CURVE SMOOTH",
"1403.36 -62 OFFCURVE",
"1468.8 -55 OFFCURVE",
"1529.33 -41 CURVE SMOOTH",
"1589.77 -27 OFFCURVE",
"1675.2 -1 OFFCURVE",
"1750 46.983 CURVE",
"1750 308.072 LINE",
"1662.51 250.556 OFFCURVE",
"1556.54 221.766 OFFCURVE",
"1468.15 221.766 CURVE SMOOTH",
"1418.37 221.766 OFFCURVE",
"1374.2 233.386 OFFCURVE",
"1335.54 256.538 CURVE SMOOTH",
"1306.41 273.731 OFFCURVE",
"1286.41 296.668 OFFCURVE",
"1275.72 325.387 CURVE SMOOTH",
"1264.99 354.16 OFFCURVE",
"1259.63 419.16 OFFCURVE",
"1259.63 520.41 CURVE SMOOTH",
"1259.63 968.327 LINE",
"1674.1 968.327 LINE",
"1674.1 1231.7 LINE",
"1259.63 1231.7 LINE",
"1259.63 1648 LINE"
);
}
);
width = 2400;
}
);
unicode = E35F;
},
{
glyphname = uniE366;
lastChange = "2013-11-26 18:25:28 +1000";
layers = (
{
layerId = "06D35582-4FA2-40C1-8C5B-DEFCD1A2473F";
name = Regular;
paths = (
{
closed = 1;
nodes = (
"1509.88 1424 OFFCURVE",
"1351.11 1295.01 OFFCURVE",
"1267.95 1029.67 CURVE",
"1310.78 1046.99 OFFCURVE",
"1352.35 1055.71 OFFCURVE",
"1392.69 1055.71 CURVE SMOOTH",
"1478.34 1055.71 OFFCURVE",
"1516.14 1008.57 OFFCURVE",
"1506.09 914.346 CURVE SMOOTH",
"1501.02 857.27 OFFCURVE",
"1463.22 774.204 OFFCURVE",
"1392.69 665.099 CURVE SMOOTH",
"1322.11 555.94 OFFCURVE",
"1269.18 501.419 OFFCURVE",
"1233.92 501.419 CURVE SMOOTH",
"1188.56 501.419 OFFCURVE",
"1146.98 585.698 OFFCURVE",
"1109.18 754.384 CURVE SMOOTH",
"1096.55 803.965 OFFCURVE",
"1073.87 930.445 OFFCURVE",
"1041.14 1133.83 CURVE SMOOTH",
"1010.9 1322.27 OFFCURVE",
"930.21 1410.35 OFFCURVE",
"799.2 1397.96 CURVE SMOOTH",
"743.741 1392.96 OFFCURVE",
"660.577 1343.38 OFFCURVE",
"549.714 1249.15 CURVE SMOOTH",
"469.03 1177.19 OFFCURVE",
"387.166 1105.3 OFFCURVE",
"304 1033.39 CURVE",
"383.386 932.949 LINE",
"458.991 985.029 OFFCURVE",
"503.052 1011.08 OFFCURVE",
"515.692 1011.08 CURVE SMOOTH",
"573.636 1011.08 OFFCURVE",
"627.799 921.788 OFFCURVE",
"678.237 743.221 CURVE SMOOTH",
"814.323 252.174 LINE",
"882.369 73.6129 OFFCURVE",
"965.53 -16 OFFCURVE",
"1063.83 -16 CURVE SMOOTH",
"1222.58 -16 OFFCURVE",
"1416.61 130.634 OFFCURVE",
"1645.96 423.298 CURVE SMOOTH",
"1867.69 703.518 OFFCURVE",
"1982.4 924.229 OFFCURVE",
"1989.95 1085.47 CURVE SMOOTH",
"2000 1301.23 OFFCURVE",
"1918.13 1411.56 OFFCURVE",
"1744.25 1416.55 CURVE SMOOTH"
);
}
);
width = 2400;
}
);
unicode = E366;
},
{
glyphname = uniE36F;
lastChange = "2013-11-26 18:25:17 +1000";
layers = (
{
layerId = "06D35582-4FA2-40C1-8C5B-DEFCD1A2473F";
name = Regular;
paths = (
{
closed = 1;
nodes = (
"1334.71 1632 OFFCURVE",
"1193.24 1446.13 OFFCURVE",
"1193.24 1201.04 CURVE SMOOTH",
"1193.24 958.253 OFFCURVE",
"1306.74 749.85 OFFCURVE",
"1493.9 654.886 CURVE",
"1415.19 497.461 OFFCURVE",
"1315.06 358.785 OFFCURVE",
"1210.62 254.306 CURVE",
"1021.14 483.362 OFFCURVE",
"849.845 788.94 OFFCURVE",
"779.551 1385.27 CURVE",
"500 1385.27 LINE",
"629.157 392.105 OFFCURVE",
"1014.05 75.8679 OFFCURVE",
"1115.82 15.1409 CURVE SMOOTH",
"1173.39 -19 OFFCURVE",
"1222.95 -18 OFFCURVE",
"1275.59 11.8649 CURVE SMOOTH",
"1358.22 58.8469 OFFCURVE",
"1606.34 306.914 OFFCURVE",
"1743.86 597.487 CURVE",
"1801.58 597.646 OFFCURVE",
"1870.94 604.275 OFFCURVE",
"1940 619.879 CURVE",
"1940 815.422 LINE",
"1897.69 805.668 OFFCURVE",
"1856.76 801.365 OFFCURVE",
"1819.92 801.365 CURVE SMOOTH",
"1612.67 801.365 OFFCURVE",
"1453.12 946.102 OFFCURVE",
"1453.12 1197.77 CURVE SMOOTH",
"1453.12 1321.12 OFFCURVE",
"1500.8 1385.27 OFFCURVE",
"1568.24 1385.27 CURVE SMOOTH",
"1632.41 1385.27 OFFCURVE",
"1675.18 1327.71 OFFCURVE",
"1675.18 1210.92 CURVE SMOOTH",
"1675.18 1144.52 OFFCURVE",
"1657.4 1071.75 OFFCURVE",
"1644.26 1028.7 CURVE",
"1644.26 1028.7 OFFCURVE",
"1708.13 917.289 OFFCURVE",
"1882.76 951.477 CURVE",
"1919.85 1033.81 OFFCURVE",
"1940 1140.42 OFFCURVE",
"1940 1233.94 CURVE SMOOTH",
"1940 1485.61 OFFCURVE",
"1811.7 1632 OFFCURVE",
"1576.47 1632 CURVE SMOOTH"
);
}
);
width = 2400;
}
);
unicode = E36F;
},
{
glyphname = uniE376;
lastChange = "2014-02-02 01:41:08 +1000";
layers = (
{
layerId = "06D35582-4FA2-40C1-8C5B-DEFCD1A2473F";
name = Regular;
paths = (
{
closed = 1;
nodes = (
"1912 1505 LINE",
"1139 1402 LINE",
"1139 821 LINE",
"1912 821 LINE"
);
},
{
closed = 1;
nodes = (
"1035 1386 LINE",
"440 1302 LINE",
"440 821 LINE",
"1035 821 LINE"
);
},
{
closed = 1;
nodes = (
"1035 717 LINE",
"440 717 LINE",
"440 239 LINE",
"1035 154 LINE"
);
},
{
closed = 1;
nodes = (
"1912 717 LINE",
"1139 717 LINE",
"1139 138 LINE",
"1912 33 LINE"
);
}
);
width = 2400;
}
);
unicode = E376;
},
{
glyphname = uniE37F;
lastChange = "2014-02-02 01:41:08 +1000";
layers = (
{
layerId = "06D35582-4FA2-40C1-8C5B-DEFCD1A2473F";
name = Regular;
paths = (
{
closed = 1;
nodes = (
"1148 1496.33 LINE",
"476 1496.33 LINE",
"476 824.333 LINE",
"1148 824.333 LINE"
);
},
{
closed = 1;
nodes = (
"1924 1496.33 LINE",
"1252 1496.33 LINE",
"1252 824.333 LINE",
"1924 824.333 LINE"
);
},
{
closed = 1;
nodes = (
"1148 720.333 LINE",
"476 720.333 LINE",
"476 48.333 LINE",
"1148 48.333 LINE"
);
},
{
closed = 1;
nodes = (
"1924 720.333 LINE",
"1252 720.333 LINE",
"1252 48.333 LINE",
"1924 48.333 LINE"
);
}
);
width = 2400;
}
);
unicode = E37F;
},
{
glyphname = uniE386;
lastChange = "2014-02-02 01:41:08 +1000";
layers = (
{
layerId = "06D35582-4FA2-40C1-8C5B-DEFCD1A2473F";
name = Regular;
paths = (
{
closed = 1;
nodes = (
"675 1486.2 LINE",
"760.815 1538.18 OFFCURVE",
"1090.48 1652.8 OFFCURVE",
"1315 1440.2 CURVE",
"1142 855.2 LINE",
"907.273 1062.98 OFFCURVE",
"560.968 926.414 OFFCURVE",
"500 892.2 CURVE"
);
},
{
closed = 1;
nodes = (
"1399 1394.2 LINE",
"1726.77 1143.36 OFFCURVE",
"2077.72 1354.91 OFFCURVE",
"2096 1365.2 CURVE",
"1923 774.2 LINE",
"1868.43 722.654 OFFCURVE",
"1477.77 583.627 OFFCURVE",
"1227 808.064 CURVE"
);
},
{
closed = 1;
nodes = (
"479 798.2 LINE",
"564.815 850.177 OFFCURVE",
"894.479 964.801 OFFCURVE",
"1119 752.2 CURVE",
"946 166.2 LINE",
"711.273 373.977 OFFCURVE",
"364.969 238.415 OFFCURVE",
"304 204.2 CURVE"
);
},
{
closed = 1;
nodes = (
"1201 713.2 LINE",
"1512.54 474.771 OFFCURVE",
"1890.94 668.041 OFFCURVE",
"1893 669.2 CURVE",
"1725 94.2 LINE",
"1663.12 35.741 OFFCURVE",
"1314.35 -115 OFFCURVE",
"1029 129.2 CURVE"
);
}
);
width = 2400;
}
);
unicode = E386;
},
{
glyphname = uniE38F;
lastChange = "2013-11-26 18:24:10 +1000";
layers = (
{
layerId = "06D35582-4FA2-40C1-8C5B-DEFCD1A2473F";
name = Regular;
paths = (
{
closed = 1;
nodes = (
"703.744 1669 OFFCURVE",
"300 1265.27 OFFCURVE",
"300 769.028 CURVE SMOOTH",
"300 272.757 OFFCURVE",
"703.744 -131 OFFCURVE",
"1199.99 -131 CURVE SMOOTH",
"1696.24 -131 OFFCURVE",
"2100 272.757 OFFCURVE",
"2100 769.028 CURVE SMOOTH",
"2100 1265.27 OFFCURVE",
"1696.24 1669 OFFCURVE",
"1199.99 1669 CURVE SMOOTH"
);
},
{
closed = 1;
nodes = (
"1410.65 1578.19 OFFCURVE",
"1602.46 1497.65 OFFCURVE",
"1746.42 1365.74 CURVE",
"1735.93 1366.4 LINE",
"1656.45 1366.4 OFFCURVE",
"1600.05 1297.15 OFFCURVE",
"1600.05 1222.79 CURVE SMOOTH",
"1600.05 1156.1 OFFCURVE",
"1638.53 1099.68 OFFCURVE",
"1679.53 1033 CURVE SMOOTH",
"1710.31 979.112 OFFCURVE",
"1746.25 909.878 OFFCURVE",
"1746.25 809.84 CURVE SMOOTH",
"1746.25 740.598 OFFCURVE",
"1719.61 660.224 OFFCURVE",
"1684.67 548.263 CURVE SMOOTH",
"1603.94 278.598 LINE",
"1311.51 1148.41 LINE",
"1360.22 1150.98 OFFCURVE",
"1404.12 1156.1 OFFCURVE",
"1404.12 1156.1 CURVE",
"1447.72 1161.26 OFFCURVE",
"1442.58 1225.34 OFFCURVE",
"1398.95 1222.79 CURVE",
"1398.95 1222.79 OFFCURVE",
"1267.89 1212.5 OFFCURVE",
"1183.28 1212.5 CURVE SMOOTH",
"1103.78 1212.5 OFFCURVE",
"970.179 1222.79 OFFCURVE",
"970.179 1222.79 CURVE",
"926.538 1225.34 OFFCURVE",
"921.424 1158.68 OFFCURVE",
"965.041 1156.1 CURVE",
"965.041 1156.1 OFFCURVE",
"1006.32 1150.97 OFFCURVE",
"1049.91 1148.41 CURVE",
"1175.97 802.995 LINE",
"998.871 271.917 LINE",
"704.228 1148.41 LINE",
"752.966 1150.97 OFFCURVE",
"796.822 1156.1 OFFCURVE",
"796.822 1156.1 CURVE",
"840.395 1161.26 OFFCURVE",
"835.253 1225.34 OFFCURVE",
"791.649 1222.79 CURVE",
"791.649 1222.79 OFFCURVE",
"660.603 1212.5 OFFCURVE",
"575.987 1212.5 CURVE SMOOTH",
"523.914 1213.48 LINE",
"668.603 1433.13 OFFCURVE",
"917.294 1578.19 OFFCURVE",
"1199.99 1578.19 CURVE SMOOTH"
);
},
{
closed = 1;
nodes = (
"1973.21 1041.98 OFFCURVE",
"2009.16 909.717 OFFCURVE",
"2009.16 769.031 CURVE SMOOTH",
"2009.16 470.508 OFFCURVE",
"1847.37 209.885 OFFCURVE",
"1606.81 69.6181 CURVE",
"1853.96 784.195 LINE",
"1900.11 899.634 OFFCURVE",
"1915.49 991.935 OFFCURVE",
"1915.49 1074.01 CURVE SMOOTH",
"1915.49 1103.81 OFFCURVE",
"1913.53 1131.45 OFFCURVE",
"1910.05 1157.22 CURVE"
);
},
{
closed = 1;
nodes = (
"846.889 40.802 LINE",
"576.938 171.937 OFFCURVE",
"390.832 448.744 OFFCURVE",
"390.832 769.029 CURVE SMOOTH",
"390.832 886.345 OFFCURVE",
"415.999 997.71 OFFCURVE",
"460.892 1098.34 CURVE"
);
},
{
closed = 1;
nodes = (
"1214.2 698.24 LINE",
"1462.9 16.822 LINE",
"1464.54 12.826 OFFCURVE",
"1466.55 9.13903 OFFCURVE",
"1468.7 5.68003 CURVE",
"1384.6 -24 OFFCURVE",
"1294.23 -40 OFFCURVE",
"1200 -40 CURVE SMOOTH",
"1120.57 -40 OFFCURVE",
"1043.9 -29 OFFCURVE",
"971.396 -7 CURVE"
);
}
);
width = 2400;
}
);
unicode = E38F;
},
{
glyphname = uniE396;
lastChange = "2013-11-26 18:23:53 +1000";
layers = (
{
layerId = "06D35582-4FA2-40C1-8C5B-DEFCD1A2473F";
name = Regular;
paths = (
{
closed = 1;
nodes = (
"1649.73 1631.75 LINE SMOOTH",
"1631.82 1631.75 OFFCURVE",
"1605.01 1612.24 OFFCURVE",
"1594.34 1594.29 CURVE SMOOTH",
"1034.13 601.097 LINE",
"1393.35 -56 LINE SMOOTH",
"1403.79 -74 OFFCURVE",
"1430.99 -94 OFFCURVE",
"1449.08 -94 CURVE SMOOTH",
"1704.64 -94 LINE SMOOTH",
"1739.63 -94 OFFCURVE",
"1751.62 -65 OFFCURVE",
"1731.42 -30 CURVE SMOOTH",
"1386.78 601.096 LINE",
"1932.06 1568.39 LINE SMOOTH",
"1952.26 1603.38 OFFCURVE",
"1940.27 1631.75 OFFCURVE",
"1905.28 1631.75 CURVE SMOOTH"
);
},
{
closed = 1;
nodes = (
"608.198 1317.06 LINE SMOOTH",
"573.206 1317.06 OFFCURVE",
"561.214 1288.7 OFFCURVE",
"581.419 1253.7 CURVE SMOOTH",
"744.425 971.465 LINE",
"484.267 512.393 LINE SMOOTH",
"464.063 477.401 OFFCURVE",
"476.054 449.032 OFFCURVE",
"511.046 449.032 CURVE SMOOTH",
"766.598 449.032 LINE SMOOTH",
"784.69 449.032 OFFCURVE",
"811.891 468.954 OFFCURVE",
"822.337 487.048 CURVE SMOOTH",
"1097.07 971.466 LINE",
"919.139 1279.6 LINE SMOOTH",
"908.463 1297.55 OFFCURVE",
"881.656 1317.07 OFFCURVE",
"863.749 1317.07 CURVE SMOOTH"
);
}
);
width = 2400;
}
);
unicode = E396;
},
{
glyphname = uniE39F;
lastChange = "2014-01-16 23:39:43 +1000";
layers = (
{
layerId = "06D35582-4FA2-40C1-8C5B-DEFCD1A2473F";
name = Regular;
paths = (
{
closed = 1;
nodes = (
"1779.95 1499.84 OFFCURVE",
"1741.8 1483.21 OFFCURVE",
"1689.63 1484 CURVE SMOOTH",
"1645.14 1484.68 OFFCURVE",
"1609.16 1501.4 OFFCURVE",
"1584 1508 CURVE",
"1527.53 1402.83 OFFCURVE",
"1331.74 1049.43 OFFCURVE",
"1199.19 831.52 CURVE",
"1064.78 1054.15 OFFCURVE",
"917.672 1324.27 OFFCURVE",
"814 1508 CURVE",
"786.561 1502.14 OFFCURVE",
"756.349 1485.32 OFFCURVE",
"719.426 1483.6 CURVE SMOOTH",
"666.114 1481.12 OFFCURVE",
"631.525 1497.19 OFFCURVE",
"584 1508 CURVE",
"746.803 1262.68 OFFCURVE",
"1019.56 784.194 OFFCURVE",
"1108.31 630.796 CURVE",
"1092 -24 LINE",
"1147.56 -11 OFFCURVE",
"1150 0 OFFCURVE",
"1200 0 CURVE SMOOTH",
"1254.15 0 OFFCURVE",
"1255.05 -11 OFFCURVE",
"1308 -24 CURVE",
"1290.09 630.803 LINE",
"1455.7 921.348 OFFCURVE",
"1740.92 1406.58 OFFCURVE",
"1816 1508 CURVE"
);
}
);
width = 2400;
}
);
unicode = E39F;
},
{
glyphname = uniE406;
lastChange = "2013-11-26 18:16:53 +1000";
layers = (
{
layerId = "06D35582-4FA2-40C1-8C5B-DEFCD1A2473F";
name = Regular;
paths = (
{
closed = 1;
nodes = (
"1046.37 1693.84 OFFCURVE",
"764.154 1614.69 OFFCURVE",
"711.801 1560.77 CURVE SMOOTH",
"695.026 1543.24 OFFCURVE",
"688.797 1521.64 OFFCURVE",
"693.874 1502.55 CURVE",
"702.076 1485.57 OFFCURVE",
"1051.78 935.411 OFFCURVE",
"1051.78 935.411 CURVE",
"1103.46 851.598 OFFCURVE",
"1145.64 864.577 OFFCURVE",
"1159.43 868.89 CURVE SMOOTH",
"1173.16 873.147 OFFCURVE",
"1215.09 886.152 OFFCURVE",
"1210.36 983.916 CURVE SMOOTH",
"1205.34 1098.54 OFFCURVE",
"1170.92 1609.04 OFFCURVE",
"1166.84 1632.69 CURVE",
"1160.92 1654.16 OFFCURVE",
"1144.27 1669.44 OFFCURVE",
"1120.14 1675.47 CURVE SMOOTH"
);
},
{
closed = 1;
nodes = (
"1622.5 1180.53 OFFCURVE",
"1600.74 1179.81 OFFCURVE",
"1582.75 1167.75 CURVE SMOOTH",
"1571.57 1160.46 OFFCURVE",
"1563.37 1149.47 OFFCURVE",
"1408.53 937.631 CURVE SMOOTH",
"1337.61 841.39 LINE",
"1319.2 818.993 OFFCURVE",
"1319.02 786.778 OFFCURVE",
"1336.94 759.25 CURVE SMOOTH",
"1355.6 730.685 OFFCURVE",
"1387.13 716.768 OFFCURVE",
"1416.12 724.786 CURVE",
"1414.58 722.388 LINE",
"1428.83 727.767 OFFCURVE",
"1454.35 733.996 OFFCURVE",
"1500.77 745.058 CURVE SMOOTH",
"1790.04 815.102 OFFCURVE",
"1801.16 818.84 OFFCURVE",
"1812.59 826.286 CURVE SMOOTH",
"1830.15 838.073 OFFCURVE",
"1838.96 857.828 OFFCURVE",
"1837.41 881.897 CURVE",
"1837.41 884.39 LINE",
"1829.97 955.348 OFFCURVE",
"1705.48 1140.13 OFFCURVE",
"1644.19 1170.1 CURVE SMOOTH"
);
},
{
closed = 1;
nodes = (
"619.371 892.411 OFFCURVE",
"600.534 881.714 OFFCURVE",
"587.528 861.322 CURVE SMOOTH",
"559.94 817.169 OFFCURVE",
"548.334 678.077 OFFCURVE",
"557.905 585.726 CURVE SMOOTH",
"561.277 555.276 OFFCURVE",
"566.777 529.87 OFFCURVE",
"574.77 514.738 CURVE SMOOTH",
"585.769 493.766 OFFCURVE",
"604.365 481.25 OFFCURVE",
"625.451 480.58 CURVE SMOOTH",
"638.972 479.788 OFFCURVE",
"647.42 482.132 OFFCURVE",
"902.075 564.058 CURVE SMOOTH",
"1015.77 600.374 LINE",
"1043.94 607.546 OFFCURVE",
"1062.99 633.498 OFFCURVE",
"1064.84 666.65 CURVE SMOOTH",
"1066.7 700.655 OFFCURVE",
"1049.04 730.681 OFFCURVE",
"1020.18 741.499 CURVE SMOOTH",
"940.238 774.014 LINE SMOOTH",
"666.564 886.938 OFFCURVE",
"654.319 891.405 OFFCURVE",
"640.461 891.56 CURVE SMOOTH"
);
},
{
closed = 1;
nodes = (
"1439.46 575.997 LINE",
"1412.51 586.454 OFFCURVE",
"1381.61 576.789 OFFCURVE",
"1360.89 551.142 CURVE SMOOTH",
"1339.37 524.884 OFFCURVE",
"1336.03 490.302 OFFCURVE",
"1353.29 464.109 CURVE SMOOTH",
"1398.26 390.959 LINE SMOOTH",
"1549.3 145.51 OFFCURVE",
"1560.82 128.187 OFFCURVE",
"1571.73 119.651 CURVE SMOOTH",
"1588.53 106.494 OFFCURVE",
"1609.92 104.303 OFFCURVE",
"1632.2 113.24 CURVE SMOOTH",
"1696.49 138.886 OFFCURVE",
"1836.78 317.329 OFFCURVE",
"1846.62 385.98 CURVE SMOOTH",
"1850.02 409.893 OFFCURVE",
"1842.58 430.438 OFFCURVE",
"1826.08 443.568 CURVE SMOOTH",
"1815.32 451.649 OFFCURVE",
"1807.03 454.87 OFFCURVE",
"1552.58 538.443 CURVE SMOOTH"
);
},
{
closed = 1;
nodes = (
"1126.92 508.175 OFFCURVE",
"1092.89 500.64 OFFCURVE",
"1073.75 476.814 CURVE SMOOTH",
"1017.84 410.502 LINE SMOOTH",
"825.929 185.355 OFFCURVE",
"818.029 174.93 OFFCURVE",
"813.349 161.561 CURVE SMOOTH",
"810.492 153.661 OFFCURVE",
"809.307 145.394 OFFCURVE",
"810.311 137.067 CURVE SMOOTH",
"811.463 125.095 OFFCURVE",
"816.813 113.242 OFFCURVE",
"825.836 102.302 CURVE SMOOTH",
"870.229 49.424 OFFCURVE",
"1083.53 -29 OFFCURVE",
"1151.53 -17 CURVE SMOOTH",
"1175.26 -13 OFFCURVE",
"1192.37 0.225995 OFFCURVE",
"1199.78 20.129 CURVE SMOOTH",
"1204.19 32.954 OFFCURVE",
"1204.7 41.766 OFFCURVE",
"1205.44 309.37 CURVE SMOOTH",
"1206.23 428.798 LINE",
"1207.99 457.73 OFFCURVE",
"1189.27 484.106 OFFCURVE",
"1158.52 496.021 CURVE SMOOTH"
);
}
);
width = 2400;
}
);
unicode = E406;
},
{
glyphname = uniE416;
lastChange = "2013-11-26 18:16:14 +1000";
layers = (
{
layerId = "06D35582-4FA2-40C1-8C5B-DEFCD1A2473F";
name = Regular;
paths = (
{
closed = 1;
nodes = (
"1472.15 1333 OFFCURVE",
"927.853 1331.31 OFFCURVE",
"662.552 1313.94 CURVE SMOOTH",
"540.22 1305.93 OFFCURVE",
"495.099 1276.9 OFFCURVE",
"448.974 1197.8 CURVE SMOOTH",
"383.639 1085.76 OFFCURVE",
"383.639 448.817 OFFCURVE",
"448.975 336.778 CURVE SMOOTH",
"495.1 257.684 OFFCURVE",
"540.221 228.65 OFFCURVE",
"662.553 220.641 CURVE SMOOTH",
"927.925 203.261 OFFCURVE",
"1472.08 203.269 OFFCURVE",
"1737.45 220.641 CURVE SMOOTH",
"1859.78 228.65 OFFCURVE",
"1904.9 257.684 OFFCURVE",
"1951.03 336.778 CURVE SMOOTH",
"2016.36 448.817 OFFCURVE",
"2016.2 1085.67 OFFCURVE",
"1951.03 1197.8 CURVE SMOOTH",
"1905.02 1276.96 OFFCURVE",
"1859.78 1305.93 OFFCURVE",
"1737.45 1313.94 CURVE SMOOTH"
);
},
{
closed = 1;
nodes = (
"1452 768 LINE",
"1036 536 LINE",
"1036 1000 LINE"
);
}
);
width = 2400;
}
);
unicode = E416;
},
{
glyphname = uniE426;
lastChange = "2013-12-04 20:05:46 +1000";
layers = (
{
layerId = "06D35582-4FA2-40C1-8C5B-DEFCD1A2473F";
name = Regular;
paths = (
{
closed = 1;
nodes = (
"1017 1664 LINE",
"913 1664 LINE",
"843.748 1387 LINE",
"835.135 1387 LINE",
"767 1664 LINE",
"663 1664 LINE",
"788 1256 LINE",
"788 974.998 LINE",
"890 974.998 LINE",
"890.011 1256 LINE"
);
},
{
closed = 1;
nodes = (
"1114.66 1498.85 OFFCURVE",
"1081.76 1487.1 OFFCURVE",
"1056.7 1463.93 CURVE SMOOTH",
"1031.69 1440.79 OFFCURVE",
"1019 1409.53 OFFCURVE",
"1019 1371.02 CURVE SMOOTH",
"1019 1104.96 LINE SMOOTH",
"1019 1062.31 OFFCURVE",
"1031.46 1027.91 OFFCURVE",
"1056.04 1002.71 CURVE SMOOTH",
"1080.6 977.521 OFFCURVE",
"1116.58 964.998 OFFCURVE",
"1157 964.998 CURVE SMOOTH",
"1199.32 964.998 OFFCURVE",
"1228.59 977.121 OFFCURVE",
"1252.69 1001.53 CURVE SMOOTH",
"1276.78 1025.94 OFFCURVE",
"1289 1060.1 OFFCURVE",
"1289 1103.06 CURVE SMOOTH",
"1289 1368.15 LINE SMOOTH",
"1289 1406.37 OFFCURVE",
"1276.54 1438.04 OFFCURVE",
"1251.98 1462.29 CURVE SMOOTH",
"1227.4 1486.55 OFFCURVE",
"1195.53 1498.85 OFFCURVE",
"1157 1498.85 CURVE SMOOTH"
);
},
{
closed = 1;
nodes = (
"1636 1486 LINE",
"1544 1486 LINE",
"1544 1097.47 LINE",
"1534.41 1085.97 OFFCURVE",
"1523.74 1076.59 OFFCURVE",
"1513.22 1069.6 CURVE SMOOTH",
"1502.58 1062.49 OFFCURVE",
"1493.68 1058.89 OFFCURVE",
"1486.78 1058.89 CURVE SMOOTH",
"1477.16 1058.89 OFFCURVE",
"1470.24 1061.89 OFFCURVE",
"1466.18 1067.8 CURVE SMOOTH",
"1462.24 1073.55 OFFCURVE",
"1460 1082.53 OFFCURVE",
"1460 1094.5 CURVE SMOOTH",
"1460 1486 LINE",
"1368 1486 LINE",
"1368 1059.23 LINE SMOOTH",
"1368 1029.79 OFFCURVE",
"1373.53 1007.28 OFFCURVE",
"1384.43 992.332 CURVE SMOOTH",
"1395.24 977.512 OFFCURVE",
"1411.56 969.998 OFFCURVE",
"1432.94 969.998 CURVE SMOOTH",
"1450.07 969.998 OFFCURVE",
"1468.38 974.998 OFFCURVE",
"1487.35 986.023 CURVE SMOOTH",
"1506.34 996.704 OFFCURVE",
"1524.57 1009.9 OFFCURVE",
"1541.53 1030.32 CURVE SMOOTH",
"1543.81 1033.06 LINE",
"1544 974.998 LINE",
"1636 974.998 LINE"
);
},
{
closed = 1;
nodes = (
"1166.61 1413.28 OFFCURVE",
"1176.92 1409.56 OFFCURVE",
"1184.91 1402.22 CURVE SMOOTH",
"1192.93 1394.84 OFFCURVE",
"1197 1385.63 OFFCURVE",
"1197 1374.83 CURVE SMOOTH",
"1197 1095.44 LINE SMOOTH",
"1197 1081.18 OFFCURVE",
"1193.02 1069.97 OFFCURVE",
"1185.19 1062.14 CURVE SMOOTH",
"1177.35 1054.29 OFFCURVE",
"1166.94 1050.31 OFFCURVE",
"1153.59 1050.31 CURVE SMOOTH",
"1138.15 1050.31 OFFCURVE",
"1128.2 1054.48 OFFCURVE",
"1121.31 1062.69 CURVE SMOOTH",
"1114.47 1070.82 OFFCURVE",
"1111 1081.85 OFFCURVE",
"1111 1095.44 CURVE SMOOTH",
"1111 1374.83 LINE SMOOTH",
"1111 1385.94 OFFCURVE",
"1114.74 1395.23 OFFCURVE",
"1122.11 1402.43 CURVE SMOOTH",
"1129.48 1409.63 OFFCURVE",
"1141.87 1413.28 OFFCURVE",
"1153.59 1413.28 CURVE SMOOTH"
);
},
{
closed = 1;
nodes = (
"689.559 886.278 LINE",
"579.641 879.078 OFFCURVE",
"539.105 852.996 OFFCURVE",
"497.65 781.923 CURVE SMOOTH",
"438.941 681.241 OFFCURVE",
"438.941 151.117 OFFCURVE",
"497.65 50.6389 CURVE SMOOTH",
"539.105 -20 OFFCURVE",
"579.641 -46 OFFCURVE",
"689.559 -54 CURVE",
"1710.46 -54 LINE",
"1820.37 -46 OFFCURVE",
"1860.91 -20 OFFCURVE",
"1902.36 50.6389 CURVE SMOOTH",
"1961.06 151.117 OFFCURVE",
"1960.91 681.177 OFFCURVE",
"1902.36 781.922 CURVE SMOOTH",
"1861.02 853.049 OFFCURVE",
"1820.37 879.076 OFFCURVE",
"1710.46 886.278 CURVE"
);
},
{
closed = 1;
nodes = (
"1240 739 LINE",
"1324 739 LINE",
"1324 535.446 LINE",
"1326.08 538.019 LINE SMOOTH",
"1336.92 551.401 OFFCURVE",
"1349.11 562.028 OFFCURVE",
"1362.36 569.573 CURVE SMOOTH",
"1375.56 577.091 OFFCURVE",
"1388.69 580.9 OFFCURVE",
"1401.41 580.9 CURVE SMOOTH",
"1427.45 580.9 OFFCURVE",
"1447.9 571.073 OFFCURVE",
"1462.19 551.7 CURVE SMOOTH",
"1476.55 532.209 OFFCURVE",
"1484 503.373 OFFCURVE",
"1484 465.991 CURVE SMOOTH",
"1484 209.573 LINE SMOOTH",
"1484 176.783 OFFCURVE",
"1477.21 151.524 OFFCURVE",
"1464.15 134.488 CURVE SMOOTH",
"1451.17 117.543 OFFCURVE",
"1431.8 108.998 OFFCURVE",
"1406.6 108.998 CURVE SMOOTH",
"1390.14 108.998 OFFCURVE",
"1375.16 112.634 OFFCURVE",
"1362.09 119.003 CURVE SMOOTH",
"1349.02 125.683 OFFCURVE",
"1336.91 136.134 OFFCURVE",
"1326.1 150.079 CURVE SMOOTH",
"1324 152.784 LINE",
"1324 113 LINE",
"1240 113 LINE"
);
},
{
closed = 1;
nodes = (
"894 739 LINE",
"894 650 LINE",
"794 650 LINE",
"794 113 LINE",
"700 113 LINE",
"700 650 LINE",
"598 650 LINE",
"598 739 LINE"
);
},
{
closed = 1;
nodes = (
"1722.37 586.535 OFFCURVE",
"1752.21 574.78 OFFCURVE",
"1773.26 551.616 CURVE SMOOTH",
"1794.32 528.398 OFFCURVE",
"1805 494.812 OFFCURVE",
"1805 451.689 CURVE SMOOTH",
"1805 335 LINE",
"1642 335 LINE",
"1642 246.826 LINE SMOOTH",
"1642 222.171 OFFCURVE",
"1644.97 204.916 OFFCURVE",
"1650.66 195.534 CURVE SMOOTH",
"1656.46 185.97 OFFCURVE",
"1666.43 181.111 OFFCURVE",
"1679.66 181.111 CURVE SMOOTH",
"1693.47 181.111 OFFCURVE",
"1704 185.279 OFFCURVE",
"1710.1 193.497 CURVE SMOOTH",
"1716.05 201.724 OFFCURVE",
"1719 219.1 OFFCURVE",
"1719 246.824 CURVE SMOOTH",
"1719 277 LINE",
"1805 277 LINE",
"1805 244.224 LINE SMOOTH",
"1805 197.627 OFFCURVE",
"1794.24 162.015 OFFCURVE",
"1773.03 138.239 CURVE SMOOTH",
"1751.84 114.496 OFFCURVE",
"1719.89 102.631 OFFCURVE",
"1677.71 102.631 CURVE SMOOTH",
"1640.12 102.631 OFFCURVE",
"1609.95 115.155 OFFCURVE",
"1588.06 140.18 CURVE SMOOTH",
"1566.13 165.248 OFFCURVE",
"1555 200.251 OFFCURVE",
"1555 244.224 CURVE SMOOTH",
"1555 451.697 LINE SMOOTH",
"1555 490.761 OFFCURVE",
"1567.21 523.352 OFFCURVE",
"1591.28 548.561 CURVE SMOOTH",
"1615.35 573.761 OFFCURVE",
"1646.61 586.543 OFFCURVE",
"1684.21 586.535 CURVE SMOOTH"
);
},
{
closed = 1;
nodes = (
"1073 577.002 LINE",
"1157 577 LINE",
"1157 113 LINE",
"1073 113 LINE",
"1073 165.418 LINE",
"1070.76 162.925 LINE SMOOTH",
"1054.61 144.996 OFFCURVE",
"1038.76 132.368 OFFCURVE",
"1021.5 122.658 CURVE SMOOTH",
"1004.25 112.987 OFFCURVE",
"987.609 108.09 OFFCURVE",
"972.036 108.09 CURVE SMOOTH",
"952.6 108.09 OFFCURVE",
"937.764 114.921 OFFCURVE",
"927.937 128.394 CURVE SMOOTH",
"918.028 141.979 OFFCURVE",
"913 162.444 OFFCURVE",
"913 189.21 CURVE SMOOTH",
"913 577 LINE",
"997 577 LINE",
"997 221.274 LINE SMOOTH",
"997 210.392 OFFCURVE",
"999.037 202.228 OFFCURVE",
"1002.62 197 CURVE SMOOTH",
"1006.31 191.628 OFFCURVE",
"1012.6 188.901 OFFCURVE",
"1021.35 188.901 CURVE SMOOTH",
"1027.62 188.901 OFFCURVE",
"1035.35 192.174 OFFCURVE",
"1045.02 198.638 CURVE SMOOTH",
"1054.58 204.993 OFFCURVE",
"1064.28 213.52 OFFCURVE",
"1073 223.975 CURVE"
);
},
{
closed = 1;
nodes = (
"1357.88 509.602 OFFCURVE",
"1347.57 507.947 OFFCURVE",
"1341.92 504.683 CURVE",
"1336.12 502.083 OFFCURVE",
"1330.16 497.31 OFFCURVE",
"1324.29 490.574 CURVE",
"1324 201.319 LINE",
"1330.7 194 OFFCURVE",
"1337.51 188.383 OFFCURVE",
"1344.51 184.301 CURVE",
"1351.64 181.019 OFFCURVE",
"1362.8 179.38 OFFCURVE",
"1369.89 179.38 CURVE SMOOTH",
"1378.95 179.38 OFFCURVE",
"1386.91 182.81 OFFCURVE",
"1392.18 189.574 CURVE SMOOTH",
"1397.37 196.256 OFFCURVE",
"1400 207.211 OFFCURVE",
"1400 222.138 CURVE SMOOTH",
"1400 460.783 LINE SMOOTH",
"1400 476.292 OFFCURVE",
"1396.79 488.41 OFFCURVE",
"1390.46 496.792 CURVE SMOOTH",
"1384.04 505.301 OFFCURVE",
"1375.9 509.61 OFFCURVE",
"1364.69 509.602 CURVE SMOOTH"
);
},
{
closed = 1;
nodes = (
"1667.63 507.879 OFFCURVE",
"1657.46 503.497 OFFCURVE",
"1650.94 494.852 CURVE",
"1645.06 486.279 OFFCURVE",
"1642 472.347 OFFCURVE",
"1642 452.57 CURVE SMOOTH",
"1642 404 LINE",
"1720 404 LINE",
"1720 452.57 LINE SMOOTH",
"1720 472.059 OFFCURVE",
"1716.95 485.915 OFFCURVE",
"1710.95 494.588 CURVE SMOOTH",
"1704.85 503.406 OFFCURVE",
"1694.78 507.879 OFFCURVE",
"1681.53 507.879 CURVE SMOOTH"
);
}
);
width = 2400;
}
);
unicode = E426;
},
{
glyphname = uniE436;
lastChange = "2014-02-03 19:50:27 +1000";
layers = (
{
layerId = "06D35582-4FA2-40C1-8C5B-DEFCD1A2473F";
name = Regular;
paths = (
{
closed = 1;
nodes = (
"844.28 1538.54 OFFCURVE",
"760.852 1449.93 OFFCURVE",
"789.372 1350.26 CURVE SMOOTH",
"824.464 1227.6 OFFCURVE",
"1107.38 1264.24 OFFCURVE",
"1265.7 1276.6 CURVE",
"1024.83 963.947 OFFCURVE",
"920.646 845.26 OFFCURVE",
"748.876 657.515 CURVE SMOOTH",
"639.762 538.255 OFFCURVE",
"511.927 450.037 OFFCURVE",
"557.459 233.373 CURVE",
"813.924 271.383 OFFCURVE",
"977.75 214.655 OFFCURVE",
"1155.63 88.053 CURVE SMOOTH",
"1261.66 12.596 OFFCURVE",
"1367.56 -85 OFFCURVE",
"1500.19 -103 CURVE SMOOTH",
"1741.86 -136 OFFCURVE",
"1870.54 59.9 OFFCURVE",
"1820.81 266.709 CURVE",
"1795.29 244.539 OFFCURVE",
"1759.77 210.318 OFFCURVE",
"1710.74 202.902 CURVE SMOOTH",
"1350.63 148.443 OFFCURVE",
"1235.79 453.115 OFFCURVE",
"897.224 475.671 CURVE",
"1100.49 699.71 OFFCURVE",
"1397.71 1026.59 OFFCURVE",
"1533.68 1187.27 CURVE SMOOTH",
"1586.1 1249.2 OFFCURVE",
"1636.21 1304.29 OFFCURVE",
"1682.47 1361.96 CURVE SMOOTH",
"1723.1 1412.59 OFFCURVE",
"1758.19 1462.84 OFFCURVE",
"1734.67 1587.48 CURVE",
"1475.06 1519.46 OFFCURVE",
"1043.57 1518.67 OFFCURVE",
"894.034 1613 CURVE"
);
}
);
width = 2400;
}
);
unicode = E436;
},
{
glyphname = uniE800;
lastChange = "2014-09-22 12:33:08 +1000";
layers = (
{
layerId = "06D35582-4FA2-40C1-8C5B-DEFCD1A2473F";
name = Regular;
paths = (
{
closed = 1;
nodes = (
"9.30518 1058.43 LINE",
"-73.575 593.691 LINE",
"80.1735 593.691 LINE",
"96.9895 616.902 OFFCURVE",
"115.007 633.921 OFFCURVE",
"134.225 644.728 CURVE SMOOTH",
"153.444 655.536 OFFCURVE",
"178.255 660.94 OFFCURVE",
"208.697 660.94 CURVE SMOOTH",
"231.914 660.94 OFFCURVE",
"252.333 656.925 OFFCURVE",
"269.956 648.931 CURVE SMOOTH",
"287.561 640.919 OFFCURVE",
"302.781 629.718 OFFCURVE",
"315.6 615.307 CURVE SMOOTH",
"328.4 600.896 OFFCURVE",
"338.009 584.084 OFFCURVE",
"344.428 564.87 CURVE SMOOTH",
"350.828 545.656 OFFCURVE",
"354.037 525.242 OFFCURVE",
"354.037 503.626 CURVE SMOOTH",
"354.037 482.799 OFFCURVE",
"350.621 462.59 OFFCURVE",
"343.827 442.982 CURVE SMOOTH",
"337.015 423.356 OFFCURVE",
"327.405 406.149 OFFCURVE",
"315 391.344 CURVE SMOOTH",
"302.575 376.521 OFFCURVE",
"287.373 364.513 OFFCURVE",
"269.356 355.319 CURVE SMOOTH",
"251.338 346.105 OFFCURVE",
"231.106 341.508 OFFCURVE",
"208.697 341.508 CURVE SMOOTH",
"170.26 341.508 OFFCURVE",
"138.617 352.917 OFFCURVE",
"113.806 375.733 CURVE SMOOTH",
"88.9758 398.55 OFFCURVE",
"74.5616 429.172 OFFCURVE",
"70.564 467.6 CURVE",
"-100 467.6 LINE",
"-99.2119 423.562 OFFCURVE",
"-90.2033 384.928 OFFCURVE",
"-72.9741 351.716 CURVE SMOOTH",
"-55.764 318.486 OFFCURVE",
"-32.7357 290.659 OFFCURVE",
"-3.90784 268.256 CURVE SMOOTH",
"24.9201 245.833 OFFCURVE",
"57.9518 229.227 OFFCURVE",
"95.188 218.42 CURVE SMOOTH",
"132.424 207.612 OFFCURVE",
"171.461 202.208 OFFCURVE",
"212.301 202.208 CURVE SMOOTH",
"254.735 201.42 OFFCURVE",
"294.767 208.418 OFFCURVE",
"332.416 223.223 CURVE SMOOTH",
"370.046 238.027 OFFCURVE",
"403.078 259.043 OFFCURVE",
"431.512 286.269 CURVE SMOOTH",
"459.927 313.476 OFFCURVE",
"482.561 345.711 OFFCURVE",
"499.377 382.938 CURVE SMOOTH",
"500.533 385.593 LINE",
"513.708 351.608 OFFCURVE",
"532.028 322.083 OFFCURVE",
"555.565 297.043 CURVE SMOOTH",
"581.136 269.784 OFFCURVE",
"611.713 248.101 OFFCURVE",
"647.319 231.996 CURVE SMOOTH",
"682.901 215.864 OFFCURVE",
"723.486 207.812 OFFCURVE",
"769.104 207.812 CURVE SMOOTH",
"805.805 207.812 OFFCURVE",
"838.884 213.076 OFFCURVE",
"868.366 223.656 CURVE SMOOTH",
"897.821 234.211 OFFCURVE",
"925.087 248.101 OFFCURVE",
"950.111 265.354 CURVE SMOOTH",
"975.135 282.579 OFFCURVE",
"998.752 302.594 OFFCURVE",
"1021.01 325.397 CURVE SMOOTH",
"1089.41 396.281 LINE",
"1110.53 371.811 OFFCURVE",
"1132.79 348.174 OFFCURVE",
"1156.14 325.397 CURVE SMOOTH",
"1179.5 302.594 OFFCURVE",
"1204.24 282.579 OFFCURVE",
"1230.38 265.354 CURVE SMOOTH",
"1256.5 248.101 OFFCURVE",
"1284.6 234.211 OFFCURVE",
"1314.63 223.656 CURVE SMOOTH",
"1344.66 213.076 OFFCURVE",
"1376.9 207.812 OFFCURVE",
"1411.39 207.812 CURVE SMOOTH",
"1455.86 207.812 OFFCURVE",
"1496.18 215.864 OFFCURVE",
"1532.34 231.996 CURVE SMOOTH",
"1568.47 248.101 OFFCURVE",
"1598.78 270.357 OFFCURVE",
"1623.26 298.711 CURVE SMOOTH",
"1647.71 327.065 OFFCURVE",
"1666.64 360.136 OFFCURVE",
"1679.98 397.949 CURVE SMOOTH",
"1693.33 435.737 OFFCURVE",
"1700 476.34 OFFCURVE",
"1700 519.704 CURVE SMOOTH",
"1700 563.069 OFFCURVE",
"1693.33 603.098 OFFCURVE",
"1679.98 639.791 CURVE SMOOTH",
"1666.64 676.485 OFFCURVE",
"1647.71 708.435 OFFCURVE",
"1623.26 735.694 CURVE SMOOTH",
"1598.78 762.928 OFFCURVE",
"1568.75 784.323 OFFCURVE",
"1533.17 799.908 CURVE SMOOTH",
"1497.57 815.466 OFFCURVE",
"1457.53 823.257 OFFCURVE",
"1413.06 823.257 CURVE SMOOTH",
"1377.45 823.257 OFFCURVE",
"1344.37 817.68 OFFCURVE",
"1313.79 806.578 CURVE SMOOTH",
"1283.19 795.451 OFFCURVE",
"1254.83 780.727 OFFCURVE",
"1228.71 762.38 CURVE SMOOTH",
"1202.57 744.033 OFFCURVE",
"1178.09 722.612 OFFCURVE",
"1155.31 698.167 CURVE SMOOTH",
"1132.5 673.696 OFFCURVE",
"1110.53 648.678 OFFCURVE",
"1089.41 623.113 CURVE",
"1067.15 649.799 OFFCURVE",
"1044.63 675.077 OFFCURVE",
"1021.85 699 CURVE SMOOTH",
"999.039 722.898 OFFCURVE",
"974.562 744.033 OFFCURVE",
"948.443 762.38 CURVE SMOOTH",
"922.298 780.727 OFFCURVE",
"893.937 795.451 OFFCURVE",
"863.361 806.578 CURVE SMOOTH",
"832.759 817.68 OFFCURVE",
"799.132 823.257 OFFCURVE",
"762.431 823.257 CURVE SMOOTH",
"717.934 823.257 OFFCURVE",
"677.896 815.179 OFFCURVE",
"642.315 799.073 CURVE SMOOTH",
"606.707 782.942 OFFCURVE",
"576.679 761.26 OFFCURVE",
"552.227 734.026 CURVE SMOOTH",
"528.398 707.487 OFFCURVE",
"510.119 676.216 OFFCURVE",
"497.382 640.216 CURVE",
"486.736 664.501 OFFCURVE",
"473.189 686.217 OFFCURVE",
"456.736 705.372 CURVE SMOOTH",
"434.702 730.984 OFFCURVE",
"407.676 751.399 OFFCURVE",
"375.658 766.616 CURVE SMOOTH",
"343.621 781.815 OFFCURVE",
"306.779 789.433 OFFCURVE",
"265.152 789.433 CURVE SMOOTH",
"231.519 789.433 OFFCURVE",
"201.49 784.423 OFFCURVE",
"175.065 774.422 CURVE SMOOTH",
"148.639 764.402 OFFCURVE",
"123.809 747.797 OFFCURVE",
"100.593 724.586 CURVE",
"98.1907 726.988 LINE",
"131.823 917.926 LINE",
"478.958 917.926 LINE",
"478.958 1058.43 LINE"
);
},
{
closed = 1;
nodes = (
"783.545 656.47 OFFCURVE",
"804.685 651.727 OFFCURVE",
"825.825 642.293 CURVE SMOOTH",
"846.939 632.834 OFFCURVE",
"867.245 620.871 OFFCURVE",
"886.717 606.434 CURVE SMOOTH",
"906.163 591.97 OFFCURVE",
"924.8 576.125 OFFCURVE",
"942.604 558.9 CURVE SMOOTH",
"960.381 541.647 OFFCURVE",
"975.97 525.803 OFFCURVE",
"989.315 511.365 CURVE",
"975.97 495.781 OFFCURVE",
"960.955 479.936 OFFCURVE",
"944.272 463.831 CURVE SMOOTH",
"927.589 447.699 OFFCURVE",
"909.786 433.235 OFFCURVE",
"890.888 420.466 CURVE SMOOTH",
"871.963 407.67 OFFCURVE",
"851.944 397.116 OFFCURVE",
"830.83 388.776 CURVE SMOOTH",
"809.69 380.437 OFFCURVE",
"788.549 376.267 OFFCURVE",
"767.435 376.267 CURVE SMOOTH",
"726.276 376.267 OFFCURVE",
"694.031 389.037 OFFCURVE",
"670.675 414.628 CURVE SMOOTH",
"647.319 440.194 OFFCURVE",
"635.642 473.004 OFFCURVE",
"635.642 513.033 CURVE SMOOTH",
"635.642 549.726 OFFCURVE",
"647.033 582.797 OFFCURVE",
"669.841 612.272 CURVE SMOOTH",
"692.623 641.72 OFFCURVE",
"723.486 656.47 OFFCURVE",
"762.431 656.47 CURVE SMOOTH"
);
},
{
closed = 1;
nodes = (
"1450.85 656.47 OFFCURVE",
"1483.39 642.554 OFFCURVE",
"1507.31 614.773 CURVE SMOOTH",
"1531.22 586.967 OFFCURVE",
"1543.18 553.609 OFFCURVE",
"1543.18 514.701 CURVE SMOOTH",
"1543.18 475.766 OFFCURVE",
"1532.05 442.982 OFFCURVE",
"1509.82 416.296 CURVE SMOOTH",
"1487.56 389.61 OFFCURVE",
"1455.86 376.267 OFFCURVE",
"1414.73 376.267 CURVE SMOOTH",
"1391.37 376.267 OFFCURVE",
"1369.4 380.15 OFFCURVE",
"1348.83 387.942 CURVE SMOOTH",
"1328.24 395.708 OFFCURVE",
"1308.5 406.002 OFFCURVE",
"1289.6 418.798 CURVE SMOOTH",
"1270.68 431.568 OFFCURVE",
"1252.9 446.031 OFFCURVE",
"1236.22 462.163 CURVE SMOOTH",
"1219.54 478.268 OFFCURVE",
"1203.95 494.686 OFFCURVE",
"1189.51 511.365 CURVE",
"1234.55 558.9 LINE SMOOTH",
"1251.23 576.125 OFFCURVE",
"1268.75 591.97 OFFCURVE",
"1287.1 606.434 CURVE SMOOTH",
"1305.45 620.871 OFFCURVE",
"1324.9 632.834 OFFCURVE",
"1345.49 642.293 CURVE SMOOTH",
"1366.06 651.727 OFFCURVE",
"1387.46 656.47 OFFCURVE",
"1409.72 656.47 CURVE SMOOTH"
);
}
